%TF.GenerationSoftware,KiCad,Pcbnew,(5.1.8)-1*%
%TF.CreationDate,2021-05-10T11:21:08+03:00*%
%TF.ProjectId,PWR_SUB_SYS_PCB,5057525f-5355-4425-9f53-59535f504342,rev?*%
%TF.SameCoordinates,Original*%
%TF.FileFunction,Soldermask,Bot*%
%TF.FilePolarity,Negative*%
%FSLAX46Y46*%
G04 Gerber Fmt 4.6, Leading zero omitted, Abs format (unit mm)*
G04 Created by KiCad (PCBNEW (5.1.8)-1) date 2021-05-10 11:21:08*
%MOMM*%
%LPD*%
G01*
G04 APERTURE LIST*
%ADD10R,1.600000X1.600000*%
%ADD11O,1.600000X1.600000*%
%ADD12O,1.700000X1.700000*%
%ADD13R,1.700000X1.700000*%
%ADD14R,0.900000X1.200000*%
%ADD15R,1.600000X5.700000*%
%ADD16C,1.676400*%
%ADD17C,2.100000*%
%ADD18C,1.408000*%
%ADD19R,1.408000X1.408000*%
%ADD20C,0.300000*%
%ADD21R,2.290000X3.002000*%
%ADD22R,1.970000X0.600000*%
%ADD23C,2.200000*%
%ADD24C,1.530000*%
%ADD25C,1.600000*%
G04 APERTURE END LIST*
D10*
%TO.C,A1*%
X230695500Y-99110800D03*
D11*
X215455500Y-66090800D03*
X230695500Y-96570800D03*
X215455500Y-68630800D03*
X230695500Y-94030800D03*
X215455500Y-71170800D03*
X230695500Y-91490800D03*
X215455500Y-73710800D03*
X230695500Y-88950800D03*
X215455500Y-76250800D03*
X230695500Y-86410800D03*
X215455500Y-78790800D03*
X230695500Y-83870800D03*
X215455500Y-81330800D03*
X230695500Y-81330800D03*
X215455500Y-83870800D03*
X230695500Y-78790800D03*
X215455500Y-86410800D03*
X230695500Y-76250800D03*
X215455500Y-88950800D03*
X230695500Y-73710800D03*
X215455500Y-91490800D03*
X230695500Y-71170800D03*
X215455500Y-94030800D03*
X230695500Y-68630800D03*
X215455500Y-96570800D03*
X230695500Y-66090800D03*
X215455500Y-99110800D03*
X230695500Y-63550800D03*
X215455500Y-63550800D03*
%TD*%
D12*
%TO.C,BT1*%
X142925800Y-80606900D03*
D13*
X140385800Y-80606900D03*
%TD*%
D12*
%TO.C,BT2*%
X140525500Y-84607400D03*
D13*
X143065500Y-84607400D03*
%TD*%
%TO.C,BT3*%
X140512800Y-89090500D03*
D12*
X143052800Y-89090500D03*
%TD*%
D13*
%TO.C,BT4*%
X143040100Y-93179900D03*
D12*
X140500100Y-93179900D03*
%TD*%
%TO.C,C17*%
G36*
G01*
X211368700Y-118025000D02*
X210418700Y-118025000D01*
G75*
G02*
X210168700Y-117775000I0J250000D01*
G01*
X210168700Y-117100000D01*
G75*
G02*
X210418700Y-116850000I250000J0D01*
G01*
X211368700Y-116850000D01*
G75*
G02*
X211618700Y-117100000I0J-250000D01*
G01*
X211618700Y-117775000D01*
G75*
G02*
X211368700Y-118025000I-250000J0D01*
G01*
G37*
G36*
G01*
X211368700Y-115950000D02*
X210418700Y-115950000D01*
G75*
G02*
X210168700Y-115700000I0J250000D01*
G01*
X210168700Y-115025000D01*
G75*
G02*
X210418700Y-114775000I250000J0D01*
G01*
X211368700Y-114775000D01*
G75*
G02*
X211618700Y-115025000I0J-250000D01*
G01*
X211618700Y-115700000D01*
G75*
G02*
X211368700Y-115950000I-250000J0D01*
G01*
G37*
%TD*%
%TO.C,C18*%
G36*
G01*
X213475600Y-121801100D02*
X213950600Y-121801100D01*
G75*
G02*
X214188100Y-122038600I0J-237500D01*
G01*
X214188100Y-122638600D01*
G75*
G02*
X213950600Y-122876100I-237500J0D01*
G01*
X213475600Y-122876100D01*
G75*
G02*
X213238100Y-122638600I0J237500D01*
G01*
X213238100Y-122038600D01*
G75*
G02*
X213475600Y-121801100I237500J0D01*
G01*
G37*
G36*
G01*
X213475600Y-120076100D02*
X213950600Y-120076100D01*
G75*
G02*
X214188100Y-120313600I0J-237500D01*
G01*
X214188100Y-120913600D01*
G75*
G02*
X213950600Y-121151100I-237500J0D01*
G01*
X213475600Y-121151100D01*
G75*
G02*
X213238100Y-120913600I0J237500D01*
G01*
X213238100Y-120313600D01*
G75*
G02*
X213475600Y-120076100I237500J0D01*
G01*
G37*
%TD*%
%TO.C,C19*%
G36*
G01*
X224277400Y-125567801D02*
X224277400Y-124267799D01*
G75*
G02*
X224527399Y-124017800I249999J0D01*
G01*
X225352401Y-124017800D01*
G75*
G02*
X225602400Y-124267799I0J-249999D01*
G01*
X225602400Y-125567801D01*
G75*
G02*
X225352401Y-125817800I-249999J0D01*
G01*
X224527399Y-125817800D01*
G75*
G02*
X224277400Y-125567801I0J249999D01*
G01*
G37*
G36*
G01*
X227402400Y-125567801D02*
X227402400Y-124267799D01*
G75*
G02*
X227652399Y-124017800I249999J0D01*
G01*
X228477401Y-124017800D01*
G75*
G02*
X228727400Y-124267799I0J-249999D01*
G01*
X228727400Y-125567801D01*
G75*
G02*
X228477401Y-125817800I-249999J0D01*
G01*
X227652399Y-125817800D01*
G75*
G02*
X227402400Y-125567801I0J249999D01*
G01*
G37*
%TD*%
%TO.C,C20*%
G36*
G01*
X224429000Y-122735701D02*
X224429000Y-121435699D01*
G75*
G02*
X224678999Y-121185700I249999J0D01*
G01*
X225504001Y-121185700D01*
G75*
G02*
X225754000Y-121435699I0J-249999D01*
G01*
X225754000Y-122735701D01*
G75*
G02*
X225504001Y-122985700I-249999J0D01*
G01*
X224678999Y-122985700D01*
G75*
G02*
X224429000Y-122735701I0J249999D01*
G01*
G37*
G36*
G01*
X227554000Y-122735701D02*
X227554000Y-121435699D01*
G75*
G02*
X227803999Y-121185700I249999J0D01*
G01*
X228629001Y-121185700D01*
G75*
G02*
X228879000Y-121435699I0J-249999D01*
G01*
X228879000Y-122735701D01*
G75*
G02*
X228629001Y-122985700I-249999J0D01*
G01*
X227803999Y-122985700D01*
G75*
G02*
X227554000Y-122735701I0J249999D01*
G01*
G37*
%TD*%
D14*
%TO.C,D1*%
X219782700Y-121780900D03*
X216482700Y-121780900D03*
%TD*%
D15*
%TO.C,L3*%
X220724000Y-126619600D03*
X216024000Y-126619600D03*
%TD*%
%TO.C,R8*%
G36*
G01*
X214478600Y-112375701D02*
X214478600Y-111475699D01*
G75*
G02*
X214728599Y-111225700I249999J0D01*
G01*
X215428601Y-111225700D01*
G75*
G02*
X215678600Y-111475699I0J-249999D01*
G01*
X215678600Y-112375701D01*
G75*
G02*
X215428601Y-112625700I-249999J0D01*
G01*
X214728599Y-112625700D01*
G75*
G02*
X214478600Y-112375701I0J249999D01*
G01*
G37*
G36*
G01*
X216478600Y-112375701D02*
X216478600Y-111475699D01*
G75*
G02*
X216728599Y-111225700I249999J0D01*
G01*
X217428601Y-111225700D01*
G75*
G02*
X217678600Y-111475699I0J-249999D01*
G01*
X217678600Y-112375701D01*
G75*
G02*
X217428601Y-112625700I-249999J0D01*
G01*
X216728599Y-112625700D01*
G75*
G02*
X216478600Y-112375701I0J249999D01*
G01*
G37*
%TD*%
%TO.C,R9*%
G36*
G01*
X220447100Y-112502701D02*
X220447100Y-111602699D01*
G75*
G02*
X220697099Y-111352700I249999J0D01*
G01*
X221397101Y-111352700D01*
G75*
G02*
X221647100Y-111602699I0J-249999D01*
G01*
X221647100Y-112502701D01*
G75*
G02*
X221397101Y-112752700I-249999J0D01*
G01*
X220697099Y-112752700D01*
G75*
G02*
X220447100Y-112502701I0J249999D01*
G01*
G37*
G36*
G01*
X218447100Y-112502701D02*
X218447100Y-111602699D01*
G75*
G02*
X218697099Y-111352700I249999J0D01*
G01*
X219397101Y-111352700D01*
G75*
G02*
X219647100Y-111602699I0J-249999D01*
G01*
X219647100Y-112502701D01*
G75*
G02*
X219397101Y-112752700I-249999J0D01*
G01*
X218697099Y-112752700D01*
G75*
G02*
X218447100Y-112502701I0J249999D01*
G01*
G37*
%TD*%
%TO.C,R10*%
G36*
G01*
X212107399Y-112716100D02*
X213007401Y-112716100D01*
G75*
G02*
X213257400Y-112966099I0J-249999D01*
G01*
X213257400Y-113666101D01*
G75*
G02*
X213007401Y-113916100I-249999J0D01*
G01*
X212107399Y-113916100D01*
G75*
G02*
X211857400Y-113666101I0J249999D01*
G01*
X211857400Y-112966099D01*
G75*
G02*
X212107399Y-112716100I249999J0D01*
G01*
G37*
G36*
G01*
X212107399Y-110716100D02*
X213007401Y-110716100D01*
G75*
G02*
X213257400Y-110966099I0J-249999D01*
G01*
X213257400Y-111666101D01*
G75*
G02*
X213007401Y-111916100I-249999J0D01*
G01*
X212107399Y-111916100D01*
G75*
G02*
X211857400Y-111666101I0J249999D01*
G01*
X211857400Y-110966099D01*
G75*
G02*
X212107399Y-110716100I249999J0D01*
G01*
G37*
%TD*%
%TO.C,R11*%
G36*
G01*
X224450101Y-118157900D02*
X223550099Y-118157900D01*
G75*
G02*
X223300100Y-117907901I0J249999D01*
G01*
X223300100Y-117207899D01*
G75*
G02*
X223550099Y-116957900I249999J0D01*
G01*
X224450101Y-116957900D01*
G75*
G02*
X224700100Y-117207899I0J-249999D01*
G01*
X224700100Y-117907901D01*
G75*
G02*
X224450101Y-118157900I-249999J0D01*
G01*
G37*
G36*
G01*
X224450101Y-116157900D02*
X223550099Y-116157900D01*
G75*
G02*
X223300100Y-115907901I0J249999D01*
G01*
X223300100Y-115207899D01*
G75*
G02*
X223550099Y-114957900I249999J0D01*
G01*
X224450101Y-114957900D01*
G75*
G02*
X224700100Y-115207899I0J-249999D01*
G01*
X224700100Y-115907901D01*
G75*
G02*
X224450101Y-116157900I-249999J0D01*
G01*
G37*
%TD*%
%TO.C,R12*%
G36*
G01*
X225400100Y-113467901D02*
X225400100Y-112567899D01*
G75*
G02*
X225650099Y-112317900I249999J0D01*
G01*
X226350101Y-112317900D01*
G75*
G02*
X226600100Y-112567899I0J-249999D01*
G01*
X226600100Y-113467901D01*
G75*
G02*
X226350101Y-113717900I-249999J0D01*
G01*
X225650099Y-113717900D01*
G75*
G02*
X225400100Y-113467901I0J249999D01*
G01*
G37*
G36*
G01*
X223400100Y-113467901D02*
X223400100Y-112567899D01*
G75*
G02*
X223650099Y-112317900I249999J0D01*
G01*
X224350101Y-112317900D01*
G75*
G02*
X224600100Y-112567899I0J-249999D01*
G01*
X224600100Y-113467901D01*
G75*
G02*
X224350101Y-113717900I-249999J0D01*
G01*
X223650099Y-113717900D01*
G75*
G02*
X223400100Y-113467901I0J249999D01*
G01*
G37*
%TD*%
D16*
%TO.C,S2*%
X180606700Y-148043900D03*
X178066700Y-148043900D03*
X183146700Y-148043900D03*
%TD*%
%TO.C,S3*%
X149085300Y-134569200D03*
X151625300Y-134569200D03*
X146545300Y-134569200D03*
%TD*%
%TO.C,S4*%
X209000000Y-77740000D03*
X209000000Y-72660000D03*
X209000000Y-75200000D03*
%TD*%
%TO.C,S5*%
X187025280Y-60576460D03*
X184485280Y-60576460D03*
X189565280Y-60576460D03*
%TD*%
%TO.C,S6*%
X160578800Y-77195680D03*
X165658800Y-77195680D03*
X163118800Y-77195680D03*
%TD*%
%TO.C,S7*%
X192840000Y-131300000D03*
X195380000Y-131300000D03*
X190300000Y-131300000D03*
%TD*%
%TO.C,S8*%
X158860000Y-114400000D03*
X163940000Y-114400000D03*
X161400000Y-114400000D03*
%TD*%
%TO.C,S9*%
X209800000Y-103500000D03*
X204720000Y-103500000D03*
X207260000Y-103500000D03*
%TD*%
D17*
%TO.C,S10*%
X160779400Y-138436700D03*
X144579400Y-144036700D03*
D18*
X158679400Y-141236700D03*
X156179400Y-141236700D03*
X153679400Y-141236700D03*
D19*
X148679400Y-141236700D03*
%TD*%
D17*
%TO.C,S11*%
X192986340Y-86453640D03*
X176786340Y-92053640D03*
D18*
X190886340Y-89253640D03*
X188386340Y-89253640D03*
X185886340Y-89253640D03*
D19*
X180886340Y-89253640D03*
%TD*%
%TO.C,S12*%
X157114720Y-61147700D03*
D18*
X162114720Y-61147700D03*
X164614720Y-61147700D03*
X167114720Y-61147700D03*
D17*
X153014720Y-63947700D03*
X169214720Y-58347700D03*
%TD*%
D20*
%TO.C,U1*%
X189543901Y-111271901D03*
X188243901Y-111271901D03*
X189543901Y-109971901D03*
X188243901Y-109971901D03*
X189543901Y-108671901D03*
X188243901Y-108671901D03*
X189543901Y-107371901D03*
X188243901Y-107371901D03*
%TD*%
D21*
%TO.C,U4*%
X217294500Y-116815200D03*
D22*
X219769500Y-118720200D03*
X219769500Y-117450200D03*
X219769500Y-116180200D03*
X219769500Y-114910200D03*
X214819500Y-114910200D03*
X214819500Y-116180200D03*
X214819500Y-117450200D03*
X214819500Y-118720200D03*
%TD*%
D23*
%TO.C,U5*%
X230225600Y-108546900D03*
X209905600Y-108546900D03*
X209905600Y-128866900D03*
X230225600Y-128866900D03*
D24*
X202285600Y-127469900D03*
X202285600Y-124929900D03*
X202285600Y-119849900D03*
X202285600Y-122389900D03*
X202285600Y-117309900D03*
X202285600Y-114769900D03*
X202285600Y-112229900D03*
X202285600Y-109689900D03*
%TD*%
D13*
%TO.C,J1*%
X142500000Y-72600000D03*
D12*
X142500000Y-70060000D03*
X142500000Y-67520000D03*
X142500000Y-64980000D03*
X142500000Y-62440000D03*
X142500000Y-59900000D03*
%TD*%
D10*
%TO.C,C55*%
X200426320Y-152750520D03*
D25*
X200426320Y-150750520D03*
%TD*%
%TO.C,C56*%
X194523360Y-150801320D03*
D10*
X194523360Y-152801320D03*
%TD*%
%TO.C,C57*%
X206221181Y-152681324D03*
D25*
X206221181Y-150681324D03*
%TD*%
D16*
%TO.C,S13*%
X203217780Y-136398000D03*
X208297780Y-136398000D03*
X205757780Y-136398000D03*
%TD*%
M02*
