%TF.GenerationSoftware,KiCad,Pcbnew,(5.1.8)-1*%
%TF.CreationDate,2021-05-10T11:21:08+03:00*%
%TF.ProjectId,PWR_SUB_SYS_PCB,5057525f-5355-4425-9f53-59535f504342,rev?*%
%TF.SameCoordinates,Original*%
%TF.FileFunction,Legend,Top*%
%TF.FilePolarity,Positive*%
%FSLAX46Y46*%
G04 Gerber Fmt 4.6, Leading zero omitted, Abs format (unit mm)*
G04 Created by KiCad (PCBNEW (5.1.8)-1) date 2021-05-10 11:21:08*
%MOMM*%
%LPD*%
G01*
G04 APERTURE LIST*
%ADD10C,0.150000*%
%ADD11C,0.300000*%
%ADD12C,0.120000*%
%ADD13C,0.127000*%
%ADD14C,0.200000*%
%ADD15C,0.015000*%
G04 APERTURE END LIST*
D10*
X145973847Y-89200028D02*
X146735752Y-89200028D01*
D11*
X137803128Y-73447971D02*
X136945985Y-73447971D01*
X137374557Y-73447971D02*
X137374557Y-71947971D01*
X137231700Y-72162257D01*
X137088842Y-72305114D01*
X136945985Y-72376542D01*
X138374557Y-72090828D02*
X138445985Y-72019400D01*
X138588842Y-71947971D01*
X138945985Y-71947971D01*
X139088842Y-72019400D01*
X139160271Y-72090828D01*
X139231700Y-72233685D01*
X139231700Y-72376542D01*
X139160271Y-72590828D01*
X138303128Y-73447971D01*
X139231700Y-73447971D01*
X139660271Y-71947971D02*
X140160271Y-73447971D01*
X140660271Y-71947971D01*
X137284042Y-69365100D02*
X137141185Y-69293671D01*
X136926900Y-69293671D01*
X136712614Y-69365100D01*
X136569757Y-69507957D01*
X136498328Y-69650814D01*
X136426900Y-69936528D01*
X136426900Y-70150814D01*
X136498328Y-70436528D01*
X136569757Y-70579385D01*
X136712614Y-70722242D01*
X136926900Y-70793671D01*
X137069757Y-70793671D01*
X137284042Y-70722242D01*
X137355471Y-70650814D01*
X137355471Y-70150814D01*
X137069757Y-70150814D01*
X137998328Y-70793671D02*
X137998328Y-69293671D01*
X138855471Y-70793671D01*
X138855471Y-69293671D01*
X139569757Y-70793671D02*
X139569757Y-69293671D01*
X139926900Y-69293671D01*
X140141185Y-69365100D01*
X140284042Y-69507957D01*
X140355471Y-69650814D01*
X140426900Y-69936528D01*
X140426900Y-70150814D01*
X140355471Y-70436528D01*
X140284042Y-70579385D01*
X140141185Y-70722242D01*
X139926900Y-70793671D01*
X139569757Y-70793671D01*
X138768257Y-67215571D02*
X138768257Y-68215571D01*
X138411114Y-66644142D02*
X138053971Y-67715571D01*
X138982542Y-67715571D01*
X139339685Y-66715571D02*
X139839685Y-68215571D01*
X140339685Y-66715571D01*
X136925357Y-61851471D02*
X137853928Y-61851471D01*
X137353928Y-62422900D01*
X137568214Y-62422900D01*
X137711071Y-62494328D01*
X137782500Y-62565757D01*
X137853928Y-62708614D01*
X137853928Y-63065757D01*
X137782500Y-63208614D01*
X137711071Y-63280042D01*
X137568214Y-63351471D01*
X137139642Y-63351471D01*
X136996785Y-63280042D01*
X136925357Y-63208614D01*
X138282500Y-61851471D02*
X138782500Y-63351471D01*
X139282500Y-61851471D01*
X139639642Y-61851471D02*
X140568214Y-61851471D01*
X140068214Y-62422900D01*
X140282500Y-62422900D01*
X140425357Y-62494328D01*
X140496785Y-62565757D01*
X140568214Y-62708614D01*
X140568214Y-63065757D01*
X140496785Y-63208614D01*
X140425357Y-63280042D01*
X140282500Y-63351471D01*
X139853928Y-63351471D01*
X139711071Y-63280042D01*
X139639642Y-63208614D01*
X137144342Y-59217800D02*
X137001485Y-59146371D01*
X136787200Y-59146371D01*
X136572914Y-59217800D01*
X136430057Y-59360657D01*
X136358628Y-59503514D01*
X136287200Y-59789228D01*
X136287200Y-60003514D01*
X136358628Y-60289228D01*
X136430057Y-60432085D01*
X136572914Y-60574942D01*
X136787200Y-60646371D01*
X136930057Y-60646371D01*
X137144342Y-60574942D01*
X137215771Y-60503514D01*
X137215771Y-60003514D01*
X136930057Y-60003514D01*
X137858628Y-60646371D02*
X137858628Y-59146371D01*
X138715771Y-60646371D01*
X138715771Y-59146371D01*
X139430057Y-60646371D02*
X139430057Y-59146371D01*
X139787200Y-59146371D01*
X140001485Y-59217800D01*
X140144342Y-59360657D01*
X140215771Y-59503514D01*
X140287200Y-59789228D01*
X140287200Y-60003514D01*
X140215771Y-60289228D01*
X140144342Y-60432085D01*
X140001485Y-60574942D01*
X139787200Y-60646371D01*
X139430057Y-60646371D01*
X137347542Y-64335900D02*
X137204685Y-64264471D01*
X136990400Y-64264471D01*
X136776114Y-64335900D01*
X136633257Y-64478757D01*
X136561828Y-64621614D01*
X136490400Y-64907328D01*
X136490400Y-65121614D01*
X136561828Y-65407328D01*
X136633257Y-65550185D01*
X136776114Y-65693042D01*
X136990400Y-65764471D01*
X137133257Y-65764471D01*
X137347542Y-65693042D01*
X137418971Y-65621614D01*
X137418971Y-65121614D01*
X137133257Y-65121614D01*
X138061828Y-65764471D02*
X138061828Y-64264471D01*
X138918971Y-65764471D01*
X138918971Y-64264471D01*
X139633257Y-65764471D02*
X139633257Y-64264471D01*
X139990400Y-64264471D01*
X140204685Y-64335900D01*
X140347542Y-64478757D01*
X140418971Y-64621614D01*
X140490400Y-64907328D01*
X140490400Y-65121614D01*
X140418971Y-65407328D01*
X140347542Y-65550185D01*
X140204685Y-65693042D01*
X139990400Y-65764471D01*
X139633257Y-65764471D01*
X157121428Y-98278571D02*
X157121428Y-96778571D01*
X157692857Y-96778571D01*
X157835714Y-96850000D01*
X157907142Y-96921428D01*
X157978571Y-97064285D01*
X157978571Y-97278571D01*
X157907142Y-97421428D01*
X157835714Y-97492857D01*
X157692857Y-97564285D01*
X157121428Y-97564285D01*
X158835714Y-98278571D02*
X158692857Y-98207142D01*
X158621428Y-98135714D01*
X158550000Y-97992857D01*
X158550000Y-97564285D01*
X158621428Y-97421428D01*
X158692857Y-97350000D01*
X158835714Y-97278571D01*
X159050000Y-97278571D01*
X159192857Y-97350000D01*
X159264285Y-97421428D01*
X159335714Y-97564285D01*
X159335714Y-97992857D01*
X159264285Y-98135714D01*
X159192857Y-98207142D01*
X159050000Y-98278571D01*
X158835714Y-98278571D01*
X159835714Y-97278571D02*
X160121428Y-98278571D01*
X160407142Y-97564285D01*
X160692857Y-98278571D01*
X160978571Y-97278571D01*
X162121428Y-98207142D02*
X161978571Y-98278571D01*
X161692857Y-98278571D01*
X161550000Y-98207142D01*
X161478571Y-98064285D01*
X161478571Y-97492857D01*
X161550000Y-97350000D01*
X161692857Y-97278571D01*
X161978571Y-97278571D01*
X162121428Y-97350000D01*
X162192857Y-97492857D01*
X162192857Y-97635714D01*
X161478571Y-97778571D01*
X162835714Y-98278571D02*
X162835714Y-97278571D01*
X162835714Y-97564285D02*
X162907142Y-97421428D01*
X162978571Y-97350000D01*
X163121428Y-97278571D01*
X163264285Y-97278571D01*
X165121428Y-98278571D02*
X164978571Y-98207142D01*
X164907142Y-98064285D01*
X164907142Y-96778571D01*
X165907142Y-98278571D02*
X165764285Y-98207142D01*
X165692857Y-98135714D01*
X165621428Y-97992857D01*
X165621428Y-97564285D01*
X165692857Y-97421428D01*
X165764285Y-97350000D01*
X165907142Y-97278571D01*
X166121428Y-97278571D01*
X166264285Y-97350000D01*
X166335714Y-97421428D01*
X166407142Y-97564285D01*
X166407142Y-97992857D01*
X166335714Y-98135714D01*
X166264285Y-98207142D01*
X166121428Y-98278571D01*
X165907142Y-98278571D01*
X167692857Y-97278571D02*
X167692857Y-98492857D01*
X167621428Y-98635714D01*
X167550000Y-98707142D01*
X167407142Y-98778571D01*
X167192857Y-98778571D01*
X167050000Y-98707142D01*
X167692857Y-98207142D02*
X167550000Y-98278571D01*
X167264285Y-98278571D01*
X167121428Y-98207142D01*
X167050000Y-98135714D01*
X166978571Y-97992857D01*
X166978571Y-97564285D01*
X167050000Y-97421428D01*
X167121428Y-97350000D01*
X167264285Y-97278571D01*
X167550000Y-97278571D01*
X167692857Y-97350000D01*
X169050000Y-97278571D02*
X169050000Y-98492857D01*
X168978571Y-98635714D01*
X168907142Y-98707142D01*
X168764285Y-98778571D01*
X168550000Y-98778571D01*
X168407142Y-98707142D01*
X169050000Y-98207142D02*
X168907142Y-98278571D01*
X168621428Y-98278571D01*
X168478571Y-98207142D01*
X168407142Y-98135714D01*
X168335714Y-97992857D01*
X168335714Y-97564285D01*
X168407142Y-97421428D01*
X168478571Y-97350000D01*
X168621428Y-97278571D01*
X168907142Y-97278571D01*
X169050000Y-97350000D01*
X169764285Y-98278571D02*
X169764285Y-97278571D01*
X169764285Y-96778571D02*
X169692857Y-96850000D01*
X169764285Y-96921428D01*
X169835714Y-96850000D01*
X169764285Y-96778571D01*
X169764285Y-96921428D01*
X170478571Y-97278571D02*
X170478571Y-98278571D01*
X170478571Y-97421428D02*
X170550000Y-97350000D01*
X170692857Y-97278571D01*
X170907142Y-97278571D01*
X171050000Y-97350000D01*
X171121428Y-97492857D01*
X171121428Y-98278571D01*
X172478571Y-97278571D02*
X172478571Y-98492857D01*
X172407142Y-98635714D01*
X172335714Y-98707142D01*
X172192857Y-98778571D01*
X171978571Y-98778571D01*
X171835714Y-98707142D01*
X172478571Y-98207142D02*
X172335714Y-98278571D01*
X172049999Y-98278571D01*
X171907142Y-98207142D01*
X171835714Y-98135714D01*
X171764285Y-97992857D01*
X171764285Y-97564285D01*
X171835714Y-97421428D01*
X171907142Y-97350000D01*
X172049999Y-97278571D01*
X172335714Y-97278571D01*
X172478571Y-97350000D01*
D10*
X213209523Y-103404761D02*
X214447619Y-103404761D01*
X213780952Y-104166666D01*
X214066666Y-104166666D01*
X214257142Y-104261904D01*
X214352380Y-104357142D01*
X214447619Y-104547619D01*
X214447619Y-105023809D01*
X214352380Y-105214285D01*
X214257142Y-105309523D01*
X214066666Y-105404761D01*
X213495238Y-105404761D01*
X213304761Y-105309523D01*
X213209523Y-105214285D01*
X215304761Y-105214285D02*
X215400000Y-105309523D01*
X215304761Y-105404761D01*
X215209523Y-105309523D01*
X215304761Y-105214285D01*
X215304761Y-105404761D01*
X216066666Y-103404761D02*
X217304761Y-103404761D01*
X216638095Y-104166666D01*
X216923809Y-104166666D01*
X217114285Y-104261904D01*
X217209523Y-104357142D01*
X217304761Y-104547619D01*
X217304761Y-105023809D01*
X217209523Y-105214285D01*
X217114285Y-105309523D01*
X216923809Y-105404761D01*
X216352380Y-105404761D01*
X216161904Y-105309523D01*
X216066666Y-105214285D01*
X219400000Y-103404761D02*
X220066666Y-105404761D01*
X220733333Y-103404761D01*
X222638095Y-103404761D02*
X223780952Y-103404761D01*
X223209523Y-105404761D02*
X223209523Y-103404761D01*
X224447619Y-105404761D02*
X224447619Y-103404761D01*
X225209523Y-103404761D01*
X225400000Y-103500000D01*
X225495238Y-103595238D01*
X225590476Y-103785714D01*
X225590476Y-104071428D01*
X225495238Y-104261904D01*
X225400000Y-104357142D01*
X225209523Y-104452380D01*
X224447619Y-104452380D01*
X226352380Y-105309523D02*
X226638095Y-105404761D01*
X227114285Y-105404761D01*
X227304761Y-105309523D01*
X227400000Y-105214285D01*
X227495238Y-105023809D01*
X227495238Y-104833333D01*
X227400000Y-104642857D01*
X227304761Y-104547619D01*
X227114285Y-104452380D01*
X226733333Y-104357142D01*
X226542857Y-104261904D01*
X226447619Y-104166666D01*
X226352380Y-103976190D01*
X226352380Y-103785714D01*
X226447619Y-103595238D01*
X226542857Y-103500000D01*
X226733333Y-103404761D01*
X227209523Y-103404761D01*
X227495238Y-103500000D01*
X166642857Y-127704761D02*
X165500000Y-127704761D01*
X166071428Y-127704761D02*
X166071428Y-125704761D01*
X165880952Y-125990476D01*
X165690476Y-126180952D01*
X165500000Y-126276190D01*
X167404761Y-125895238D02*
X167500000Y-125800000D01*
X167690476Y-125704761D01*
X168166666Y-125704761D01*
X168357142Y-125800000D01*
X168452380Y-125895238D01*
X168547619Y-126085714D01*
X168547619Y-126276190D01*
X168452380Y-126561904D01*
X167309523Y-127704761D01*
X168547619Y-127704761D01*
X169119047Y-125704761D02*
X169785714Y-127704761D01*
X170452380Y-125704761D01*
X173595238Y-127704761D02*
X172642857Y-127704761D01*
X172642857Y-125704761D01*
X174261904Y-127704761D02*
X174261904Y-125704761D01*
X174928571Y-127133333D01*
X175595238Y-125704761D01*
X175595238Y-127704761D01*
X176452380Y-125895238D02*
X176547619Y-125800000D01*
X176738095Y-125704761D01*
X177214285Y-125704761D01*
X177404761Y-125800000D01*
X177500000Y-125895238D01*
X177595238Y-126085714D01*
X177595238Y-126276190D01*
X177500000Y-126561904D01*
X176357142Y-127704761D01*
X177595238Y-127704761D01*
X178261904Y-125704761D02*
X179595238Y-125704761D01*
X178738095Y-127704761D01*
X193033333Y-80071428D02*
X193033333Y-81404761D01*
X192557142Y-79309523D02*
X192080952Y-80738095D01*
X193319047Y-80738095D01*
X195319047Y-79404761D02*
X195985714Y-81404761D01*
X196652380Y-79404761D01*
X198557142Y-79404761D02*
X199700000Y-79404761D01*
X199128571Y-81404761D02*
X199128571Y-79404761D01*
X200366666Y-81404761D02*
X200366666Y-79404761D01*
X201128571Y-79404761D01*
X201319047Y-79500000D01*
X201414285Y-79595238D01*
X201509523Y-79785714D01*
X201509523Y-80071428D01*
X201414285Y-80261904D01*
X201319047Y-80357142D01*
X201128571Y-80452380D01*
X200366666Y-80452380D01*
X202271428Y-81309523D02*
X202557142Y-81404761D01*
X203033333Y-81404761D01*
X203223809Y-81309523D01*
X203319047Y-81214285D01*
X203414285Y-81023809D01*
X203414285Y-80833333D01*
X203319047Y-80642857D01*
X203223809Y-80547619D01*
X203033333Y-80452380D01*
X202652380Y-80357142D01*
X202461904Y-80261904D01*
X202366666Y-80166666D01*
X202271428Y-79976190D01*
X202271428Y-79785714D01*
X202366666Y-79595238D01*
X202461904Y-79500000D01*
X202652380Y-79404761D01*
X203128571Y-79404761D01*
X203414285Y-79500000D01*
X204176190Y-79595238D02*
X204271428Y-79500000D01*
X204461904Y-79404761D01*
X204938095Y-79404761D01*
X205128571Y-79500000D01*
X205223809Y-79595238D01*
X205319047Y-79785714D01*
X205319047Y-79976190D01*
X205223809Y-80261904D01*
X204080952Y-81404761D01*
X205319047Y-81404761D01*
X201231454Y-57485968D02*
X201231454Y-58819301D01*
X200755263Y-56724063D02*
X200279073Y-58152635D01*
X201517168Y-58152635D01*
X203517168Y-56819301D02*
X204183835Y-58819301D01*
X204850501Y-56819301D01*
X206755263Y-56819301D02*
X207898120Y-56819301D01*
X207326692Y-58819301D02*
X207326692Y-56819301D01*
X208564787Y-58819301D02*
X208564787Y-56819301D01*
X209326692Y-56819301D01*
X209517168Y-56914540D01*
X209612406Y-57009778D01*
X209707644Y-57200254D01*
X209707644Y-57485968D01*
X209612406Y-57676444D01*
X209517168Y-57771682D01*
X209326692Y-57866920D01*
X208564787Y-57866920D01*
X210469549Y-58724063D02*
X210755263Y-58819301D01*
X211231454Y-58819301D01*
X211421930Y-58724063D01*
X211517168Y-58628825D01*
X211612406Y-58438349D01*
X211612406Y-58247873D01*
X211517168Y-58057397D01*
X211421930Y-57962159D01*
X211231454Y-57866920D01*
X210850501Y-57771682D01*
X210660025Y-57676444D01*
X210564787Y-57581206D01*
X210469549Y-57390730D01*
X210469549Y-57200254D01*
X210564787Y-57009778D01*
X210660025Y-56914540D01*
X210850501Y-56819301D01*
X211326692Y-56819301D01*
X211612406Y-56914540D01*
X155780952Y-116304761D02*
X157019047Y-116304761D01*
X156352380Y-117066666D01*
X156638095Y-117066666D01*
X156828571Y-117161904D01*
X156923809Y-117257142D01*
X157019047Y-117447619D01*
X157019047Y-117923809D01*
X156923809Y-118114285D01*
X156828571Y-118209523D01*
X156638095Y-118304761D01*
X156066666Y-118304761D01*
X155876190Y-118209523D01*
X155780952Y-118114285D01*
X157876190Y-118114285D02*
X157971428Y-118209523D01*
X157876190Y-118304761D01*
X157780952Y-118209523D01*
X157876190Y-118114285D01*
X157876190Y-118304761D01*
X158638095Y-116304761D02*
X159876190Y-116304761D01*
X159209523Y-117066666D01*
X159495238Y-117066666D01*
X159685714Y-117161904D01*
X159780952Y-117257142D01*
X159876190Y-117447619D01*
X159876190Y-117923809D01*
X159780952Y-118114285D01*
X159685714Y-118209523D01*
X159495238Y-118304761D01*
X158923809Y-118304761D01*
X158733333Y-118209523D01*
X158638095Y-118114285D01*
X161971428Y-116304761D02*
X162638095Y-118304761D01*
X163304761Y-116304761D01*
X165495238Y-118304761D02*
X165495238Y-116304761D01*
X166161904Y-117733333D01*
X166828571Y-116304761D01*
X166828571Y-118304761D01*
X167780952Y-118304761D02*
X167780952Y-116304761D01*
X168542857Y-116304761D01*
X168733333Y-116400000D01*
X168828571Y-116495238D01*
X168923809Y-116685714D01*
X168923809Y-116971428D01*
X168828571Y-117161904D01*
X168733333Y-117257142D01*
X168542857Y-117352380D01*
X167780952Y-117352380D01*
X211916404Y-135715261D02*
X210773547Y-135715261D01*
X211344976Y-135715261D02*
X211344976Y-133715261D01*
X211154500Y-134000976D01*
X210964023Y-134191452D01*
X210773547Y-134286690D01*
X212678309Y-133905738D02*
X212773547Y-133810500D01*
X212964023Y-133715261D01*
X213440214Y-133715261D01*
X213630690Y-133810500D01*
X213725928Y-133905738D01*
X213821166Y-134096214D01*
X213821166Y-134286690D01*
X213725928Y-134572404D01*
X212583071Y-135715261D01*
X213821166Y-135715261D01*
X215916404Y-133715261D02*
X216583071Y-135715261D01*
X217249738Y-133715261D01*
X220392595Y-135715261D02*
X219440214Y-135715261D01*
X219440214Y-133715261D01*
X220868785Y-133715261D02*
X222202119Y-133715261D01*
X221344976Y-135715261D01*
X223059261Y-135715261D02*
X223440214Y-135715261D01*
X223630690Y-135620023D01*
X223725928Y-135524785D01*
X223916404Y-135239071D01*
X224011642Y-134858119D01*
X224011642Y-134096214D01*
X223916404Y-133905738D01*
X223821166Y-133810500D01*
X223630690Y-133715261D01*
X223249738Y-133715261D01*
X223059261Y-133810500D01*
X222964023Y-133905738D01*
X222868785Y-134096214D01*
X222868785Y-134572404D01*
X222964023Y-134762880D01*
X223059261Y-134858119D01*
X223249738Y-134953357D01*
X223630690Y-134953357D01*
X223821166Y-134858119D01*
X223916404Y-134762880D01*
X224011642Y-134572404D01*
X225154500Y-134572404D02*
X224964023Y-134477166D01*
X224868785Y-134381928D01*
X224773547Y-134191452D01*
X224773547Y-134096214D01*
X224868785Y-133905738D01*
X224964023Y-133810500D01*
X225154500Y-133715261D01*
X225535452Y-133715261D01*
X225725928Y-133810500D01*
X225821166Y-133905738D01*
X225916404Y-134096214D01*
X225916404Y-134191452D01*
X225821166Y-134381928D01*
X225725928Y-134477166D01*
X225535452Y-134572404D01*
X225154500Y-134572404D01*
X224964023Y-134667642D01*
X224868785Y-134762880D01*
X224773547Y-134953357D01*
X224773547Y-135334309D01*
X224868785Y-135524785D01*
X224964023Y-135620023D01*
X225154500Y-135715261D01*
X225535452Y-135715261D01*
X225725928Y-135620023D01*
X225821166Y-135524785D01*
X225916404Y-135334309D01*
X225916404Y-134953357D01*
X225821166Y-134762880D01*
X225725928Y-134667642D01*
X225535452Y-134572404D01*
X227821166Y-135715261D02*
X226678309Y-135715261D01*
X227249738Y-135715261D02*
X227249738Y-133715261D01*
X227059261Y-134000976D01*
X226868785Y-134191452D01*
X226678309Y-134286690D01*
X228583071Y-135143833D02*
X229535452Y-135143833D01*
X228392595Y-135715261D02*
X229059261Y-133715261D01*
X229725928Y-135715261D01*
X145529347Y-93035428D02*
X146291252Y-93035428D01*
X145910300Y-93416380D02*
X145910300Y-92654476D01*
X137172747Y-89212728D02*
X137934652Y-89212728D01*
X137553700Y-89593680D02*
X137553700Y-88831776D01*
X145402347Y-84323228D02*
X146164252Y-84323228D01*
X145783300Y-84704180D02*
X145783300Y-83942276D01*
X137299747Y-80678328D02*
X138061652Y-80678328D01*
X137680700Y-81059280D02*
X137680700Y-80297376D01*
X137045747Y-93314828D02*
X137807652Y-93314828D01*
X136944147Y-84615328D02*
X137706052Y-84615328D01*
X145046747Y-80627528D02*
X145808652Y-80627528D01*
X138253152Y-110124761D02*
X137110295Y-110124761D01*
X137681723Y-110124761D02*
X137681723Y-108124761D01*
X137491247Y-108410476D01*
X137300771Y-108600952D01*
X137110295Y-108696190D01*
X139015057Y-108315238D02*
X139110295Y-108220000D01*
X139300771Y-108124761D01*
X139776961Y-108124761D01*
X139967438Y-108220000D01*
X140062676Y-108315238D01*
X140157914Y-108505714D01*
X140157914Y-108696190D01*
X140062676Y-108981904D01*
X138919819Y-110124761D01*
X140157914Y-110124761D01*
X142253152Y-108124761D02*
X142919819Y-110124761D01*
X143586485Y-108124761D01*
X146729342Y-110124761D02*
X145776961Y-110124761D01*
X145776961Y-108124761D01*
X147396009Y-110124761D02*
X147396009Y-108124761D01*
X148062676Y-109553333D01*
X148729342Y-108124761D01*
X148729342Y-110124761D01*
X150824580Y-110124761D02*
X150157914Y-109172380D01*
X149681723Y-110124761D02*
X149681723Y-108124761D01*
X150443628Y-108124761D01*
X150634104Y-108220000D01*
X150729342Y-108315238D01*
X150824580Y-108505714D01*
X150824580Y-108791428D01*
X150729342Y-108981904D01*
X150634104Y-109077142D01*
X150443628Y-109172380D01*
X149681723Y-109172380D01*
X152634104Y-108124761D02*
X151681723Y-108124761D01*
X151586485Y-109077142D01*
X151681723Y-108981904D01*
X151872200Y-108886666D01*
X152348390Y-108886666D01*
X152538866Y-108981904D01*
X152634104Y-109077142D01*
X152729342Y-109267619D01*
X152729342Y-109743809D01*
X152634104Y-109934285D01*
X152538866Y-110029523D01*
X152348390Y-110124761D01*
X151872200Y-110124761D01*
X151681723Y-110029523D01*
X151586485Y-109934285D01*
X153491247Y-108315238D02*
X153586485Y-108220000D01*
X153776961Y-108124761D01*
X154253152Y-108124761D01*
X154443628Y-108220000D01*
X154538866Y-108315238D01*
X154634104Y-108505714D01*
X154634104Y-108696190D01*
X154538866Y-108981904D01*
X153396009Y-110124761D01*
X154634104Y-110124761D01*
X172742647Y-60714308D02*
X172742647Y-62047641D01*
X172266457Y-59952403D02*
X171790266Y-61380975D01*
X173028361Y-61380975D01*
X173504552Y-60047641D02*
X174171219Y-62047641D01*
X174837885Y-60047641D01*
X177028361Y-62047641D02*
X177028361Y-60047641D01*
X177695028Y-61476213D01*
X178361695Y-60047641D01*
X178361695Y-62047641D01*
X179314076Y-62047641D02*
X179314076Y-60047641D01*
X180075980Y-60047641D01*
X180266457Y-60142880D01*
X180361695Y-60238118D01*
X180456933Y-60428594D01*
X180456933Y-60714308D01*
X180361695Y-60904784D01*
X180266457Y-61000022D01*
X180075980Y-61095260D01*
X179314076Y-61095260D01*
X185066666Y-125704761D02*
X186304761Y-125704761D01*
X185638095Y-126466666D01*
X185923809Y-126466666D01*
X186114285Y-126561904D01*
X186209523Y-126657142D01*
X186304761Y-126847619D01*
X186304761Y-127323809D01*
X186209523Y-127514285D01*
X186114285Y-127609523D01*
X185923809Y-127704761D01*
X185352380Y-127704761D01*
X185161904Y-127609523D01*
X185066666Y-127514285D01*
X187161904Y-127514285D02*
X187257142Y-127609523D01*
X187161904Y-127704761D01*
X187066666Y-127609523D01*
X187161904Y-127514285D01*
X187161904Y-127704761D01*
X187923809Y-125704761D02*
X189161904Y-125704761D01*
X188495238Y-126466666D01*
X188780952Y-126466666D01*
X188971428Y-126561904D01*
X189066666Y-126657142D01*
X189161904Y-126847619D01*
X189161904Y-127323809D01*
X189066666Y-127514285D01*
X188971428Y-127609523D01*
X188780952Y-127704761D01*
X188209523Y-127704761D01*
X188019047Y-127609523D01*
X187923809Y-127514285D01*
X191257142Y-125704761D02*
X191923809Y-127704761D01*
X192590476Y-125704761D01*
X194685714Y-127133333D02*
X195638095Y-127133333D01*
X194495238Y-127704761D02*
X195161904Y-125704761D01*
X195828571Y-127704761D01*
X196495238Y-127704761D02*
X196495238Y-125704761D01*
X196971428Y-125704761D01*
X197257142Y-125800000D01*
X197447619Y-125990476D01*
X197542857Y-126180952D01*
X197638095Y-126561904D01*
X197638095Y-126847619D01*
X197542857Y-127228571D01*
X197447619Y-127419047D01*
X197257142Y-127609523D01*
X196971428Y-127704761D01*
X196495238Y-127704761D01*
X198495238Y-127704761D02*
X198495238Y-125704761D01*
X199257142Y-125704761D01*
X199447619Y-125800000D01*
X199542857Y-125895238D01*
X199638095Y-126085714D01*
X199638095Y-126371428D01*
X199542857Y-126561904D01*
X199447619Y-126657142D01*
X199257142Y-126752380D01*
X198495238Y-126752380D01*
D12*
%TO.C,R48*%
X149624352Y-93668700D02*
X148901848Y-93668700D01*
X149624352Y-98888700D02*
X148901848Y-98888700D01*
%TO.C,A1*%
X214055500Y-103050800D02*
X232095500Y-103050800D01*
X214055500Y-59610800D02*
X214055500Y-103050800D01*
X232095500Y-59610800D02*
X214055500Y-59610800D01*
X229425500Y-62280800D02*
X232095500Y-62280800D01*
X229425500Y-97840800D02*
X229425500Y-62280800D01*
X229425500Y-97840800D02*
X232095500Y-97840800D01*
X216725500Y-62280800D02*
X214055500Y-62280800D01*
X216725500Y-100380800D02*
X216725500Y-62280800D01*
X216725500Y-100380800D02*
X214055500Y-100380800D01*
X232095500Y-103050800D02*
X232095500Y-100380800D01*
X232095500Y-97840800D02*
X232095500Y-59610800D01*
X229425500Y-100380800D02*
X232095500Y-100380800D01*
X229425500Y-97840800D02*
X229425500Y-100380800D01*
%TO.C,BT1*%
X144255800Y-81936900D02*
X144255800Y-79276900D01*
X141655800Y-81936900D02*
X144255800Y-81936900D01*
X141655800Y-79276900D02*
X144255800Y-79276900D01*
X141655800Y-81936900D02*
X141655800Y-79276900D01*
X140385800Y-81936900D02*
X139055800Y-81936900D01*
X139055800Y-81936900D02*
X139055800Y-80606900D01*
%TO.C,BT2*%
X139195500Y-83277400D02*
X139195500Y-85937400D01*
X141795500Y-83277400D02*
X139195500Y-83277400D01*
X141795500Y-85937400D02*
X139195500Y-85937400D01*
X141795500Y-83277400D02*
X141795500Y-85937400D01*
X143065500Y-83277400D02*
X144395500Y-83277400D01*
X144395500Y-83277400D02*
X144395500Y-84607400D01*
%TO.C,BT3*%
X139182800Y-90420500D02*
X139182800Y-89090500D01*
X140512800Y-90420500D02*
X139182800Y-90420500D01*
X141782800Y-90420500D02*
X141782800Y-87760500D01*
X141782800Y-87760500D02*
X144382800Y-87760500D01*
X141782800Y-90420500D02*
X144382800Y-90420500D01*
X144382800Y-90420500D02*
X144382800Y-87760500D01*
%TO.C,BT4*%
X144370100Y-91849900D02*
X144370100Y-93179900D01*
X143040100Y-91849900D02*
X144370100Y-91849900D01*
X141770100Y-91849900D02*
X141770100Y-94509900D01*
X141770100Y-94509900D02*
X139170100Y-94509900D01*
X141770100Y-91849900D02*
X139170100Y-91849900D01*
X139170100Y-91849900D02*
X139170100Y-94509900D01*
%TO.C,C1*%
X194778533Y-105443500D02*
X195071067Y-105443500D01*
X194778533Y-106463500D02*
X195071067Y-106463500D01*
%TO.C,C2*%
X182563767Y-109786900D02*
X182271233Y-109786900D01*
X182563767Y-110806900D02*
X182271233Y-110806900D01*
%TO.C,C3*%
X186711000Y-113883333D02*
X186711000Y-114175867D01*
X185691000Y-113883333D02*
X185691000Y-114175867D01*
%TO.C,C4*%
X194910000Y-109208767D02*
X194910000Y-108916233D01*
X193890000Y-109208767D02*
X193890000Y-108916233D01*
%TO.C,C5*%
X192542652Y-115469000D02*
X192020148Y-115469000D01*
X192542652Y-113999000D02*
X192020148Y-113999000D01*
%TO.C,C6*%
X174304248Y-123158100D02*
X174826752Y-123158100D01*
X174304248Y-121688100D02*
X174826752Y-121688100D01*
%TO.C,C7*%
X168438100Y-102598267D02*
X168438100Y-102305733D01*
X169458100Y-102598267D02*
X169458100Y-102305733D01*
%TO.C,C8*%
X181495500Y-105491752D02*
X181495500Y-104969248D01*
X180025500Y-105491752D02*
X180025500Y-104969248D01*
%TO.C,C9*%
X192517252Y-117869300D02*
X191994748Y-117869300D01*
X192517252Y-116399300D02*
X191994748Y-116399300D01*
%TO.C,C10*%
X194862748Y-101910500D02*
X196285252Y-101910500D01*
X194862748Y-100090500D02*
X196285252Y-100090500D01*
%TO.C,C11*%
X194850048Y-104602900D02*
X196272552Y-104602900D01*
X194850048Y-102782900D02*
X196272552Y-102782900D01*
%TO.C,C12*%
X180265133Y-118564300D02*
X180557667Y-118564300D01*
X180265133Y-117544300D02*
X180557667Y-117544300D01*
%TO.C,C13*%
X172133000Y-115801367D02*
X172133000Y-115508833D01*
X171113000Y-115801367D02*
X171113000Y-115508833D01*
%TO.C,C14*%
X170290000Y-120559467D02*
X170290000Y-120266933D01*
X171310000Y-120559467D02*
X171310000Y-120266933D01*
%TO.C,C15*%
X163926248Y-119190000D02*
X165348752Y-119190000D01*
X163926248Y-121010000D02*
X165348752Y-121010000D01*
%TO.C,C16*%
X171953733Y-109690000D02*
X172246267Y-109690000D01*
X171953733Y-110710000D02*
X172246267Y-110710000D01*
%TO.C,C21*%
X174559952Y-74560100D02*
X174037448Y-74560100D01*
X174559952Y-73090100D02*
X174037448Y-73090100D01*
%TO.C,C22*%
X174111967Y-67883500D02*
X173819433Y-67883500D01*
X174111967Y-66863500D02*
X173819433Y-66863500D01*
%TO.C,C23*%
X174315167Y-71219600D02*
X174022633Y-71219600D01*
X174315167Y-72239600D02*
X174022633Y-72239600D01*
%TO.C,C24*%
X181640433Y-67477100D02*
X181932967Y-67477100D01*
X181640433Y-66457100D02*
X181932967Y-66457100D01*
%TO.C,C25*%
X187235648Y-74896300D02*
X188658152Y-74896300D01*
X187235648Y-76716300D02*
X188658152Y-76716300D01*
%TO.C,C26*%
X182049467Y-69340000D02*
X181756933Y-69340000D01*
X182049467Y-70360000D02*
X181756933Y-70360000D01*
%TO.C,C27*%
X201946840Y-61418192D02*
X201946840Y-60895688D01*
X203416840Y-61418192D02*
X203416840Y-60895688D01*
%TO.C,C28*%
X202752573Y-66853340D02*
X203045107Y-66853340D01*
X202752573Y-67873340D02*
X203045107Y-67873340D01*
%TO.C,C29*%
X195982000Y-72743408D02*
X195982000Y-74165912D01*
X194162000Y-72743408D02*
X194162000Y-74165912D01*
%TO.C,C30*%
X201624299Y-72786209D02*
X201624299Y-74208713D01*
X199804299Y-72786209D02*
X199804299Y-74208713D01*
%TO.C,C31*%
X197006800Y-72794208D02*
X197006800Y-74216712D01*
X198826800Y-72794208D02*
X198826800Y-74216712D01*
%TO.C,C32*%
X206401248Y-92335000D02*
X206923752Y-92335000D01*
X206401248Y-90865000D02*
X206923752Y-90865000D01*
%TO.C,C33*%
X207650548Y-83253400D02*
X208173052Y-83253400D01*
X207650548Y-81783400D02*
X208173052Y-81783400D01*
%TO.C,C34*%
X205123248Y-92984800D02*
X205645752Y-92984800D01*
X205123248Y-94454800D02*
X205645752Y-94454800D01*
%TO.C,C35*%
X206300033Y-96223700D02*
X206592567Y-96223700D01*
X206300033Y-95203700D02*
X206592567Y-95203700D01*
%TO.C,C36*%
X207710148Y-86390300D02*
X208232652Y-86390300D01*
X207710148Y-84920300D02*
X208232652Y-84920300D01*
%TO.C,C37*%
X199794600Y-93218367D02*
X199794600Y-92925833D01*
X198774600Y-93218367D02*
X198774600Y-92925833D01*
%TO.C,C38*%
X151103000Y-123788448D02*
X151103000Y-124310952D01*
X149633000Y-123788448D02*
X149633000Y-124310952D01*
%TO.C,C39*%
X146057667Y-129935700D02*
X145765133Y-129935700D01*
X146057667Y-128915700D02*
X145765133Y-128915700D01*
%TO.C,C40*%
X152023400Y-127495648D02*
X152023400Y-128918152D01*
X153843400Y-127495648D02*
X153843400Y-128918152D01*
%TO.C,C41*%
X178090500Y-141174748D02*
X178090500Y-141697252D01*
X176620500Y-141174748D02*
X176620500Y-141697252D01*
%TO.C,C43*%
X175207200Y-132516833D02*
X175207200Y-132809367D01*
X176227200Y-132516833D02*
X176227200Y-132809367D01*
%TO.C,C44*%
X183135747Y-136948699D02*
X184558251Y-136948699D01*
X183135747Y-138768699D02*
X184558251Y-138768699D01*
%TO.C,D2*%
X151895300Y-125338400D02*
X151895300Y-121438400D01*
X153895300Y-125338400D02*
X153895300Y-121438400D01*
X151895300Y-125338400D02*
X153895300Y-125338400D01*
%TO.C,D3*%
X172430000Y-132673600D02*
X168530000Y-132673600D01*
X172430000Y-130673600D02*
X168530000Y-130673600D01*
X172430000Y-132673600D02*
X172430000Y-130673600D01*
%TO.C,D5*%
X148400700Y-150839500D02*
X145940700Y-150839500D01*
X145940700Y-150839500D02*
X145940700Y-152309500D01*
X145940700Y-152309500D02*
X148400700Y-152309500D01*
%TO.C,D6*%
X146042300Y-149756800D02*
X148502300Y-149756800D01*
X146042300Y-148286800D02*
X146042300Y-149756800D01*
X148502300Y-148286800D02*
X146042300Y-148286800D01*
%TO.C,D7*%
X148527700Y-145467400D02*
X146067700Y-145467400D01*
X146067700Y-145467400D02*
X146067700Y-146937400D01*
X146067700Y-146937400D02*
X148527700Y-146937400D01*
%TO.C,D8*%
X177350240Y-95436940D02*
X179810240Y-95436940D01*
X177350240Y-93966940D02*
X177350240Y-95436940D01*
X179810240Y-93966940D02*
X177350240Y-93966940D01*
%TO.C,D9*%
X177362940Y-97418140D02*
X179822940Y-97418140D01*
X177362940Y-95948140D02*
X177362940Y-97418140D01*
X179822940Y-95948140D02*
X177362940Y-95948140D01*
%TO.C,D10*%
X179861040Y-97764240D02*
X177401040Y-97764240D01*
X177401040Y-97764240D02*
X177401040Y-99234240D01*
X177401040Y-99234240D02*
X179861040Y-99234240D01*
%TO.C,D11*%
X154525000Y-66465000D02*
X152065000Y-66465000D01*
X152065000Y-66465000D02*
X152065000Y-67935000D01*
X152065000Y-67935000D02*
X154525000Y-67935000D01*
%TO.C,D12*%
X152045300Y-69719480D02*
X154505300Y-69719480D01*
X152045300Y-68249480D02*
X152045300Y-69719480D01*
X154505300Y-68249480D02*
X152045300Y-68249480D01*
%TO.C,D13*%
X152065000Y-71535000D02*
X154525000Y-71535000D01*
X152065000Y-70065000D02*
X152065000Y-71535000D01*
X154525000Y-70065000D02*
X152065000Y-70065000D01*
D13*
%TO.C,L5*%
X199933820Y-65682780D02*
X199933820Y-68082780D01*
X193933820Y-65682780D02*
X193933820Y-68082780D01*
D14*
X197033820Y-62882780D02*
G75*
G03*
X197033820Y-62882780I-100000J0D01*
G01*
%TO.C,L6*%
X201924600Y-82480300D02*
G75*
G03*
X201924600Y-82480300I-100000J0D01*
G01*
D13*
X198824600Y-85280300D02*
X198824600Y-87680300D01*
X204824600Y-85280300D02*
X204824600Y-87680300D01*
D12*
%TO.C,R1*%
X182629000Y-105474164D02*
X182629000Y-105020036D01*
X184099000Y-105474164D02*
X184099000Y-105020036D01*
%TO.C,R2*%
X182654724Y-107877500D02*
X182145276Y-107877500D01*
X182654724Y-108922500D02*
X182145276Y-108922500D01*
%TO.C,R3*%
X185402500Y-104177264D02*
X185402500Y-103723136D01*
X186872500Y-104177264D02*
X186872500Y-103723136D01*
%TO.C,R4*%
X180551824Y-120697700D02*
X180042376Y-120697700D01*
X180551824Y-119652700D02*
X180042376Y-119652700D01*
%TO.C,R5*%
X175472700Y-115239736D02*
X175472700Y-115693864D01*
X176942700Y-115239736D02*
X176942700Y-115693864D01*
%TO.C,R6*%
X171894536Y-112794900D02*
X172348664Y-112794900D01*
X171894536Y-111324900D02*
X172348664Y-111324900D01*
%TO.C,R7*%
X175396500Y-111575764D02*
X175396500Y-111121636D01*
X176866500Y-111575764D02*
X176866500Y-111121636D01*
%TO.C,R13*%
X166238517Y-107586200D02*
X166604483Y-107586200D01*
X166238517Y-111006200D02*
X166604483Y-111006200D01*
%TO.C,R14*%
X179508164Y-122904100D02*
X179054036Y-122904100D01*
X179508164Y-121434100D02*
X179054036Y-121434100D01*
%TO.C,R15*%
X155528700Y-102292617D02*
X155528700Y-102658583D01*
X158948700Y-102292617D02*
X158948700Y-102658583D01*
%TO.C,R16*%
X170262400Y-102115048D02*
X170262400Y-102837552D01*
X175482400Y-102115048D02*
X175482400Y-102837552D01*
%TO.C,R17*%
X172315200Y-76680836D02*
X172315200Y-77134964D01*
X173785200Y-76680836D02*
X173785200Y-77134964D01*
%TO.C,R18*%
X179338500Y-66282024D02*
X179338500Y-65772576D01*
X178293500Y-66282024D02*
X178293500Y-65772576D01*
%TO.C,R19*%
X173550336Y-68518100D02*
X174004464Y-68518100D01*
X173550336Y-69988100D02*
X174004464Y-69988100D01*
%TO.C,R20*%
X182078364Y-72363000D02*
X181624236Y-72363000D01*
X182078364Y-70893000D02*
X181624236Y-70893000D01*
%TO.C,R21*%
X181544736Y-74369600D02*
X181998864Y-74369600D01*
X181544736Y-72899600D02*
X181998864Y-72899600D01*
%TO.C,R22*%
X207708416Y-64177440D02*
X208217864Y-64177440D01*
X207708416Y-63132440D02*
X208217864Y-63132440D01*
%TO.C,R23*%
X204613840Y-61142104D02*
X204613840Y-60687976D01*
X206083840Y-61142104D02*
X206083840Y-60687976D01*
%TO.C,R24*%
X206369600Y-98731464D02*
X206369600Y-98277336D01*
X204899600Y-98731464D02*
X204899600Y-98277336D01*
%TO.C,R25*%
X204350300Y-97274036D02*
X204350300Y-97728164D01*
X202880300Y-97274036D02*
X202880300Y-97728164D01*
%TO.C,R26*%
X200810364Y-95740700D02*
X200356236Y-95740700D01*
X200810364Y-97210700D02*
X200356236Y-97210700D01*
%TO.C,R27*%
X181243236Y-134351700D02*
X181697364Y-134351700D01*
X181243236Y-132881700D02*
X181697364Y-132881700D01*
%TO.C,R28*%
X139638100Y-127620536D02*
X139638100Y-128074664D01*
X141108100Y-127620536D02*
X141108100Y-128074664D01*
%TO.C,R29*%
X143930864Y-127709600D02*
X143476736Y-127709600D01*
X143930864Y-126239600D02*
X143476736Y-126239600D01*
%TO.C,R30*%
X180608300Y-130608564D02*
X180608300Y-130154436D01*
X182078300Y-130608564D02*
X182078300Y-130154436D01*
%TO.C,R35*%
X156005264Y-150712500D02*
X155551136Y-150712500D01*
X156005264Y-152182500D02*
X155551136Y-152182500D01*
%TO.C,R36*%
X155967164Y-148147100D02*
X155513036Y-148147100D01*
X155967164Y-149617100D02*
X155513036Y-149617100D01*
%TO.C,R37*%
X155830764Y-145823000D02*
X155376636Y-145823000D01*
X155830764Y-147293000D02*
X155376636Y-147293000D01*
%TO.C,R38*%
X185043040Y-95474876D02*
X185043040Y-95929004D01*
X186513040Y-95474876D02*
X186513040Y-95929004D01*
%TO.C,R39*%
X187900540Y-95490876D02*
X187900540Y-95945004D01*
X189370540Y-95490876D02*
X189370540Y-95945004D01*
%TO.C,R40*%
X190554840Y-95494176D02*
X190554840Y-95948304D01*
X192024840Y-95494176D02*
X192024840Y-95948304D01*
%TO.C,R41*%
X162735000Y-67372936D02*
X162735000Y-67827064D01*
X161265000Y-67372936D02*
X161265000Y-67827064D01*
%TO.C,R42*%
X163665000Y-67372936D02*
X163665000Y-67827064D01*
X165135000Y-67372936D02*
X165135000Y-67827064D01*
%TO.C,R43*%
X167935000Y-67372936D02*
X167935000Y-67827064D01*
X166465000Y-67372936D02*
X166465000Y-67827064D01*
%TO.C,R44*%
X208370264Y-66285640D02*
X207860816Y-66285640D01*
X208370264Y-65240640D02*
X207860816Y-65240640D01*
%TO.C,R45*%
X198867224Y-98822500D02*
X198357776Y-98822500D01*
X198867224Y-97777500D02*
X198357776Y-97777500D01*
%TO.C,R46*%
X147915364Y-127722300D02*
X147461236Y-127722300D01*
X147915364Y-126252300D02*
X147461236Y-126252300D01*
%TO.C,R47*%
X178928700Y-132415036D02*
X178928700Y-132869164D01*
X177458700Y-132415036D02*
X177458700Y-132869164D01*
D13*
%TO.C,S2*%
X174764700Y-146011900D02*
X180352700Y-146011900D01*
X180352700Y-146011900D02*
X180606700Y-146265900D01*
X180606700Y-146265900D02*
X180860700Y-146011900D01*
X180860700Y-146011900D02*
X186448700Y-146011900D01*
X186448700Y-146011900D02*
X186448700Y-146519900D01*
X186448700Y-146519900D02*
X185940700Y-146519900D01*
X185940700Y-146519900D02*
X185940700Y-149567900D01*
X185940700Y-149567900D02*
X186448700Y-149567900D01*
X186448700Y-149567900D02*
X186448700Y-150075900D01*
X186448700Y-150075900D02*
X180860700Y-150075900D01*
X180860700Y-150075900D02*
X180606700Y-149821900D01*
X180606700Y-149821900D02*
X180352700Y-150075900D01*
X180352700Y-150075900D02*
X174764700Y-150075900D01*
X174764700Y-150075900D02*
X174764700Y-149567900D01*
X174764700Y-149567900D02*
X175272700Y-149567900D01*
X175272700Y-149567900D02*
X175272700Y-146519900D01*
X175272700Y-146519900D02*
X174764700Y-146519900D01*
X174764700Y-146519900D02*
X174764700Y-146011900D01*
X178574700Y-147027900D02*
X178574700Y-149059900D01*
X178828700Y-149059900D02*
X178828700Y-147027900D01*
X179082700Y-147027900D02*
X179082700Y-149059900D01*
X179336700Y-149059900D02*
X179336700Y-147027900D01*
X179590700Y-147027900D02*
X179590700Y-149059900D01*
X179844700Y-149059900D02*
X179844700Y-147027900D01*
X180098700Y-147027900D02*
X180098700Y-149059900D01*
%TO.C,S3*%
X154927300Y-136601200D02*
X149339300Y-136601200D01*
X149339300Y-136601200D02*
X149085300Y-136347200D01*
X149085300Y-136347200D02*
X148831300Y-136601200D01*
X148831300Y-136601200D02*
X143243300Y-136601200D01*
X143243300Y-136601200D02*
X143243300Y-136093200D01*
X143243300Y-136093200D02*
X143751300Y-136093200D01*
X143751300Y-136093200D02*
X143751300Y-133045200D01*
X143751300Y-133045200D02*
X143243300Y-133045200D01*
X143243300Y-133045200D02*
X143243300Y-132537200D01*
X143243300Y-132537200D02*
X148831300Y-132537200D01*
X148831300Y-132537200D02*
X149085300Y-132791200D01*
X149085300Y-132791200D02*
X149339300Y-132537200D01*
X149339300Y-132537200D02*
X154927300Y-132537200D01*
X154927300Y-132537200D02*
X154927300Y-133045200D01*
X154927300Y-133045200D02*
X154419300Y-133045200D01*
X154419300Y-133045200D02*
X154419300Y-136093200D01*
X154419300Y-136093200D02*
X154927300Y-136093200D01*
X154927300Y-136093200D02*
X154927300Y-136601200D01*
X151117300Y-135585200D02*
X151117300Y-133553200D01*
X150863300Y-133553200D02*
X150863300Y-135585200D01*
X150609300Y-135585200D02*
X150609300Y-133553200D01*
X150355300Y-133553200D02*
X150355300Y-135585200D01*
X150101300Y-135585200D02*
X150101300Y-133553200D01*
X149847300Y-133553200D02*
X149847300Y-135585200D01*
X149593300Y-135585200D02*
X149593300Y-133553200D01*
%TO.C,S4*%
X210016000Y-74692000D02*
X207984000Y-74692000D01*
X207984000Y-74438000D02*
X210016000Y-74438000D01*
X210016000Y-74184000D02*
X207984000Y-74184000D01*
X207984000Y-73930000D02*
X210016000Y-73930000D01*
X210016000Y-73676000D02*
X207984000Y-73676000D01*
X207984000Y-73422000D02*
X210016000Y-73422000D01*
X210016000Y-73168000D02*
X207984000Y-73168000D01*
X210524000Y-69358000D02*
X211032000Y-69358000D01*
X210524000Y-69866000D02*
X210524000Y-69358000D01*
X207476000Y-69866000D02*
X210524000Y-69866000D01*
X207476000Y-69358000D02*
X207476000Y-69866000D01*
X206968000Y-69358000D02*
X207476000Y-69358000D01*
X206968000Y-74946000D02*
X206968000Y-69358000D01*
X207222000Y-75200000D02*
X206968000Y-74946000D01*
X206968000Y-75454000D02*
X207222000Y-75200000D01*
X206968000Y-81042000D02*
X206968000Y-75454000D01*
X207476000Y-81042000D02*
X206968000Y-81042000D01*
X207476000Y-80534000D02*
X207476000Y-81042000D01*
X210524000Y-80534000D02*
X207476000Y-80534000D01*
X210524000Y-81042000D02*
X210524000Y-80534000D01*
X211032000Y-81042000D02*
X210524000Y-81042000D01*
X211032000Y-75454000D02*
X211032000Y-81042000D01*
X210778000Y-75200000D02*
X211032000Y-75454000D01*
X211032000Y-74946000D02*
X210778000Y-75200000D01*
X211032000Y-69358000D02*
X211032000Y-74946000D01*
%TO.C,S5*%
X181183280Y-58544460D02*
X186771280Y-58544460D01*
X186771280Y-58544460D02*
X187025280Y-58798460D01*
X187025280Y-58798460D02*
X187279280Y-58544460D01*
X187279280Y-58544460D02*
X192867280Y-58544460D01*
X192867280Y-58544460D02*
X192867280Y-59052460D01*
X192867280Y-59052460D02*
X192359280Y-59052460D01*
X192359280Y-59052460D02*
X192359280Y-62100460D01*
X192359280Y-62100460D02*
X192867280Y-62100460D01*
X192867280Y-62100460D02*
X192867280Y-62608460D01*
X192867280Y-62608460D02*
X187279280Y-62608460D01*
X187279280Y-62608460D02*
X187025280Y-62354460D01*
X187025280Y-62354460D02*
X186771280Y-62608460D01*
X186771280Y-62608460D02*
X181183280Y-62608460D01*
X181183280Y-62608460D02*
X181183280Y-62100460D01*
X181183280Y-62100460D02*
X181691280Y-62100460D01*
X181691280Y-62100460D02*
X181691280Y-59052460D01*
X181691280Y-59052460D02*
X181183280Y-59052460D01*
X181183280Y-59052460D02*
X181183280Y-58544460D01*
X184993280Y-59560460D02*
X184993280Y-61592460D01*
X185247280Y-61592460D02*
X185247280Y-59560460D01*
X185501280Y-59560460D02*
X185501280Y-61592460D01*
X185755280Y-61592460D02*
X185755280Y-59560460D01*
X186009280Y-59560460D02*
X186009280Y-61592460D01*
X186263280Y-61592460D02*
X186263280Y-59560460D01*
X186517280Y-59560460D02*
X186517280Y-61592460D01*
%TO.C,S6*%
X163626800Y-78211680D02*
X163626800Y-76179680D01*
X163880800Y-76179680D02*
X163880800Y-78211680D01*
X164134800Y-78211680D02*
X164134800Y-76179680D01*
X164388800Y-76179680D02*
X164388800Y-78211680D01*
X164642800Y-78211680D02*
X164642800Y-76179680D01*
X164896800Y-76179680D02*
X164896800Y-78211680D01*
X165150800Y-78211680D02*
X165150800Y-76179680D01*
X168960800Y-78719680D02*
X168960800Y-79227680D01*
X168452800Y-78719680D02*
X168960800Y-78719680D01*
X168452800Y-75671680D02*
X168452800Y-78719680D01*
X168960800Y-75671680D02*
X168452800Y-75671680D01*
X168960800Y-75163680D02*
X168960800Y-75671680D01*
X163372800Y-75163680D02*
X168960800Y-75163680D01*
X163118800Y-75417680D02*
X163372800Y-75163680D01*
X162864800Y-75163680D02*
X163118800Y-75417680D01*
X157276800Y-75163680D02*
X162864800Y-75163680D01*
X157276800Y-75671680D02*
X157276800Y-75163680D01*
X157784800Y-75671680D02*
X157276800Y-75671680D01*
X157784800Y-78719680D02*
X157784800Y-75671680D01*
X157276800Y-78719680D02*
X157784800Y-78719680D01*
X157276800Y-79227680D02*
X157276800Y-78719680D01*
X162864800Y-79227680D02*
X157276800Y-79227680D01*
X163118800Y-78973680D02*
X162864800Y-79227680D01*
X163372800Y-79227680D02*
X163118800Y-78973680D01*
X168960800Y-79227680D02*
X163372800Y-79227680D01*
%TO.C,S7*%
X198682000Y-133332000D02*
X193094000Y-133332000D01*
X193094000Y-133332000D02*
X192840000Y-133078000D01*
X192840000Y-133078000D02*
X192586000Y-133332000D01*
X192586000Y-133332000D02*
X186998000Y-133332000D01*
X186998000Y-133332000D02*
X186998000Y-132824000D01*
X186998000Y-132824000D02*
X187506000Y-132824000D01*
X187506000Y-132824000D02*
X187506000Y-129776000D01*
X187506000Y-129776000D02*
X186998000Y-129776000D01*
X186998000Y-129776000D02*
X186998000Y-129268000D01*
X186998000Y-129268000D02*
X192586000Y-129268000D01*
X192586000Y-129268000D02*
X192840000Y-129522000D01*
X192840000Y-129522000D02*
X193094000Y-129268000D01*
X193094000Y-129268000D02*
X198682000Y-129268000D01*
X198682000Y-129268000D02*
X198682000Y-129776000D01*
X198682000Y-129776000D02*
X198174000Y-129776000D01*
X198174000Y-129776000D02*
X198174000Y-132824000D01*
X198174000Y-132824000D02*
X198682000Y-132824000D01*
X198682000Y-132824000D02*
X198682000Y-133332000D01*
X194872000Y-132316000D02*
X194872000Y-130284000D01*
X194618000Y-130284000D02*
X194618000Y-132316000D01*
X194364000Y-132316000D02*
X194364000Y-130284000D01*
X194110000Y-130284000D02*
X194110000Y-132316000D01*
X193856000Y-132316000D02*
X193856000Y-130284000D01*
X193602000Y-130284000D02*
X193602000Y-132316000D01*
X193348000Y-132316000D02*
X193348000Y-130284000D01*
%TO.C,S8*%
X161908000Y-115416000D02*
X161908000Y-113384000D01*
X162162000Y-113384000D02*
X162162000Y-115416000D01*
X162416000Y-115416000D02*
X162416000Y-113384000D01*
X162670000Y-113384000D02*
X162670000Y-115416000D01*
X162924000Y-115416000D02*
X162924000Y-113384000D01*
X163178000Y-113384000D02*
X163178000Y-115416000D01*
X163432000Y-115416000D02*
X163432000Y-113384000D01*
X167242000Y-115924000D02*
X167242000Y-116432000D01*
X166734000Y-115924000D02*
X167242000Y-115924000D01*
X166734000Y-112876000D02*
X166734000Y-115924000D01*
X167242000Y-112876000D02*
X166734000Y-112876000D01*
X167242000Y-112368000D02*
X167242000Y-112876000D01*
X161654000Y-112368000D02*
X167242000Y-112368000D01*
X161400000Y-112622000D02*
X161654000Y-112368000D01*
X161146000Y-112368000D02*
X161400000Y-112622000D01*
X155558000Y-112368000D02*
X161146000Y-112368000D01*
X155558000Y-112876000D02*
X155558000Y-112368000D01*
X156066000Y-112876000D02*
X155558000Y-112876000D01*
X156066000Y-115924000D02*
X156066000Y-112876000D01*
X155558000Y-115924000D02*
X156066000Y-115924000D01*
X155558000Y-116432000D02*
X155558000Y-115924000D01*
X161146000Y-116432000D02*
X155558000Y-116432000D01*
X161400000Y-116178000D02*
X161146000Y-116432000D01*
X161654000Y-116432000D02*
X161400000Y-116178000D01*
X167242000Y-116432000D02*
X161654000Y-116432000D01*
%TO.C,S9*%
X206752000Y-102484000D02*
X206752000Y-104516000D01*
X206498000Y-104516000D02*
X206498000Y-102484000D01*
X206244000Y-102484000D02*
X206244000Y-104516000D01*
X205990000Y-104516000D02*
X205990000Y-102484000D01*
X205736000Y-102484000D02*
X205736000Y-104516000D01*
X205482000Y-104516000D02*
X205482000Y-102484000D01*
X205228000Y-102484000D02*
X205228000Y-104516000D01*
X201418000Y-101976000D02*
X201418000Y-101468000D01*
X201926000Y-101976000D02*
X201418000Y-101976000D01*
X201926000Y-105024000D02*
X201926000Y-101976000D01*
X201418000Y-105024000D02*
X201926000Y-105024000D01*
X201418000Y-105532000D02*
X201418000Y-105024000D01*
X207006000Y-105532000D02*
X201418000Y-105532000D01*
X207260000Y-105278000D02*
X207006000Y-105532000D01*
X207514000Y-105532000D02*
X207260000Y-105278000D01*
X213102000Y-105532000D02*
X207514000Y-105532000D01*
X213102000Y-105024000D02*
X213102000Y-105532000D01*
X212594000Y-105024000D02*
X213102000Y-105024000D01*
X212594000Y-101976000D02*
X212594000Y-105024000D01*
X213102000Y-101976000D02*
X212594000Y-101976000D01*
X213102000Y-101468000D02*
X213102000Y-101976000D01*
X207514000Y-101468000D02*
X213102000Y-101468000D01*
X207260000Y-101722000D02*
X207514000Y-101468000D01*
X207006000Y-101468000D02*
X207260000Y-101722000D01*
X201418000Y-101468000D02*
X207006000Y-101468000D01*
D14*
%TO.C,S10*%
X148779400Y-144720700D02*
G75*
G03*
X148779400Y-144720700I-100000J0D01*
G01*
D13*
X159409400Y-138236700D02*
X144179400Y-138236700D01*
X161179400Y-144236700D02*
X161179400Y-139806700D01*
X145949400Y-144236700D02*
X161179400Y-144236700D01*
X144179400Y-138236700D02*
X144179400Y-142666700D01*
D14*
%TO.C,S11*%
X180986340Y-92737640D02*
G75*
G03*
X180986340Y-92737640I-100000J0D01*
G01*
D13*
X191616340Y-86253640D02*
X176386340Y-86253640D01*
X193386340Y-92253640D02*
X193386340Y-87823640D01*
X178156340Y-92253640D02*
X193386340Y-92253640D01*
X176386340Y-86253640D02*
X176386340Y-90683640D01*
%TO.C,S12*%
X152614720Y-58147700D02*
X152614720Y-62577700D01*
X154384720Y-64147700D02*
X169614720Y-64147700D01*
X169614720Y-64147700D02*
X169614720Y-59717700D01*
X167844720Y-58147700D02*
X152614720Y-58147700D01*
D14*
X157214720Y-64631700D02*
G75*
G03*
X157214720Y-64631700I-100000J0D01*
G01*
D13*
%TO.C,U1*%
X186943901Y-106796901D02*
X190843901Y-106796901D01*
X186943901Y-111846901D02*
X190843901Y-111846901D01*
D14*
X184923901Y-107416901D02*
G75*
G03*
X184923901Y-107416901I-100000J0D01*
G01*
%TO.C,U2*%
X172929800Y-118197300D02*
G75*
G03*
X172929800Y-118197300I-100000J0D01*
G01*
D13*
X174417300Y-120717300D02*
X176042300Y-120717300D01*
X174417300Y-117677300D02*
X176042300Y-117677300D01*
%TO.C,U3*%
X165839500Y-100814500D02*
X161439500Y-100814500D01*
X165839500Y-105814500D02*
X161439500Y-105814500D01*
D14*
X167979500Y-105574500D02*
G75*
G03*
X167979500Y-105574500I-100000J0D01*
G01*
D13*
%TO.C,U5*%
X201015600Y-131406900D02*
X201015600Y-106006900D01*
X201015600Y-106006900D02*
X232765600Y-106006900D01*
X232765600Y-106006900D02*
X232765600Y-131406900D01*
X232765600Y-131406900D02*
X201015600Y-131406900D01*
%TO.C,U6*%
X176102200Y-71272100D02*
X176102200Y-69647100D01*
X179142200Y-71272100D02*
X179142200Y-69647100D01*
D14*
X176722200Y-72859600D02*
G75*
G03*
X176722200Y-72859600I-100000J0D01*
G01*
%TO.C,U7*%
X201916840Y-63951940D02*
G75*
G03*
X201916840Y-63951940I-100000J0D01*
G01*
D13*
X202816840Y-65526940D02*
X204016840Y-65526940D01*
X202816840Y-63576940D02*
X204016840Y-63576940D01*
D12*
%TO.C,U8*%
X202724600Y-92324500D02*
X202724600Y-93874500D01*
X200924600Y-93874500D02*
X200924600Y-92574500D01*
D13*
%TO.C,U9*%
X146979901Y-125261601D02*
X146319901Y-125261601D01*
X147449901Y-123476601D02*
X147449901Y-124146601D01*
X146319901Y-122361601D02*
X146979901Y-122361601D01*
D14*
X144339901Y-122761601D02*
G75*
G03*
X144339901Y-122761601I-100000J0D01*
G01*
%TO.C,U10*%
X180241999Y-138358699D02*
G75*
G03*
X180241999Y-138358699I-100000J0D01*
G01*
D13*
X178061999Y-138758699D02*
X177401999Y-138758699D01*
X176931999Y-137643699D02*
X176931999Y-136973699D01*
X177401999Y-135858699D02*
X178061999Y-135858699D01*
D12*
%TO.C,J1*%
X143830000Y-71330000D02*
X141170000Y-71330000D01*
X143830000Y-71330000D02*
X143830000Y-58570000D01*
X143830000Y-58570000D02*
X141170000Y-58570000D01*
X141170000Y-71330000D02*
X141170000Y-58570000D01*
X141170000Y-73930000D02*
X141170000Y-72600000D01*
X142500000Y-73930000D02*
X141170000Y-73930000D01*
%TO.C,C50*%
X213776908Y-140435160D02*
X215199412Y-140435160D01*
X213776908Y-137715160D02*
X215199412Y-137715160D01*
%TO.C,C51*%
X202588672Y-139231700D02*
X202066168Y-139231700D01*
X202588672Y-140701700D02*
X202066168Y-140701700D01*
%TO.C,C52*%
X212600000Y-145676233D02*
X212600000Y-145968767D01*
X211580000Y-145676233D02*
X211580000Y-145968767D01*
%TO.C,C53*%
X213358000Y-145676233D02*
X213358000Y-145968767D01*
X214378000Y-145676233D02*
X214378000Y-145968767D01*
%TO.C,C54*%
X215365000Y-149994252D02*
X215365000Y-149471748D01*
X213895000Y-149994252D02*
X213895000Y-149471748D01*
%TO.C,C55*%
X198701320Y-154305295D02*
X199201320Y-154305295D01*
X198951320Y-154555295D02*
X198951320Y-154055295D01*
X200142320Y-149149520D02*
X200710320Y-149149520D01*
X199908320Y-149189520D02*
X200944320Y-149189520D01*
X199749320Y-149229520D02*
X201103320Y-149229520D01*
X199621320Y-149269520D02*
X201231320Y-149269520D01*
X199511320Y-149309520D02*
X201341320Y-149309520D01*
X199415320Y-149349520D02*
X201437320Y-149349520D01*
X199328320Y-149389520D02*
X201524320Y-149389520D01*
X199248320Y-149429520D02*
X201604320Y-149429520D01*
X199175320Y-149469520D02*
X201677320Y-149469520D01*
X199107320Y-149509520D02*
X201745320Y-149509520D01*
X199043320Y-149549520D02*
X201809320Y-149549520D01*
X198983320Y-149589520D02*
X201869320Y-149589520D01*
X198926320Y-149629520D02*
X201926320Y-149629520D01*
X198872320Y-149669520D02*
X201980320Y-149669520D01*
X198821320Y-149709520D02*
X202031320Y-149709520D01*
X201466320Y-149749520D02*
X202079320Y-149749520D01*
X198773320Y-149749520D02*
X199386320Y-149749520D01*
X201466320Y-149789520D02*
X202125320Y-149789520D01*
X198727320Y-149789520D02*
X199386320Y-149789520D01*
X201466320Y-149829520D02*
X202169320Y-149829520D01*
X198683320Y-149829520D02*
X199386320Y-149829520D01*
X201466320Y-149869520D02*
X202211320Y-149869520D01*
X198641320Y-149869520D02*
X199386320Y-149869520D01*
X201466320Y-149909520D02*
X202252320Y-149909520D01*
X198600320Y-149909520D02*
X199386320Y-149909520D01*
X201466320Y-149949520D02*
X202290320Y-149949520D01*
X198562320Y-149949520D02*
X199386320Y-149949520D01*
X201466320Y-149989520D02*
X202327320Y-149989520D01*
X198525320Y-149989520D02*
X199386320Y-149989520D01*
X201466320Y-150029520D02*
X202363320Y-150029520D01*
X198489320Y-150029520D02*
X199386320Y-150029520D01*
X201466320Y-150069520D02*
X202397320Y-150069520D01*
X198455320Y-150069520D02*
X199386320Y-150069520D01*
X201466320Y-150109520D02*
X202430320Y-150109520D01*
X198422320Y-150109520D02*
X199386320Y-150109520D01*
X201466320Y-150149520D02*
X202461320Y-150149520D01*
X198391320Y-150149520D02*
X199386320Y-150149520D01*
X201466320Y-150189520D02*
X202491320Y-150189520D01*
X198361320Y-150189520D02*
X199386320Y-150189520D01*
X201466320Y-150229520D02*
X202521320Y-150229520D01*
X198331320Y-150229520D02*
X199386320Y-150229520D01*
X201466320Y-150269520D02*
X202548320Y-150269520D01*
X198304320Y-150269520D02*
X199386320Y-150269520D01*
X201466320Y-150309520D02*
X202575320Y-150309520D01*
X198277320Y-150309520D02*
X199386320Y-150309520D01*
X201466320Y-150349520D02*
X202601320Y-150349520D01*
X198251320Y-150349520D02*
X199386320Y-150349520D01*
X201466320Y-150389520D02*
X202626320Y-150389520D01*
X198226320Y-150389520D02*
X199386320Y-150389520D01*
X201466320Y-150429520D02*
X202650320Y-150429520D01*
X198202320Y-150429520D02*
X199386320Y-150429520D01*
X201466320Y-150469520D02*
X202673320Y-150469520D01*
X198179320Y-150469520D02*
X199386320Y-150469520D01*
X201466320Y-150509520D02*
X202694320Y-150509520D01*
X198158320Y-150509520D02*
X199386320Y-150509520D01*
X201466320Y-150549520D02*
X202716320Y-150549520D01*
X198136320Y-150549520D02*
X199386320Y-150549520D01*
X201466320Y-150589520D02*
X202736320Y-150589520D01*
X198116320Y-150589520D02*
X199386320Y-150589520D01*
X201466320Y-150629520D02*
X202755320Y-150629520D01*
X198097320Y-150629520D02*
X199386320Y-150629520D01*
X201466320Y-150669520D02*
X202774320Y-150669520D01*
X198078320Y-150669520D02*
X199386320Y-150669520D01*
X201466320Y-150709520D02*
X202791320Y-150709520D01*
X198061320Y-150709520D02*
X199386320Y-150709520D01*
X201466320Y-150749520D02*
X202808320Y-150749520D01*
X198044320Y-150749520D02*
X199386320Y-150749520D01*
X201466320Y-150789520D02*
X202824320Y-150789520D01*
X198028320Y-150789520D02*
X199386320Y-150789520D01*
X201466320Y-150829520D02*
X202840320Y-150829520D01*
X198012320Y-150829520D02*
X199386320Y-150829520D01*
X201466320Y-150869520D02*
X202854320Y-150869520D01*
X197998320Y-150869520D02*
X199386320Y-150869520D01*
X201466320Y-150909520D02*
X202868320Y-150909520D01*
X197984320Y-150909520D02*
X199386320Y-150909520D01*
X201466320Y-150949520D02*
X202881320Y-150949520D01*
X197971320Y-150949520D02*
X199386320Y-150949520D01*
X201466320Y-150989520D02*
X202894320Y-150989520D01*
X197958320Y-150989520D02*
X199386320Y-150989520D01*
X201466320Y-151029520D02*
X202906320Y-151029520D01*
X197946320Y-151029520D02*
X199386320Y-151029520D01*
X201466320Y-151070520D02*
X202917320Y-151070520D01*
X197935320Y-151070520D02*
X199386320Y-151070520D01*
X201466320Y-151110520D02*
X202927320Y-151110520D01*
X197925320Y-151110520D02*
X199386320Y-151110520D01*
X201466320Y-151150520D02*
X202937320Y-151150520D01*
X197915320Y-151150520D02*
X199386320Y-151150520D01*
X201466320Y-151190520D02*
X202946320Y-151190520D01*
X197906320Y-151190520D02*
X199386320Y-151190520D01*
X201466320Y-151230520D02*
X202954320Y-151230520D01*
X197898320Y-151230520D02*
X199386320Y-151230520D01*
X201466320Y-151270520D02*
X202962320Y-151270520D01*
X197890320Y-151270520D02*
X199386320Y-151270520D01*
X201466320Y-151310520D02*
X202969320Y-151310520D01*
X197883320Y-151310520D02*
X199386320Y-151310520D01*
X201466320Y-151350520D02*
X202976320Y-151350520D01*
X197876320Y-151350520D02*
X199386320Y-151350520D01*
X201466320Y-151390520D02*
X202982320Y-151390520D01*
X197870320Y-151390520D02*
X199386320Y-151390520D01*
X201466320Y-151430520D02*
X202987320Y-151430520D01*
X197865320Y-151430520D02*
X199386320Y-151430520D01*
X201466320Y-151470520D02*
X202991320Y-151470520D01*
X197861320Y-151470520D02*
X199386320Y-151470520D01*
X201466320Y-151510520D02*
X202995320Y-151510520D01*
X197857320Y-151510520D02*
X199386320Y-151510520D01*
X201466320Y-151550520D02*
X202999320Y-151550520D01*
X197853320Y-151550520D02*
X199386320Y-151550520D01*
X201466320Y-151590520D02*
X203002320Y-151590520D01*
X197850320Y-151590520D02*
X199386320Y-151590520D01*
X201466320Y-151630520D02*
X203004320Y-151630520D01*
X197848320Y-151630520D02*
X199386320Y-151630520D01*
X201466320Y-151670520D02*
X203005320Y-151670520D01*
X197847320Y-151670520D02*
X199386320Y-151670520D01*
X197846320Y-151710520D02*
X199386320Y-151710520D01*
X201466320Y-151710520D02*
X203006320Y-151710520D01*
X197846320Y-151750520D02*
X199386320Y-151750520D01*
X201466320Y-151750520D02*
X203006320Y-151750520D01*
X203046320Y-151750520D02*
G75*
G03*
X203046320Y-151750520I-2620000J0D01*
G01*
%TO.C,C56*%
X197143360Y-151801320D02*
G75*
G03*
X197143360Y-151801320I-2620000J0D01*
G01*
X195563360Y-151801320D02*
X197103360Y-151801320D01*
X191943360Y-151801320D02*
X193483360Y-151801320D01*
X195563360Y-151761320D02*
X197103360Y-151761320D01*
X191943360Y-151761320D02*
X193483360Y-151761320D01*
X191944360Y-151721320D02*
X193483360Y-151721320D01*
X195563360Y-151721320D02*
X197102360Y-151721320D01*
X191945360Y-151681320D02*
X193483360Y-151681320D01*
X195563360Y-151681320D02*
X197101360Y-151681320D01*
X191947360Y-151641320D02*
X193483360Y-151641320D01*
X195563360Y-151641320D02*
X197099360Y-151641320D01*
X191950360Y-151601320D02*
X193483360Y-151601320D01*
X195563360Y-151601320D02*
X197096360Y-151601320D01*
X191954360Y-151561320D02*
X193483360Y-151561320D01*
X195563360Y-151561320D02*
X197092360Y-151561320D01*
X191958360Y-151521320D02*
X193483360Y-151521320D01*
X195563360Y-151521320D02*
X197088360Y-151521320D01*
X191962360Y-151481320D02*
X193483360Y-151481320D01*
X195563360Y-151481320D02*
X197084360Y-151481320D01*
X191967360Y-151441320D02*
X193483360Y-151441320D01*
X195563360Y-151441320D02*
X197079360Y-151441320D01*
X191973360Y-151401320D02*
X193483360Y-151401320D01*
X195563360Y-151401320D02*
X197073360Y-151401320D01*
X191980360Y-151361320D02*
X193483360Y-151361320D01*
X195563360Y-151361320D02*
X197066360Y-151361320D01*
X191987360Y-151321320D02*
X193483360Y-151321320D01*
X195563360Y-151321320D02*
X197059360Y-151321320D01*
X191995360Y-151281320D02*
X193483360Y-151281320D01*
X195563360Y-151281320D02*
X197051360Y-151281320D01*
X192003360Y-151241320D02*
X193483360Y-151241320D01*
X195563360Y-151241320D02*
X197043360Y-151241320D01*
X192012360Y-151201320D02*
X193483360Y-151201320D01*
X195563360Y-151201320D02*
X197034360Y-151201320D01*
X192022360Y-151161320D02*
X193483360Y-151161320D01*
X195563360Y-151161320D02*
X197024360Y-151161320D01*
X192032360Y-151121320D02*
X193483360Y-151121320D01*
X195563360Y-151121320D02*
X197014360Y-151121320D01*
X192043360Y-151080320D02*
X193483360Y-151080320D01*
X195563360Y-151080320D02*
X197003360Y-151080320D01*
X192055360Y-151040320D02*
X193483360Y-151040320D01*
X195563360Y-151040320D02*
X196991360Y-151040320D01*
X192068360Y-151000320D02*
X193483360Y-151000320D01*
X195563360Y-151000320D02*
X196978360Y-151000320D01*
X192081360Y-150960320D02*
X193483360Y-150960320D01*
X195563360Y-150960320D02*
X196965360Y-150960320D01*
X192095360Y-150920320D02*
X193483360Y-150920320D01*
X195563360Y-150920320D02*
X196951360Y-150920320D01*
X192109360Y-150880320D02*
X193483360Y-150880320D01*
X195563360Y-150880320D02*
X196937360Y-150880320D01*
X192125360Y-150840320D02*
X193483360Y-150840320D01*
X195563360Y-150840320D02*
X196921360Y-150840320D01*
X192141360Y-150800320D02*
X193483360Y-150800320D01*
X195563360Y-150800320D02*
X196905360Y-150800320D01*
X192158360Y-150760320D02*
X193483360Y-150760320D01*
X195563360Y-150760320D02*
X196888360Y-150760320D01*
X192175360Y-150720320D02*
X193483360Y-150720320D01*
X195563360Y-150720320D02*
X196871360Y-150720320D01*
X192194360Y-150680320D02*
X193483360Y-150680320D01*
X195563360Y-150680320D02*
X196852360Y-150680320D01*
X192213360Y-150640320D02*
X193483360Y-150640320D01*
X195563360Y-150640320D02*
X196833360Y-150640320D01*
X192233360Y-150600320D02*
X193483360Y-150600320D01*
X195563360Y-150600320D02*
X196813360Y-150600320D01*
X192255360Y-150560320D02*
X193483360Y-150560320D01*
X195563360Y-150560320D02*
X196791360Y-150560320D01*
X192276360Y-150520320D02*
X193483360Y-150520320D01*
X195563360Y-150520320D02*
X196770360Y-150520320D01*
X192299360Y-150480320D02*
X193483360Y-150480320D01*
X195563360Y-150480320D02*
X196747360Y-150480320D01*
X192323360Y-150440320D02*
X193483360Y-150440320D01*
X195563360Y-150440320D02*
X196723360Y-150440320D01*
X192348360Y-150400320D02*
X193483360Y-150400320D01*
X195563360Y-150400320D02*
X196698360Y-150400320D01*
X192374360Y-150360320D02*
X193483360Y-150360320D01*
X195563360Y-150360320D02*
X196672360Y-150360320D01*
X192401360Y-150320320D02*
X193483360Y-150320320D01*
X195563360Y-150320320D02*
X196645360Y-150320320D01*
X192428360Y-150280320D02*
X193483360Y-150280320D01*
X195563360Y-150280320D02*
X196618360Y-150280320D01*
X192458360Y-150240320D02*
X193483360Y-150240320D01*
X195563360Y-150240320D02*
X196588360Y-150240320D01*
X192488360Y-150200320D02*
X193483360Y-150200320D01*
X195563360Y-150200320D02*
X196558360Y-150200320D01*
X192519360Y-150160320D02*
X193483360Y-150160320D01*
X195563360Y-150160320D02*
X196527360Y-150160320D01*
X192552360Y-150120320D02*
X193483360Y-150120320D01*
X195563360Y-150120320D02*
X196494360Y-150120320D01*
X192586360Y-150080320D02*
X193483360Y-150080320D01*
X195563360Y-150080320D02*
X196460360Y-150080320D01*
X192622360Y-150040320D02*
X193483360Y-150040320D01*
X195563360Y-150040320D02*
X196424360Y-150040320D01*
X192659360Y-150000320D02*
X193483360Y-150000320D01*
X195563360Y-150000320D02*
X196387360Y-150000320D01*
X192697360Y-149960320D02*
X193483360Y-149960320D01*
X195563360Y-149960320D02*
X196349360Y-149960320D01*
X192738360Y-149920320D02*
X193483360Y-149920320D01*
X195563360Y-149920320D02*
X196308360Y-149920320D01*
X192780360Y-149880320D02*
X193483360Y-149880320D01*
X195563360Y-149880320D02*
X196266360Y-149880320D01*
X192824360Y-149840320D02*
X193483360Y-149840320D01*
X195563360Y-149840320D02*
X196222360Y-149840320D01*
X192870360Y-149800320D02*
X193483360Y-149800320D01*
X195563360Y-149800320D02*
X196176360Y-149800320D01*
X192918360Y-149760320D02*
X196128360Y-149760320D01*
X192969360Y-149720320D02*
X196077360Y-149720320D01*
X193023360Y-149680320D02*
X196023360Y-149680320D01*
X193080360Y-149640320D02*
X195966360Y-149640320D01*
X193140360Y-149600320D02*
X195906360Y-149600320D01*
X193204360Y-149560320D02*
X195842360Y-149560320D01*
X193272360Y-149520320D02*
X195774360Y-149520320D01*
X193345360Y-149480320D02*
X195701360Y-149480320D01*
X193425360Y-149440320D02*
X195621360Y-149440320D01*
X193512360Y-149400320D02*
X195534360Y-149400320D01*
X193608360Y-149360320D02*
X195438360Y-149360320D01*
X193718360Y-149320320D02*
X195328360Y-149320320D01*
X193846360Y-149280320D02*
X195200360Y-149280320D01*
X194005360Y-149240320D02*
X195041360Y-149240320D01*
X194239360Y-149200320D02*
X194807360Y-149200320D01*
X193048360Y-154606095D02*
X193048360Y-154106095D01*
X192798360Y-154356095D02*
X193298360Y-154356095D01*
%TO.C,C57*%
X204496181Y-154236099D02*
X204996181Y-154236099D01*
X204746181Y-154486099D02*
X204746181Y-153986099D01*
X205937181Y-149080324D02*
X206505181Y-149080324D01*
X205703181Y-149120324D02*
X206739181Y-149120324D01*
X205544181Y-149160324D02*
X206898181Y-149160324D01*
X205416181Y-149200324D02*
X207026181Y-149200324D01*
X205306181Y-149240324D02*
X207136181Y-149240324D01*
X205210181Y-149280324D02*
X207232181Y-149280324D01*
X205123181Y-149320324D02*
X207319181Y-149320324D01*
X205043181Y-149360324D02*
X207399181Y-149360324D01*
X204970181Y-149400324D02*
X207472181Y-149400324D01*
X204902181Y-149440324D02*
X207540181Y-149440324D01*
X204838181Y-149480324D02*
X207604181Y-149480324D01*
X204778181Y-149520324D02*
X207664181Y-149520324D01*
X204721181Y-149560324D02*
X207721181Y-149560324D01*
X204667181Y-149600324D02*
X207775181Y-149600324D01*
X204616181Y-149640324D02*
X207826181Y-149640324D01*
X207261181Y-149680324D02*
X207874181Y-149680324D01*
X204568181Y-149680324D02*
X205181181Y-149680324D01*
X207261181Y-149720324D02*
X207920181Y-149720324D01*
X204522181Y-149720324D02*
X205181181Y-149720324D01*
X207261181Y-149760324D02*
X207964181Y-149760324D01*
X204478181Y-149760324D02*
X205181181Y-149760324D01*
X207261181Y-149800324D02*
X208006181Y-149800324D01*
X204436181Y-149800324D02*
X205181181Y-149800324D01*
X207261181Y-149840324D02*
X208047181Y-149840324D01*
X204395181Y-149840324D02*
X205181181Y-149840324D01*
X207261181Y-149880324D02*
X208085181Y-149880324D01*
X204357181Y-149880324D02*
X205181181Y-149880324D01*
X207261181Y-149920324D02*
X208122181Y-149920324D01*
X204320181Y-149920324D02*
X205181181Y-149920324D01*
X207261181Y-149960324D02*
X208158181Y-149960324D01*
X204284181Y-149960324D02*
X205181181Y-149960324D01*
X207261181Y-150000324D02*
X208192181Y-150000324D01*
X204250181Y-150000324D02*
X205181181Y-150000324D01*
X207261181Y-150040324D02*
X208225181Y-150040324D01*
X204217181Y-150040324D02*
X205181181Y-150040324D01*
X207261181Y-150080324D02*
X208256181Y-150080324D01*
X204186181Y-150080324D02*
X205181181Y-150080324D01*
X207261181Y-150120324D02*
X208286181Y-150120324D01*
X204156181Y-150120324D02*
X205181181Y-150120324D01*
X207261181Y-150160324D02*
X208316181Y-150160324D01*
X204126181Y-150160324D02*
X205181181Y-150160324D01*
X207261181Y-150200324D02*
X208343181Y-150200324D01*
X204099181Y-150200324D02*
X205181181Y-150200324D01*
X207261181Y-150240324D02*
X208370181Y-150240324D01*
X204072181Y-150240324D02*
X205181181Y-150240324D01*
X207261181Y-150280324D02*
X208396181Y-150280324D01*
X204046181Y-150280324D02*
X205181181Y-150280324D01*
X207261181Y-150320324D02*
X208421181Y-150320324D01*
X204021181Y-150320324D02*
X205181181Y-150320324D01*
X207261181Y-150360324D02*
X208445181Y-150360324D01*
X203997181Y-150360324D02*
X205181181Y-150360324D01*
X207261181Y-150400324D02*
X208468181Y-150400324D01*
X203974181Y-150400324D02*
X205181181Y-150400324D01*
X207261181Y-150440324D02*
X208489181Y-150440324D01*
X203953181Y-150440324D02*
X205181181Y-150440324D01*
X207261181Y-150480324D02*
X208511181Y-150480324D01*
X203931181Y-150480324D02*
X205181181Y-150480324D01*
X207261181Y-150520324D02*
X208531181Y-150520324D01*
X203911181Y-150520324D02*
X205181181Y-150520324D01*
X207261181Y-150560324D02*
X208550181Y-150560324D01*
X203892181Y-150560324D02*
X205181181Y-150560324D01*
X207261181Y-150600324D02*
X208569181Y-150600324D01*
X203873181Y-150600324D02*
X205181181Y-150600324D01*
X207261181Y-150640324D02*
X208586181Y-150640324D01*
X203856181Y-150640324D02*
X205181181Y-150640324D01*
X207261181Y-150680324D02*
X208603181Y-150680324D01*
X203839181Y-150680324D02*
X205181181Y-150680324D01*
X207261181Y-150720324D02*
X208619181Y-150720324D01*
X203823181Y-150720324D02*
X205181181Y-150720324D01*
X207261181Y-150760324D02*
X208635181Y-150760324D01*
X203807181Y-150760324D02*
X205181181Y-150760324D01*
X207261181Y-150800324D02*
X208649181Y-150800324D01*
X203793181Y-150800324D02*
X205181181Y-150800324D01*
X207261181Y-150840324D02*
X208663181Y-150840324D01*
X203779181Y-150840324D02*
X205181181Y-150840324D01*
X207261181Y-150880324D02*
X208676181Y-150880324D01*
X203766181Y-150880324D02*
X205181181Y-150880324D01*
X207261181Y-150920324D02*
X208689181Y-150920324D01*
X203753181Y-150920324D02*
X205181181Y-150920324D01*
X207261181Y-150960324D02*
X208701181Y-150960324D01*
X203741181Y-150960324D02*
X205181181Y-150960324D01*
X207261181Y-151001324D02*
X208712181Y-151001324D01*
X203730181Y-151001324D02*
X205181181Y-151001324D01*
X207261181Y-151041324D02*
X208722181Y-151041324D01*
X203720181Y-151041324D02*
X205181181Y-151041324D01*
X207261181Y-151081324D02*
X208732181Y-151081324D01*
X203710181Y-151081324D02*
X205181181Y-151081324D01*
X207261181Y-151121324D02*
X208741181Y-151121324D01*
X203701181Y-151121324D02*
X205181181Y-151121324D01*
X207261181Y-151161324D02*
X208749181Y-151161324D01*
X203693181Y-151161324D02*
X205181181Y-151161324D01*
X207261181Y-151201324D02*
X208757181Y-151201324D01*
X203685181Y-151201324D02*
X205181181Y-151201324D01*
X207261181Y-151241324D02*
X208764181Y-151241324D01*
X203678181Y-151241324D02*
X205181181Y-151241324D01*
X207261181Y-151281324D02*
X208771181Y-151281324D01*
X203671181Y-151281324D02*
X205181181Y-151281324D01*
X207261181Y-151321324D02*
X208777181Y-151321324D01*
X203665181Y-151321324D02*
X205181181Y-151321324D01*
X207261181Y-151361324D02*
X208782181Y-151361324D01*
X203660181Y-151361324D02*
X205181181Y-151361324D01*
X207261181Y-151401324D02*
X208786181Y-151401324D01*
X203656181Y-151401324D02*
X205181181Y-151401324D01*
X207261181Y-151441324D02*
X208790181Y-151441324D01*
X203652181Y-151441324D02*
X205181181Y-151441324D01*
X207261181Y-151481324D02*
X208794181Y-151481324D01*
X203648181Y-151481324D02*
X205181181Y-151481324D01*
X207261181Y-151521324D02*
X208797181Y-151521324D01*
X203645181Y-151521324D02*
X205181181Y-151521324D01*
X207261181Y-151561324D02*
X208799181Y-151561324D01*
X203643181Y-151561324D02*
X205181181Y-151561324D01*
X207261181Y-151601324D02*
X208800181Y-151601324D01*
X203642181Y-151601324D02*
X205181181Y-151601324D01*
X203641181Y-151641324D02*
X205181181Y-151641324D01*
X207261181Y-151641324D02*
X208801181Y-151641324D01*
X203641181Y-151681324D02*
X205181181Y-151681324D01*
X207261181Y-151681324D02*
X208801181Y-151681324D01*
X208841181Y-151681324D02*
G75*
G03*
X208841181Y-151681324I-2620000J0D01*
G01*
D10*
%TO.C,L10*%
X231584500Y-145827000D02*
X218630500Y-145827000D01*
X231584500Y-133807200D02*
X218630500Y-133807200D01*
X231584500Y-145827000D02*
X231584500Y-133827000D01*
X218630500Y-145827000D02*
X218630500Y-133827000D01*
D12*
%TO.C,Q1*%
X221681000Y-147593000D02*
X227691000Y-147593000D01*
X223931000Y-154413000D02*
X227691000Y-154413000D01*
X227691000Y-147593000D02*
X227691000Y-148853000D01*
X227691000Y-154413000D02*
X227691000Y-153153000D01*
%TO.C,R31*%
X203714020Y-144511004D02*
X203714020Y-144056876D01*
X202244020Y-144511004D02*
X202244020Y-144056876D01*
%TO.C,R50*%
X214418936Y-143737000D02*
X214873064Y-143737000D01*
X214418936Y-142267000D02*
X214873064Y-142267000D01*
%TO.C,R51*%
X211952064Y-149579000D02*
X211497936Y-149579000D01*
X211952064Y-148109000D02*
X211497936Y-148109000D01*
%TO.C,R52*%
X217651000Y-150071064D02*
X217651000Y-149616936D01*
X216181000Y-150071064D02*
X216181000Y-149616936D01*
%TO.C,R53*%
X215800000Y-146166064D02*
X215800000Y-145711936D01*
X217270000Y-146166064D02*
X217270000Y-145711936D01*
D13*
%TO.C,S13*%
X206265780Y-137414000D02*
X206265780Y-135382000D01*
X206519780Y-135382000D02*
X206519780Y-137414000D01*
X206773780Y-137414000D02*
X206773780Y-135382000D01*
X207027780Y-135382000D02*
X207027780Y-137414000D01*
X207281780Y-137414000D02*
X207281780Y-135382000D01*
X207535780Y-135382000D02*
X207535780Y-137414000D01*
X207789780Y-137414000D02*
X207789780Y-135382000D01*
X211599780Y-137922000D02*
X211599780Y-138430000D01*
X211091780Y-137922000D02*
X211599780Y-137922000D01*
X211091780Y-134874000D02*
X211091780Y-137922000D01*
X211599780Y-134874000D02*
X211091780Y-134874000D01*
X211599780Y-134366000D02*
X211599780Y-134874000D01*
X206011780Y-134366000D02*
X211599780Y-134366000D01*
X205757780Y-134620000D02*
X206011780Y-134366000D01*
X205503780Y-134366000D02*
X205757780Y-134620000D01*
X199915780Y-134366000D02*
X205503780Y-134366000D01*
X199915780Y-134874000D02*
X199915780Y-134366000D01*
X200423780Y-134874000D02*
X199915780Y-134874000D01*
X200423780Y-137922000D02*
X200423780Y-134874000D01*
X199915780Y-137922000D02*
X200423780Y-137922000D01*
X199915780Y-138430000D02*
X199915780Y-137922000D01*
X205503780Y-138430000D02*
X199915780Y-138430000D01*
X205757780Y-138176000D02*
X205503780Y-138430000D01*
X206011780Y-138430000D02*
X205757780Y-138176000D01*
X211599780Y-138430000D02*
X206011780Y-138430000D01*
D12*
%TO.C,U12*%
X210321840Y-145962920D02*
X210321840Y-142062920D01*
X205201840Y-147462920D02*
X205201840Y-142062920D01*
%TO.C,R48*%
D10*
X148620242Y-100281080D02*
X148286909Y-99804890D01*
X148048814Y-100281080D02*
X148048814Y-99281080D01*
X148429766Y-99281080D01*
X148525004Y-99328700D01*
X148572623Y-99376319D01*
X148620242Y-99471557D01*
X148620242Y-99614414D01*
X148572623Y-99709652D01*
X148525004Y-99757271D01*
X148429766Y-99804890D01*
X148048814Y-99804890D01*
X149477385Y-99614414D02*
X149477385Y-100281080D01*
X149239290Y-99233461D02*
X149001195Y-99947747D01*
X149620242Y-99947747D01*
X150144052Y-99709652D02*
X150048814Y-99662033D01*
X150001195Y-99614414D01*
X149953576Y-99519176D01*
X149953576Y-99471557D01*
X150001195Y-99376319D01*
X150048814Y-99328700D01*
X150144052Y-99281080D01*
X150334528Y-99281080D01*
X150429766Y-99328700D01*
X150477385Y-99376319D01*
X150525004Y-99471557D01*
X150525004Y-99519176D01*
X150477385Y-99614414D01*
X150429766Y-99662033D01*
X150334528Y-99709652D01*
X150144052Y-99709652D01*
X150048814Y-99757271D01*
X150001195Y-99804890D01*
X149953576Y-99900128D01*
X149953576Y-100090604D01*
X150001195Y-100185842D01*
X150048814Y-100233461D01*
X150144052Y-100281080D01*
X150334528Y-100281080D01*
X150429766Y-100233461D01*
X150477385Y-100185842D01*
X150525004Y-100090604D01*
X150525004Y-99900128D01*
X150477385Y-99804890D01*
X150429766Y-99757271D01*
X150334528Y-99709652D01*
%TO.C,A1*%
X223656614Y-104306666D02*
X224132804Y-104306666D01*
X223561376Y-104592380D02*
X223894709Y-103592380D01*
X224228042Y-104592380D01*
X225085185Y-104592380D02*
X224513757Y-104592380D01*
X224799471Y-104592380D02*
X224799471Y-103592380D01*
X224704233Y-103735238D01*
X224608995Y-103830476D01*
X224513757Y-103878095D01*
%TO.C,BT1*%
X137136285Y-77843071D02*
X137279142Y-77890690D01*
X137326761Y-77938309D01*
X137374380Y-78033547D01*
X137374380Y-78176404D01*
X137326761Y-78271642D01*
X137279142Y-78319261D01*
X137183904Y-78366880D01*
X136802952Y-78366880D01*
X136802952Y-77366880D01*
X137136285Y-77366880D01*
X137231523Y-77414500D01*
X137279142Y-77462119D01*
X137326761Y-77557357D01*
X137326761Y-77652595D01*
X137279142Y-77747833D01*
X137231523Y-77795452D01*
X137136285Y-77843071D01*
X136802952Y-77843071D01*
X137660095Y-77366880D02*
X138231523Y-77366880D01*
X137945809Y-78366880D02*
X137945809Y-77366880D01*
X139088666Y-78366880D02*
X138517238Y-78366880D01*
X138802952Y-78366880D02*
X138802952Y-77366880D01*
X138707714Y-77509738D01*
X138612476Y-77604976D01*
X138517238Y-77652595D01*
%TO.C,BT2*%
X146839085Y-82415071D02*
X146981942Y-82462690D01*
X147029561Y-82510309D01*
X147077180Y-82605547D01*
X147077180Y-82748404D01*
X147029561Y-82843642D01*
X146981942Y-82891261D01*
X146886704Y-82938880D01*
X146505752Y-82938880D01*
X146505752Y-81938880D01*
X146839085Y-81938880D01*
X146934323Y-81986500D01*
X146981942Y-82034119D01*
X147029561Y-82129357D01*
X147029561Y-82224595D01*
X146981942Y-82319833D01*
X146934323Y-82367452D01*
X146839085Y-82415071D01*
X146505752Y-82415071D01*
X147362895Y-81938880D02*
X147934323Y-81938880D01*
X147648609Y-82938880D02*
X147648609Y-81938880D01*
X148220038Y-82034119D02*
X148267657Y-81986500D01*
X148362895Y-81938880D01*
X148600990Y-81938880D01*
X148696228Y-81986500D01*
X148743847Y-82034119D01*
X148791466Y-82129357D01*
X148791466Y-82224595D01*
X148743847Y-82367452D01*
X148172419Y-82938880D01*
X148791466Y-82938880D01*
%TO.C,BT3*%
X137250585Y-87075971D02*
X137393442Y-87123590D01*
X137441061Y-87171209D01*
X137488680Y-87266447D01*
X137488680Y-87409304D01*
X137441061Y-87504542D01*
X137393442Y-87552161D01*
X137298204Y-87599780D01*
X136917252Y-87599780D01*
X136917252Y-86599780D01*
X137250585Y-86599780D01*
X137345823Y-86647400D01*
X137393442Y-86695019D01*
X137441061Y-86790257D01*
X137441061Y-86885495D01*
X137393442Y-86980733D01*
X137345823Y-87028352D01*
X137250585Y-87075971D01*
X136917252Y-87075971D01*
X137774395Y-86599780D02*
X138345823Y-86599780D01*
X138060109Y-87599780D02*
X138060109Y-86599780D01*
X138583919Y-86599780D02*
X139202966Y-86599780D01*
X138869633Y-86980733D01*
X139012490Y-86980733D01*
X139107728Y-87028352D01*
X139155347Y-87075971D01*
X139202966Y-87171209D01*
X139202966Y-87409304D01*
X139155347Y-87504542D01*
X139107728Y-87552161D01*
X139012490Y-87599780D01*
X138726776Y-87599780D01*
X138631538Y-87552161D01*
X138583919Y-87504542D01*
%TO.C,BT4*%
X145696085Y-91025671D02*
X145838942Y-91073290D01*
X145886561Y-91120909D01*
X145934180Y-91216147D01*
X145934180Y-91359004D01*
X145886561Y-91454242D01*
X145838942Y-91501861D01*
X145743704Y-91549480D01*
X145362752Y-91549480D01*
X145362752Y-90549480D01*
X145696085Y-90549480D01*
X145791323Y-90597100D01*
X145838942Y-90644719D01*
X145886561Y-90739957D01*
X145886561Y-90835195D01*
X145838942Y-90930433D01*
X145791323Y-90978052D01*
X145696085Y-91025671D01*
X145362752Y-91025671D01*
X146219895Y-90549480D02*
X146791323Y-90549480D01*
X146505609Y-91549480D02*
X146505609Y-90549480D01*
X147553228Y-90882814D02*
X147553228Y-91549480D01*
X147315133Y-90501861D02*
X147077038Y-91216147D01*
X147696085Y-91216147D01*
%TO.C,C1*%
X197426233Y-106158242D02*
X197378614Y-106205861D01*
X197235757Y-106253480D01*
X197140519Y-106253480D01*
X196997661Y-106205861D01*
X196902423Y-106110623D01*
X196854804Y-106015385D01*
X196807185Y-105824909D01*
X196807185Y-105682052D01*
X196854804Y-105491576D01*
X196902423Y-105396338D01*
X196997661Y-105301100D01*
X197140519Y-105253480D01*
X197235757Y-105253480D01*
X197378614Y-105301100D01*
X197426233Y-105348719D01*
X198378614Y-106253480D02*
X197807185Y-106253480D01*
X198092900Y-106253480D02*
X198092900Y-105253480D01*
X197997661Y-105396338D01*
X197902423Y-105491576D01*
X197807185Y-105539195D01*
%TO.C,C2*%
X179633333Y-110457142D02*
X179585714Y-110504761D01*
X179442857Y-110552380D01*
X179347619Y-110552380D01*
X179204761Y-110504761D01*
X179109523Y-110409523D01*
X179061904Y-110314285D01*
X179014285Y-110123809D01*
X179014285Y-109980952D01*
X179061904Y-109790476D01*
X179109523Y-109695238D01*
X179204761Y-109600000D01*
X179347619Y-109552380D01*
X179442857Y-109552380D01*
X179585714Y-109600000D01*
X179633333Y-109647619D01*
X180014285Y-109647619D02*
X180061904Y-109600000D01*
X180157142Y-109552380D01*
X180395238Y-109552380D01*
X180490476Y-109600000D01*
X180538095Y-109647619D01*
X180585714Y-109742857D01*
X180585714Y-109838095D01*
X180538095Y-109980952D01*
X179966666Y-110552380D01*
X180585714Y-110552380D01*
%TO.C,C3*%
X184015033Y-114818542D02*
X183967414Y-114866161D01*
X183824557Y-114913780D01*
X183729319Y-114913780D01*
X183586461Y-114866161D01*
X183491223Y-114770923D01*
X183443604Y-114675685D01*
X183395985Y-114485209D01*
X183395985Y-114342352D01*
X183443604Y-114151876D01*
X183491223Y-114056638D01*
X183586461Y-113961400D01*
X183729319Y-113913780D01*
X183824557Y-113913780D01*
X183967414Y-113961400D01*
X184015033Y-114009019D01*
X184348366Y-113913780D02*
X184967414Y-113913780D01*
X184634080Y-114294733D01*
X184776938Y-114294733D01*
X184872176Y-114342352D01*
X184919795Y-114389971D01*
X184967414Y-114485209D01*
X184967414Y-114723304D01*
X184919795Y-114818542D01*
X184872176Y-114866161D01*
X184776938Y-114913780D01*
X184491223Y-114913780D01*
X184395985Y-114866161D01*
X184348366Y-114818542D01*
%TO.C,C4*%
X194309533Y-112162842D02*
X194261914Y-112210461D01*
X194119057Y-112258080D01*
X194023819Y-112258080D01*
X193880961Y-112210461D01*
X193785723Y-112115223D01*
X193738104Y-112019985D01*
X193690485Y-111829509D01*
X193690485Y-111686652D01*
X193738104Y-111496176D01*
X193785723Y-111400938D01*
X193880961Y-111305700D01*
X194023819Y-111258080D01*
X194119057Y-111258080D01*
X194261914Y-111305700D01*
X194309533Y-111353319D01*
X195166676Y-111591414D02*
X195166676Y-112258080D01*
X194928580Y-111210461D02*
X194690485Y-111924747D01*
X195309533Y-111924747D01*
%TO.C,C5*%
X188707233Y-115294342D02*
X188659614Y-115341961D01*
X188516757Y-115389580D01*
X188421519Y-115389580D01*
X188278661Y-115341961D01*
X188183423Y-115246723D01*
X188135804Y-115151485D01*
X188088185Y-114961009D01*
X188088185Y-114818152D01*
X188135804Y-114627676D01*
X188183423Y-114532438D01*
X188278661Y-114437200D01*
X188421519Y-114389580D01*
X188516757Y-114389580D01*
X188659614Y-114437200D01*
X188707233Y-114484819D01*
X189611995Y-114389580D02*
X189135804Y-114389580D01*
X189088185Y-114865771D01*
X189135804Y-114818152D01*
X189231042Y-114770533D01*
X189469138Y-114770533D01*
X189564376Y-114818152D01*
X189611995Y-114865771D01*
X189659614Y-114961009D01*
X189659614Y-115199104D01*
X189611995Y-115294342D01*
X189564376Y-115341961D01*
X189469138Y-115389580D01*
X189231042Y-115389580D01*
X189135804Y-115341961D01*
X189088185Y-115294342D01*
%TO.C,C6*%
X171430933Y-123034242D02*
X171383314Y-123081861D01*
X171240457Y-123129480D01*
X171145219Y-123129480D01*
X171002361Y-123081861D01*
X170907123Y-122986623D01*
X170859504Y-122891385D01*
X170811885Y-122700909D01*
X170811885Y-122558052D01*
X170859504Y-122367576D01*
X170907123Y-122272338D01*
X171002361Y-122177100D01*
X171145219Y-122129480D01*
X171240457Y-122129480D01*
X171383314Y-122177100D01*
X171430933Y-122224719D01*
X172288076Y-122129480D02*
X172097600Y-122129480D01*
X172002361Y-122177100D01*
X171954742Y-122224719D01*
X171859504Y-122367576D01*
X171811885Y-122558052D01*
X171811885Y-122939004D01*
X171859504Y-123034242D01*
X171907123Y-123081861D01*
X172002361Y-123129480D01*
X172192838Y-123129480D01*
X172288076Y-123081861D01*
X172335695Y-123034242D01*
X172383314Y-122939004D01*
X172383314Y-122700909D01*
X172335695Y-122605671D01*
X172288076Y-122558052D01*
X172192838Y-122510433D01*
X172002361Y-122510433D01*
X171907123Y-122558052D01*
X171859504Y-122605671D01*
X171811885Y-122700909D01*
%TO.C,C7*%
X168387733Y-100268042D02*
X168340114Y-100315661D01*
X168197257Y-100363280D01*
X168102019Y-100363280D01*
X167959161Y-100315661D01*
X167863923Y-100220423D01*
X167816304Y-100125185D01*
X167768685Y-99934709D01*
X167768685Y-99791852D01*
X167816304Y-99601376D01*
X167863923Y-99506138D01*
X167959161Y-99410900D01*
X168102019Y-99363280D01*
X168197257Y-99363280D01*
X168340114Y-99410900D01*
X168387733Y-99458519D01*
X168721066Y-99363280D02*
X169387733Y-99363280D01*
X168959161Y-100363280D01*
%TO.C,C8*%
X180695433Y-102848342D02*
X180647814Y-102895961D01*
X180504957Y-102943580D01*
X180409719Y-102943580D01*
X180266861Y-102895961D01*
X180171623Y-102800723D01*
X180124004Y-102705485D01*
X180076385Y-102515009D01*
X180076385Y-102372152D01*
X180124004Y-102181676D01*
X180171623Y-102086438D01*
X180266861Y-101991200D01*
X180409719Y-101943580D01*
X180504957Y-101943580D01*
X180647814Y-101991200D01*
X180695433Y-102038819D01*
X181266861Y-102372152D02*
X181171623Y-102324533D01*
X181124004Y-102276914D01*
X181076385Y-102181676D01*
X181076385Y-102134057D01*
X181124004Y-102038819D01*
X181171623Y-101991200D01*
X181266861Y-101943580D01*
X181457338Y-101943580D01*
X181552576Y-101991200D01*
X181600195Y-102038819D01*
X181647814Y-102134057D01*
X181647814Y-102181676D01*
X181600195Y-102276914D01*
X181552576Y-102324533D01*
X181457338Y-102372152D01*
X181266861Y-102372152D01*
X181171623Y-102419771D01*
X181124004Y-102467390D01*
X181076385Y-102562628D01*
X181076385Y-102753104D01*
X181124004Y-102848342D01*
X181171623Y-102895961D01*
X181266861Y-102943580D01*
X181457338Y-102943580D01*
X181552576Y-102895961D01*
X181600195Y-102848342D01*
X181647814Y-102753104D01*
X181647814Y-102562628D01*
X181600195Y-102467390D01*
X181552576Y-102419771D01*
X181457338Y-102372152D01*
%TO.C,C9*%
X188948533Y-117605742D02*
X188900914Y-117653361D01*
X188758057Y-117700980D01*
X188662819Y-117700980D01*
X188519961Y-117653361D01*
X188424723Y-117558123D01*
X188377104Y-117462885D01*
X188329485Y-117272409D01*
X188329485Y-117129552D01*
X188377104Y-116939076D01*
X188424723Y-116843838D01*
X188519961Y-116748600D01*
X188662819Y-116700980D01*
X188758057Y-116700980D01*
X188900914Y-116748600D01*
X188948533Y-116796219D01*
X189424723Y-117700980D02*
X189615200Y-117700980D01*
X189710438Y-117653361D01*
X189758057Y-117605742D01*
X189853295Y-117462885D01*
X189900914Y-117272409D01*
X189900914Y-116891457D01*
X189853295Y-116796219D01*
X189805676Y-116748600D01*
X189710438Y-116700980D01*
X189519961Y-116700980D01*
X189424723Y-116748600D01*
X189377104Y-116796219D01*
X189329485Y-116891457D01*
X189329485Y-117129552D01*
X189377104Y-117224790D01*
X189424723Y-117272409D01*
X189519961Y-117320028D01*
X189710438Y-117320028D01*
X189805676Y-117272409D01*
X189853295Y-117224790D01*
X189900914Y-117129552D01*
%TO.C,C10*%
X199363042Y-101535442D02*
X199315423Y-101583061D01*
X199172566Y-101630680D01*
X199077328Y-101630680D01*
X198934471Y-101583061D01*
X198839233Y-101487823D01*
X198791614Y-101392585D01*
X198743995Y-101202109D01*
X198743995Y-101059252D01*
X198791614Y-100868776D01*
X198839233Y-100773538D01*
X198934471Y-100678300D01*
X199077328Y-100630680D01*
X199172566Y-100630680D01*
X199315423Y-100678300D01*
X199363042Y-100725919D01*
X200315423Y-101630680D02*
X199743995Y-101630680D01*
X200029709Y-101630680D02*
X200029709Y-100630680D01*
X199934471Y-100773538D01*
X199839233Y-100868776D01*
X199743995Y-100916395D01*
X200934471Y-100630680D02*
X201029709Y-100630680D01*
X201124947Y-100678300D01*
X201172566Y-100725919D01*
X201220185Y-100821157D01*
X201267804Y-101011633D01*
X201267804Y-101249728D01*
X201220185Y-101440204D01*
X201172566Y-101535442D01*
X201124947Y-101583061D01*
X201029709Y-101630680D01*
X200934471Y-101630680D01*
X200839233Y-101583061D01*
X200791614Y-101535442D01*
X200743995Y-101440204D01*
X200696376Y-101249728D01*
X200696376Y-101011633D01*
X200743995Y-100821157D01*
X200791614Y-100725919D01*
X200839233Y-100678300D01*
X200934471Y-100630680D01*
%TO.C,C11*%
X199096342Y-103846842D02*
X199048723Y-103894461D01*
X198905866Y-103942080D01*
X198810628Y-103942080D01*
X198667771Y-103894461D01*
X198572533Y-103799223D01*
X198524914Y-103703985D01*
X198477295Y-103513509D01*
X198477295Y-103370652D01*
X198524914Y-103180176D01*
X198572533Y-103084938D01*
X198667771Y-102989700D01*
X198810628Y-102942080D01*
X198905866Y-102942080D01*
X199048723Y-102989700D01*
X199096342Y-103037319D01*
X200048723Y-103942080D02*
X199477295Y-103942080D01*
X199763009Y-103942080D02*
X199763009Y-102942080D01*
X199667771Y-103084938D01*
X199572533Y-103180176D01*
X199477295Y-103227795D01*
X201001104Y-103942080D02*
X200429676Y-103942080D01*
X200715390Y-103942080D02*
X200715390Y-102942080D01*
X200620152Y-103084938D01*
X200524914Y-103180176D01*
X200429676Y-103227795D01*
%TO.C,C12*%
X183070542Y-118449542D02*
X183022923Y-118497161D01*
X182880066Y-118544780D01*
X182784828Y-118544780D01*
X182641971Y-118497161D01*
X182546733Y-118401923D01*
X182499114Y-118306685D01*
X182451495Y-118116209D01*
X182451495Y-117973352D01*
X182499114Y-117782876D01*
X182546733Y-117687638D01*
X182641971Y-117592400D01*
X182784828Y-117544780D01*
X182880066Y-117544780D01*
X183022923Y-117592400D01*
X183070542Y-117640019D01*
X184022923Y-118544780D02*
X183451495Y-118544780D01*
X183737209Y-118544780D02*
X183737209Y-117544780D01*
X183641971Y-117687638D01*
X183546733Y-117782876D01*
X183451495Y-117830495D01*
X184403876Y-117640019D02*
X184451495Y-117592400D01*
X184546733Y-117544780D01*
X184784828Y-117544780D01*
X184880066Y-117592400D01*
X184927685Y-117640019D01*
X184975304Y-117735257D01*
X184975304Y-117830495D01*
X184927685Y-117973352D01*
X184356257Y-118544780D01*
X184975304Y-118544780D01*
%TO.C,C13*%
X168516342Y-115642842D02*
X168468723Y-115690461D01*
X168325866Y-115738080D01*
X168230628Y-115738080D01*
X168087771Y-115690461D01*
X167992533Y-115595223D01*
X167944914Y-115499985D01*
X167897295Y-115309509D01*
X167897295Y-115166652D01*
X167944914Y-114976176D01*
X167992533Y-114880938D01*
X168087771Y-114785700D01*
X168230628Y-114738080D01*
X168325866Y-114738080D01*
X168468723Y-114785700D01*
X168516342Y-114833319D01*
X169468723Y-115738080D02*
X168897295Y-115738080D01*
X169183009Y-115738080D02*
X169183009Y-114738080D01*
X169087771Y-114880938D01*
X168992533Y-114976176D01*
X168897295Y-115023795D01*
X169802057Y-114738080D02*
X170421104Y-114738080D01*
X170087771Y-115119033D01*
X170230628Y-115119033D01*
X170325866Y-115166652D01*
X170373485Y-115214271D01*
X170421104Y-115309509D01*
X170421104Y-115547604D01*
X170373485Y-115642842D01*
X170325866Y-115690461D01*
X170230628Y-115738080D01*
X169944914Y-115738080D01*
X169849676Y-115690461D01*
X169802057Y-115642842D01*
%TO.C,C14*%
X170144442Y-118470542D02*
X170096823Y-118518161D01*
X169953966Y-118565780D01*
X169858728Y-118565780D01*
X169715871Y-118518161D01*
X169620633Y-118422923D01*
X169573014Y-118327685D01*
X169525395Y-118137209D01*
X169525395Y-117994352D01*
X169573014Y-117803876D01*
X169620633Y-117708638D01*
X169715871Y-117613400D01*
X169858728Y-117565780D01*
X169953966Y-117565780D01*
X170096823Y-117613400D01*
X170144442Y-117661019D01*
X171096823Y-118565780D02*
X170525395Y-118565780D01*
X170811109Y-118565780D02*
X170811109Y-117565780D01*
X170715871Y-117708638D01*
X170620633Y-117803876D01*
X170525395Y-117851495D01*
X171953966Y-117899114D02*
X171953966Y-118565780D01*
X171715871Y-117518161D02*
X171477776Y-118232447D01*
X172096823Y-118232447D01*
%TO.C,C15*%
X159757142Y-120457142D02*
X159709523Y-120504761D01*
X159566666Y-120552380D01*
X159471428Y-120552380D01*
X159328571Y-120504761D01*
X159233333Y-120409523D01*
X159185714Y-120314285D01*
X159138095Y-120123809D01*
X159138095Y-119980952D01*
X159185714Y-119790476D01*
X159233333Y-119695238D01*
X159328571Y-119600000D01*
X159471428Y-119552380D01*
X159566666Y-119552380D01*
X159709523Y-119600000D01*
X159757142Y-119647619D01*
X160709523Y-120552380D02*
X160138095Y-120552380D01*
X160423809Y-120552380D02*
X160423809Y-119552380D01*
X160328571Y-119695238D01*
X160233333Y-119790476D01*
X160138095Y-119838095D01*
X161614285Y-119552380D02*
X161138095Y-119552380D01*
X161090476Y-120028571D01*
X161138095Y-119980952D01*
X161233333Y-119933333D01*
X161471428Y-119933333D01*
X161566666Y-119980952D01*
X161614285Y-120028571D01*
X161661904Y-120123809D01*
X161661904Y-120361904D01*
X161614285Y-120457142D01*
X161566666Y-120504761D01*
X161471428Y-120552380D01*
X161233333Y-120552380D01*
X161138095Y-120504761D01*
X161090476Y-120457142D01*
%TO.C,C16*%
X174157142Y-109257142D02*
X174109523Y-109304761D01*
X173966666Y-109352380D01*
X173871428Y-109352380D01*
X173728571Y-109304761D01*
X173633333Y-109209523D01*
X173585714Y-109114285D01*
X173538095Y-108923809D01*
X173538095Y-108780952D01*
X173585714Y-108590476D01*
X173633333Y-108495238D01*
X173728571Y-108400000D01*
X173871428Y-108352380D01*
X173966666Y-108352380D01*
X174109523Y-108400000D01*
X174157142Y-108447619D01*
X175109523Y-109352380D02*
X174538095Y-109352380D01*
X174823809Y-109352380D02*
X174823809Y-108352380D01*
X174728571Y-108495238D01*
X174633333Y-108590476D01*
X174538095Y-108638095D01*
X175966666Y-108352380D02*
X175776190Y-108352380D01*
X175680952Y-108400000D01*
X175633333Y-108447619D01*
X175538095Y-108590476D01*
X175490476Y-108780952D01*
X175490476Y-109161904D01*
X175538095Y-109257142D01*
X175585714Y-109304761D01*
X175680952Y-109352380D01*
X175871428Y-109352380D01*
X175966666Y-109304761D01*
X176014285Y-109257142D01*
X176061904Y-109161904D01*
X176061904Y-108923809D01*
X176014285Y-108828571D01*
X175966666Y-108780952D01*
X175871428Y-108733333D01*
X175680952Y-108733333D01*
X175585714Y-108780952D01*
X175538095Y-108828571D01*
X175490476Y-108923809D01*
%TO.C,C21*%
X170134042Y-74207642D02*
X170086423Y-74255261D01*
X169943566Y-74302880D01*
X169848328Y-74302880D01*
X169705471Y-74255261D01*
X169610233Y-74160023D01*
X169562614Y-74064785D01*
X169514995Y-73874309D01*
X169514995Y-73731452D01*
X169562614Y-73540976D01*
X169610233Y-73445738D01*
X169705471Y-73350500D01*
X169848328Y-73302880D01*
X169943566Y-73302880D01*
X170086423Y-73350500D01*
X170134042Y-73398119D01*
X170514995Y-73398119D02*
X170562614Y-73350500D01*
X170657852Y-73302880D01*
X170895947Y-73302880D01*
X170991185Y-73350500D01*
X171038804Y-73398119D01*
X171086423Y-73493357D01*
X171086423Y-73588595D01*
X171038804Y-73731452D01*
X170467376Y-74302880D01*
X171086423Y-74302880D01*
X172038804Y-74302880D02*
X171467376Y-74302880D01*
X171753090Y-74302880D02*
X171753090Y-73302880D01*
X171657852Y-73445738D01*
X171562614Y-73540976D01*
X171467376Y-73588595D01*
%TO.C,C22*%
X171734242Y-66168542D02*
X171686623Y-66216161D01*
X171543766Y-66263780D01*
X171448528Y-66263780D01*
X171305671Y-66216161D01*
X171210433Y-66120923D01*
X171162814Y-66025685D01*
X171115195Y-65835209D01*
X171115195Y-65692352D01*
X171162814Y-65501876D01*
X171210433Y-65406638D01*
X171305671Y-65311400D01*
X171448528Y-65263780D01*
X171543766Y-65263780D01*
X171686623Y-65311400D01*
X171734242Y-65359019D01*
X172115195Y-65359019D02*
X172162814Y-65311400D01*
X172258052Y-65263780D01*
X172496147Y-65263780D01*
X172591385Y-65311400D01*
X172639004Y-65359019D01*
X172686623Y-65454257D01*
X172686623Y-65549495D01*
X172639004Y-65692352D01*
X172067576Y-66263780D01*
X172686623Y-66263780D01*
X173067576Y-65359019D02*
X173115195Y-65311400D01*
X173210433Y-65263780D01*
X173448528Y-65263780D01*
X173543766Y-65311400D01*
X173591385Y-65359019D01*
X173639004Y-65454257D01*
X173639004Y-65549495D01*
X173591385Y-65692352D01*
X173019957Y-66263780D01*
X173639004Y-66263780D01*
%TO.C,C23*%
X169918142Y-72056262D02*
X169870523Y-72103881D01*
X169727666Y-72151500D01*
X169632428Y-72151500D01*
X169489571Y-72103881D01*
X169394333Y-72008643D01*
X169346714Y-71913405D01*
X169299095Y-71722929D01*
X169299095Y-71580072D01*
X169346714Y-71389596D01*
X169394333Y-71294358D01*
X169489571Y-71199120D01*
X169632428Y-71151500D01*
X169727666Y-71151500D01*
X169870523Y-71199120D01*
X169918142Y-71246739D01*
X170299095Y-71246739D02*
X170346714Y-71199120D01*
X170441952Y-71151500D01*
X170680047Y-71151500D01*
X170775285Y-71199120D01*
X170822904Y-71246739D01*
X170870523Y-71341977D01*
X170870523Y-71437215D01*
X170822904Y-71580072D01*
X170251476Y-72151500D01*
X170870523Y-72151500D01*
X171203857Y-71151500D02*
X171822904Y-71151500D01*
X171489571Y-71532453D01*
X171632428Y-71532453D01*
X171727666Y-71580072D01*
X171775285Y-71627691D01*
X171822904Y-71722929D01*
X171822904Y-71961024D01*
X171775285Y-72056262D01*
X171727666Y-72103881D01*
X171632428Y-72151500D01*
X171346714Y-72151500D01*
X171251476Y-72103881D01*
X171203857Y-72056262D01*
%TO.C,C24*%
X184358042Y-67349642D02*
X184310423Y-67397261D01*
X184167566Y-67444880D01*
X184072328Y-67444880D01*
X183929471Y-67397261D01*
X183834233Y-67302023D01*
X183786614Y-67206785D01*
X183738995Y-67016309D01*
X183738995Y-66873452D01*
X183786614Y-66682976D01*
X183834233Y-66587738D01*
X183929471Y-66492500D01*
X184072328Y-66444880D01*
X184167566Y-66444880D01*
X184310423Y-66492500D01*
X184358042Y-66540119D01*
X184738995Y-66540119D02*
X184786614Y-66492500D01*
X184881852Y-66444880D01*
X185119947Y-66444880D01*
X185215185Y-66492500D01*
X185262804Y-66540119D01*
X185310423Y-66635357D01*
X185310423Y-66730595D01*
X185262804Y-66873452D01*
X184691376Y-67444880D01*
X185310423Y-67444880D01*
X186167566Y-66778214D02*
X186167566Y-67444880D01*
X185929471Y-66397261D02*
X185691376Y-67111547D01*
X186310423Y-67111547D01*
%TO.C,C25*%
X182808642Y-76252342D02*
X182761023Y-76299961D01*
X182618166Y-76347580D01*
X182522928Y-76347580D01*
X182380071Y-76299961D01*
X182284833Y-76204723D01*
X182237214Y-76109485D01*
X182189595Y-75919009D01*
X182189595Y-75776152D01*
X182237214Y-75585676D01*
X182284833Y-75490438D01*
X182380071Y-75395200D01*
X182522928Y-75347580D01*
X182618166Y-75347580D01*
X182761023Y-75395200D01*
X182808642Y-75442819D01*
X183189595Y-75442819D02*
X183237214Y-75395200D01*
X183332452Y-75347580D01*
X183570547Y-75347580D01*
X183665785Y-75395200D01*
X183713404Y-75442819D01*
X183761023Y-75538057D01*
X183761023Y-75633295D01*
X183713404Y-75776152D01*
X183141976Y-76347580D01*
X183761023Y-76347580D01*
X184665785Y-75347580D02*
X184189595Y-75347580D01*
X184141976Y-75823771D01*
X184189595Y-75776152D01*
X184284833Y-75728533D01*
X184522928Y-75728533D01*
X184618166Y-75776152D01*
X184665785Y-75823771D01*
X184713404Y-75919009D01*
X184713404Y-76157104D01*
X184665785Y-76252342D01*
X184618166Y-76299961D01*
X184522928Y-76347580D01*
X184284833Y-76347580D01*
X184189595Y-76299961D01*
X184141976Y-76252342D01*
%TO.C,C26*%
X184472342Y-70270642D02*
X184424723Y-70318261D01*
X184281866Y-70365880D01*
X184186628Y-70365880D01*
X184043771Y-70318261D01*
X183948533Y-70223023D01*
X183900914Y-70127785D01*
X183853295Y-69937309D01*
X183853295Y-69794452D01*
X183900914Y-69603976D01*
X183948533Y-69508738D01*
X184043771Y-69413500D01*
X184186628Y-69365880D01*
X184281866Y-69365880D01*
X184424723Y-69413500D01*
X184472342Y-69461119D01*
X184853295Y-69461119D02*
X184900914Y-69413500D01*
X184996152Y-69365880D01*
X185234247Y-69365880D01*
X185329485Y-69413500D01*
X185377104Y-69461119D01*
X185424723Y-69556357D01*
X185424723Y-69651595D01*
X185377104Y-69794452D01*
X184805676Y-70365880D01*
X185424723Y-70365880D01*
X186281866Y-69365880D02*
X186091390Y-69365880D01*
X185996152Y-69413500D01*
X185948533Y-69461119D01*
X185853295Y-69603976D01*
X185805676Y-69794452D01*
X185805676Y-70175404D01*
X185853295Y-70270642D01*
X185900914Y-70318261D01*
X185996152Y-70365880D01*
X186186628Y-70365880D01*
X186281866Y-70318261D01*
X186329485Y-70270642D01*
X186377104Y-70175404D01*
X186377104Y-69937309D01*
X186329485Y-69842071D01*
X186281866Y-69794452D01*
X186186628Y-69746833D01*
X185996152Y-69746833D01*
X185900914Y-69794452D01*
X185853295Y-69842071D01*
X185805676Y-69937309D01*
%TO.C,C27*%
X199625982Y-60659282D02*
X199578363Y-60706901D01*
X199435506Y-60754520D01*
X199340268Y-60754520D01*
X199197411Y-60706901D01*
X199102173Y-60611663D01*
X199054554Y-60516425D01*
X199006935Y-60325949D01*
X199006935Y-60183092D01*
X199054554Y-59992616D01*
X199102173Y-59897378D01*
X199197411Y-59802140D01*
X199340268Y-59754520D01*
X199435506Y-59754520D01*
X199578363Y-59802140D01*
X199625982Y-59849759D01*
X200006935Y-59849759D02*
X200054554Y-59802140D01*
X200149792Y-59754520D01*
X200387887Y-59754520D01*
X200483125Y-59802140D01*
X200530744Y-59849759D01*
X200578363Y-59944997D01*
X200578363Y-60040235D01*
X200530744Y-60183092D01*
X199959316Y-60754520D01*
X200578363Y-60754520D01*
X200911697Y-59754520D02*
X201578363Y-59754520D01*
X201149792Y-60754520D01*
%TO.C,C28*%
X202275202Y-69318142D02*
X202227583Y-69365761D01*
X202084726Y-69413380D01*
X201989488Y-69413380D01*
X201846631Y-69365761D01*
X201751393Y-69270523D01*
X201703774Y-69175285D01*
X201656155Y-68984809D01*
X201656155Y-68841952D01*
X201703774Y-68651476D01*
X201751393Y-68556238D01*
X201846631Y-68461000D01*
X201989488Y-68413380D01*
X202084726Y-68413380D01*
X202227583Y-68461000D01*
X202275202Y-68508619D01*
X202656155Y-68508619D02*
X202703774Y-68461000D01*
X202799012Y-68413380D01*
X203037107Y-68413380D01*
X203132345Y-68461000D01*
X203179964Y-68508619D01*
X203227583Y-68603857D01*
X203227583Y-68699095D01*
X203179964Y-68841952D01*
X202608536Y-69413380D01*
X203227583Y-69413380D01*
X203799012Y-68841952D02*
X203703774Y-68794333D01*
X203656155Y-68746714D01*
X203608536Y-68651476D01*
X203608536Y-68603857D01*
X203656155Y-68508619D01*
X203703774Y-68461000D01*
X203799012Y-68413380D01*
X203989488Y-68413380D01*
X204084726Y-68461000D01*
X204132345Y-68508619D01*
X204179964Y-68603857D01*
X204179964Y-68651476D01*
X204132345Y-68746714D01*
X204084726Y-68794333D01*
X203989488Y-68841952D01*
X203799012Y-68841952D01*
X203703774Y-68889571D01*
X203656155Y-68937190D01*
X203608536Y-69032428D01*
X203608536Y-69222904D01*
X203656155Y-69318142D01*
X203703774Y-69365761D01*
X203799012Y-69413380D01*
X203989488Y-69413380D01*
X204084726Y-69365761D01*
X204132345Y-69318142D01*
X204179964Y-69222904D01*
X204179964Y-69032428D01*
X204132345Y-68937190D01*
X204084726Y-68889571D01*
X203989488Y-68841952D01*
%TO.C,C29*%
X194015122Y-77308982D02*
X193967503Y-77356601D01*
X193824646Y-77404220D01*
X193729408Y-77404220D01*
X193586551Y-77356601D01*
X193491313Y-77261363D01*
X193443694Y-77166125D01*
X193396075Y-76975649D01*
X193396075Y-76832792D01*
X193443694Y-76642316D01*
X193491313Y-76547078D01*
X193586551Y-76451840D01*
X193729408Y-76404220D01*
X193824646Y-76404220D01*
X193967503Y-76451840D01*
X194015122Y-76499459D01*
X194396075Y-76499459D02*
X194443694Y-76451840D01*
X194538932Y-76404220D01*
X194777027Y-76404220D01*
X194872265Y-76451840D01*
X194919884Y-76499459D01*
X194967503Y-76594697D01*
X194967503Y-76689935D01*
X194919884Y-76832792D01*
X194348456Y-77404220D01*
X194967503Y-77404220D01*
X195443694Y-77404220D02*
X195634170Y-77404220D01*
X195729408Y-77356601D01*
X195777027Y-77308982D01*
X195872265Y-77166125D01*
X195919884Y-76975649D01*
X195919884Y-76594697D01*
X195872265Y-76499459D01*
X195824646Y-76451840D01*
X195729408Y-76404220D01*
X195538932Y-76404220D01*
X195443694Y-76451840D01*
X195396075Y-76499459D01*
X195348456Y-76594697D01*
X195348456Y-76832792D01*
X195396075Y-76928030D01*
X195443694Y-76975649D01*
X195538932Y-77023268D01*
X195729408Y-77023268D01*
X195824646Y-76975649D01*
X195872265Y-76928030D01*
X195919884Y-76832792D01*
%TO.C,C30*%
X201213482Y-77532502D02*
X201165863Y-77580121D01*
X201023006Y-77627740D01*
X200927768Y-77627740D01*
X200784911Y-77580121D01*
X200689673Y-77484883D01*
X200642054Y-77389645D01*
X200594435Y-77199169D01*
X200594435Y-77056312D01*
X200642054Y-76865836D01*
X200689673Y-76770598D01*
X200784911Y-76675360D01*
X200927768Y-76627740D01*
X201023006Y-76627740D01*
X201165863Y-76675360D01*
X201213482Y-76722979D01*
X201546816Y-76627740D02*
X202165863Y-76627740D01*
X201832530Y-77008693D01*
X201975387Y-77008693D01*
X202070625Y-77056312D01*
X202118244Y-77103931D01*
X202165863Y-77199169D01*
X202165863Y-77437264D01*
X202118244Y-77532502D01*
X202070625Y-77580121D01*
X201975387Y-77627740D01*
X201689673Y-77627740D01*
X201594435Y-77580121D01*
X201546816Y-77532502D01*
X202784911Y-76627740D02*
X202880149Y-76627740D01*
X202975387Y-76675360D01*
X203023006Y-76722979D01*
X203070625Y-76818217D01*
X203118244Y-77008693D01*
X203118244Y-77246788D01*
X203070625Y-77437264D01*
X203023006Y-77532502D01*
X202975387Y-77580121D01*
X202880149Y-77627740D01*
X202784911Y-77627740D01*
X202689673Y-77580121D01*
X202642054Y-77532502D01*
X202594435Y-77437264D01*
X202546816Y-77246788D01*
X202546816Y-77008693D01*
X202594435Y-76818217D01*
X202642054Y-76722979D01*
X202689673Y-76675360D01*
X202784911Y-76627740D01*
%TO.C,C31*%
X197444122Y-77161662D02*
X197396503Y-77209281D01*
X197253646Y-77256900D01*
X197158408Y-77256900D01*
X197015551Y-77209281D01*
X196920313Y-77114043D01*
X196872694Y-77018805D01*
X196825075Y-76828329D01*
X196825075Y-76685472D01*
X196872694Y-76494996D01*
X196920313Y-76399758D01*
X197015551Y-76304520D01*
X197158408Y-76256900D01*
X197253646Y-76256900D01*
X197396503Y-76304520D01*
X197444122Y-76352139D01*
X197777456Y-76256900D02*
X198396503Y-76256900D01*
X198063170Y-76637853D01*
X198206027Y-76637853D01*
X198301265Y-76685472D01*
X198348884Y-76733091D01*
X198396503Y-76828329D01*
X198396503Y-77066424D01*
X198348884Y-77161662D01*
X198301265Y-77209281D01*
X198206027Y-77256900D01*
X197920313Y-77256900D01*
X197825075Y-77209281D01*
X197777456Y-77161662D01*
X199348884Y-77256900D02*
X198777456Y-77256900D01*
X199063170Y-77256900D02*
X199063170Y-76256900D01*
X198967932Y-76399758D01*
X198872694Y-76494996D01*
X198777456Y-76542615D01*
%TO.C,C32*%
X209657142Y-91857142D02*
X209609523Y-91904761D01*
X209466666Y-91952380D01*
X209371428Y-91952380D01*
X209228571Y-91904761D01*
X209133333Y-91809523D01*
X209085714Y-91714285D01*
X209038095Y-91523809D01*
X209038095Y-91380952D01*
X209085714Y-91190476D01*
X209133333Y-91095238D01*
X209228571Y-91000000D01*
X209371428Y-90952380D01*
X209466666Y-90952380D01*
X209609523Y-91000000D01*
X209657142Y-91047619D01*
X209990476Y-90952380D02*
X210609523Y-90952380D01*
X210276190Y-91333333D01*
X210419047Y-91333333D01*
X210514285Y-91380952D01*
X210561904Y-91428571D01*
X210609523Y-91523809D01*
X210609523Y-91761904D01*
X210561904Y-91857142D01*
X210514285Y-91904761D01*
X210419047Y-91952380D01*
X210133333Y-91952380D01*
X210038095Y-91904761D01*
X209990476Y-91857142D01*
X210990476Y-91047619D02*
X211038095Y-91000000D01*
X211133333Y-90952380D01*
X211371428Y-90952380D01*
X211466666Y-91000000D01*
X211514285Y-91047619D01*
X211561904Y-91142857D01*
X211561904Y-91238095D01*
X211514285Y-91380952D01*
X210942857Y-91952380D01*
X211561904Y-91952380D01*
%TO.C,C33*%
X211567042Y-82373857D02*
X211614661Y-82421476D01*
X211662280Y-82564333D01*
X211662280Y-82659571D01*
X211614661Y-82802428D01*
X211519423Y-82897666D01*
X211424185Y-82945285D01*
X211233709Y-82992904D01*
X211090852Y-82992904D01*
X210900376Y-82945285D01*
X210805138Y-82897666D01*
X210709900Y-82802428D01*
X210662280Y-82659571D01*
X210662280Y-82564333D01*
X210709900Y-82421476D01*
X210757519Y-82373857D01*
X210662280Y-82040523D02*
X210662280Y-81421476D01*
X211043233Y-81754809D01*
X211043233Y-81611952D01*
X211090852Y-81516714D01*
X211138471Y-81469095D01*
X211233709Y-81421476D01*
X211471804Y-81421476D01*
X211567042Y-81469095D01*
X211614661Y-81516714D01*
X211662280Y-81611952D01*
X211662280Y-81897666D01*
X211614661Y-81992904D01*
X211567042Y-82040523D01*
X210662280Y-81088142D02*
X210662280Y-80469095D01*
X211043233Y-80802428D01*
X211043233Y-80659571D01*
X211090852Y-80564333D01*
X211138471Y-80516714D01*
X211233709Y-80469095D01*
X211471804Y-80469095D01*
X211567042Y-80516714D01*
X211614661Y-80564333D01*
X211662280Y-80659571D01*
X211662280Y-80945285D01*
X211614661Y-81040523D01*
X211567042Y-81088142D01*
%TO.C,C34*%
X208757142Y-94057142D02*
X208709523Y-94104761D01*
X208566666Y-94152380D01*
X208471428Y-94152380D01*
X208328571Y-94104761D01*
X208233333Y-94009523D01*
X208185714Y-93914285D01*
X208138095Y-93723809D01*
X208138095Y-93580952D01*
X208185714Y-93390476D01*
X208233333Y-93295238D01*
X208328571Y-93200000D01*
X208471428Y-93152380D01*
X208566666Y-93152380D01*
X208709523Y-93200000D01*
X208757142Y-93247619D01*
X209090476Y-93152380D02*
X209709523Y-93152380D01*
X209376190Y-93533333D01*
X209519047Y-93533333D01*
X209614285Y-93580952D01*
X209661904Y-93628571D01*
X209709523Y-93723809D01*
X209709523Y-93961904D01*
X209661904Y-94057142D01*
X209614285Y-94104761D01*
X209519047Y-94152380D01*
X209233333Y-94152380D01*
X209138095Y-94104761D01*
X209090476Y-94057142D01*
X210566666Y-93485714D02*
X210566666Y-94152380D01*
X210328571Y-93104761D02*
X210090476Y-93819047D01*
X210709523Y-93819047D01*
%TO.C,C35*%
X208417442Y-99404557D02*
X208465061Y-99452176D01*
X208512680Y-99595033D01*
X208512680Y-99690271D01*
X208465061Y-99833128D01*
X208369823Y-99928366D01*
X208274585Y-99975985D01*
X208084109Y-100023604D01*
X207941252Y-100023604D01*
X207750776Y-99975985D01*
X207655538Y-99928366D01*
X207560300Y-99833128D01*
X207512680Y-99690271D01*
X207512680Y-99595033D01*
X207560300Y-99452176D01*
X207607919Y-99404557D01*
X207512680Y-99071223D02*
X207512680Y-98452176D01*
X207893633Y-98785509D01*
X207893633Y-98642652D01*
X207941252Y-98547414D01*
X207988871Y-98499795D01*
X208084109Y-98452176D01*
X208322204Y-98452176D01*
X208417442Y-98499795D01*
X208465061Y-98547414D01*
X208512680Y-98642652D01*
X208512680Y-98928366D01*
X208465061Y-99023604D01*
X208417442Y-99071223D01*
X207512680Y-97547414D02*
X207512680Y-98023604D01*
X207988871Y-98071223D01*
X207941252Y-98023604D01*
X207893633Y-97928366D01*
X207893633Y-97690271D01*
X207941252Y-97595033D01*
X207988871Y-97547414D01*
X208084109Y-97499795D01*
X208322204Y-97499795D01*
X208417442Y-97547414D01*
X208465061Y-97595033D01*
X208512680Y-97690271D01*
X208512680Y-97928366D01*
X208465061Y-98023604D01*
X208417442Y-98071223D01*
%TO.C,C36*%
X211871842Y-86501357D02*
X211919461Y-86548976D01*
X211967080Y-86691833D01*
X211967080Y-86787071D01*
X211919461Y-86929928D01*
X211824223Y-87025166D01*
X211728985Y-87072785D01*
X211538509Y-87120404D01*
X211395652Y-87120404D01*
X211205176Y-87072785D01*
X211109938Y-87025166D01*
X211014700Y-86929928D01*
X210967080Y-86787071D01*
X210967080Y-86691833D01*
X211014700Y-86548976D01*
X211062319Y-86501357D01*
X210967080Y-86168023D02*
X210967080Y-85548976D01*
X211348033Y-85882309D01*
X211348033Y-85739452D01*
X211395652Y-85644214D01*
X211443271Y-85596595D01*
X211538509Y-85548976D01*
X211776604Y-85548976D01*
X211871842Y-85596595D01*
X211919461Y-85644214D01*
X211967080Y-85739452D01*
X211967080Y-86025166D01*
X211919461Y-86120404D01*
X211871842Y-86168023D01*
X210967080Y-84691833D02*
X210967080Y-84882309D01*
X211014700Y-84977547D01*
X211062319Y-85025166D01*
X211205176Y-85120404D01*
X211395652Y-85168023D01*
X211776604Y-85168023D01*
X211871842Y-85120404D01*
X211919461Y-85072785D01*
X211967080Y-84977547D01*
X211967080Y-84787071D01*
X211919461Y-84691833D01*
X211871842Y-84644214D01*
X211776604Y-84596595D01*
X211538509Y-84596595D01*
X211443271Y-84644214D01*
X211395652Y-84691833D01*
X211348033Y-84787071D01*
X211348033Y-84977547D01*
X211395652Y-85072785D01*
X211443271Y-85120404D01*
X211538509Y-85168023D01*
%TO.C,C37*%
X197609742Y-91581357D02*
X197657361Y-91628976D01*
X197704980Y-91771833D01*
X197704980Y-91867071D01*
X197657361Y-92009928D01*
X197562123Y-92105166D01*
X197466885Y-92152785D01*
X197276409Y-92200404D01*
X197133552Y-92200404D01*
X196943076Y-92152785D01*
X196847838Y-92105166D01*
X196752600Y-92009928D01*
X196704980Y-91867071D01*
X196704980Y-91771833D01*
X196752600Y-91628976D01*
X196800219Y-91581357D01*
X196704980Y-91248023D02*
X196704980Y-90628976D01*
X197085933Y-90962309D01*
X197085933Y-90819452D01*
X197133552Y-90724214D01*
X197181171Y-90676595D01*
X197276409Y-90628976D01*
X197514504Y-90628976D01*
X197609742Y-90676595D01*
X197657361Y-90724214D01*
X197704980Y-90819452D01*
X197704980Y-91105166D01*
X197657361Y-91200404D01*
X197609742Y-91248023D01*
X196704980Y-90295642D02*
X196704980Y-89628976D01*
X197704980Y-90057547D01*
%TO.C,C38*%
X149585442Y-126709442D02*
X149537823Y-126757061D01*
X149394966Y-126804680D01*
X149299728Y-126804680D01*
X149156871Y-126757061D01*
X149061633Y-126661823D01*
X149014014Y-126566585D01*
X148966395Y-126376109D01*
X148966395Y-126233252D01*
X149014014Y-126042776D01*
X149061633Y-125947538D01*
X149156871Y-125852300D01*
X149299728Y-125804680D01*
X149394966Y-125804680D01*
X149537823Y-125852300D01*
X149585442Y-125899919D01*
X149918776Y-125804680D02*
X150537823Y-125804680D01*
X150204490Y-126185633D01*
X150347347Y-126185633D01*
X150442585Y-126233252D01*
X150490204Y-126280871D01*
X150537823Y-126376109D01*
X150537823Y-126614204D01*
X150490204Y-126709442D01*
X150442585Y-126757061D01*
X150347347Y-126804680D01*
X150061633Y-126804680D01*
X149966395Y-126757061D01*
X149918776Y-126709442D01*
X151109252Y-126233252D02*
X151014014Y-126185633D01*
X150966395Y-126138014D01*
X150918776Y-126042776D01*
X150918776Y-125995157D01*
X150966395Y-125899919D01*
X151014014Y-125852300D01*
X151109252Y-125804680D01*
X151299728Y-125804680D01*
X151394966Y-125852300D01*
X151442585Y-125899919D01*
X151490204Y-125995157D01*
X151490204Y-126042776D01*
X151442585Y-126138014D01*
X151394966Y-126185633D01*
X151299728Y-126233252D01*
X151109252Y-126233252D01*
X151014014Y-126280871D01*
X150966395Y-126328490D01*
X150918776Y-126423728D01*
X150918776Y-126614204D01*
X150966395Y-126709442D01*
X151014014Y-126757061D01*
X151109252Y-126804680D01*
X151299728Y-126804680D01*
X151394966Y-126757061D01*
X151442585Y-126709442D01*
X151490204Y-126614204D01*
X151490204Y-126423728D01*
X151442585Y-126328490D01*
X151394966Y-126280871D01*
X151299728Y-126233252D01*
%TO.C,C39*%
X145267442Y-131319542D02*
X145219823Y-131367161D01*
X145076966Y-131414780D01*
X144981728Y-131414780D01*
X144838871Y-131367161D01*
X144743633Y-131271923D01*
X144696014Y-131176685D01*
X144648395Y-130986209D01*
X144648395Y-130843352D01*
X144696014Y-130652876D01*
X144743633Y-130557638D01*
X144838871Y-130462400D01*
X144981728Y-130414780D01*
X145076966Y-130414780D01*
X145219823Y-130462400D01*
X145267442Y-130510019D01*
X145600776Y-130414780D02*
X146219823Y-130414780D01*
X145886490Y-130795733D01*
X146029347Y-130795733D01*
X146124585Y-130843352D01*
X146172204Y-130890971D01*
X146219823Y-130986209D01*
X146219823Y-131224304D01*
X146172204Y-131319542D01*
X146124585Y-131367161D01*
X146029347Y-131414780D01*
X145743633Y-131414780D01*
X145648395Y-131367161D01*
X145600776Y-131319542D01*
X146696014Y-131414780D02*
X146886490Y-131414780D01*
X146981728Y-131367161D01*
X147029347Y-131319542D01*
X147124585Y-131176685D01*
X147172204Y-130986209D01*
X147172204Y-130605257D01*
X147124585Y-130510019D01*
X147076966Y-130462400D01*
X146981728Y-130414780D01*
X146791252Y-130414780D01*
X146696014Y-130462400D01*
X146648395Y-130510019D01*
X146600776Y-130605257D01*
X146600776Y-130843352D01*
X146648395Y-130938590D01*
X146696014Y-130986209D01*
X146791252Y-131033828D01*
X146981728Y-131033828D01*
X147076966Y-130986209D01*
X147124585Y-130938590D01*
X147172204Y-130843352D01*
%TO.C,C40*%
X155198842Y-128538242D02*
X155151223Y-128585861D01*
X155008366Y-128633480D01*
X154913128Y-128633480D01*
X154770271Y-128585861D01*
X154675033Y-128490623D01*
X154627414Y-128395385D01*
X154579795Y-128204909D01*
X154579795Y-128062052D01*
X154627414Y-127871576D01*
X154675033Y-127776338D01*
X154770271Y-127681100D01*
X154913128Y-127633480D01*
X155008366Y-127633480D01*
X155151223Y-127681100D01*
X155198842Y-127728719D01*
X156055985Y-127966814D02*
X156055985Y-128633480D01*
X155817890Y-127585861D02*
X155579795Y-128300147D01*
X156198842Y-128300147D01*
X156770271Y-127633480D02*
X156865509Y-127633480D01*
X156960747Y-127681100D01*
X157008366Y-127728719D01*
X157055985Y-127823957D01*
X157103604Y-128014433D01*
X157103604Y-128252528D01*
X157055985Y-128443004D01*
X157008366Y-128538242D01*
X156960747Y-128585861D01*
X156865509Y-128633480D01*
X156770271Y-128633480D01*
X156675033Y-128585861D01*
X156627414Y-128538242D01*
X156579795Y-128443004D01*
X156532176Y-128252528D01*
X156532176Y-128014433D01*
X156579795Y-127823957D01*
X156627414Y-127728719D01*
X156675033Y-127681100D01*
X156770271Y-127633480D01*
%TO.C,C41*%
X179481242Y-141758942D02*
X179433623Y-141806561D01*
X179290766Y-141854180D01*
X179195528Y-141854180D01*
X179052671Y-141806561D01*
X178957433Y-141711323D01*
X178909814Y-141616085D01*
X178862195Y-141425609D01*
X178862195Y-141282752D01*
X178909814Y-141092276D01*
X178957433Y-140997038D01*
X179052671Y-140901800D01*
X179195528Y-140854180D01*
X179290766Y-140854180D01*
X179433623Y-140901800D01*
X179481242Y-140949419D01*
X180338385Y-141187514D02*
X180338385Y-141854180D01*
X180100290Y-140806561D02*
X179862195Y-141520847D01*
X180481242Y-141520847D01*
X181386004Y-141854180D02*
X180814576Y-141854180D01*
X181100290Y-141854180D02*
X181100290Y-140854180D01*
X181005052Y-140997038D01*
X180909814Y-141092276D01*
X180814576Y-141139895D01*
%TO.C,C43*%
X172978842Y-133618242D02*
X172931223Y-133665861D01*
X172788366Y-133713480D01*
X172693128Y-133713480D01*
X172550271Y-133665861D01*
X172455033Y-133570623D01*
X172407414Y-133475385D01*
X172359795Y-133284909D01*
X172359795Y-133142052D01*
X172407414Y-132951576D01*
X172455033Y-132856338D01*
X172550271Y-132761100D01*
X172693128Y-132713480D01*
X172788366Y-132713480D01*
X172931223Y-132761100D01*
X172978842Y-132808719D01*
X173835985Y-133046814D02*
X173835985Y-133713480D01*
X173597890Y-132665861D02*
X173359795Y-133380147D01*
X173978842Y-133380147D01*
X174264557Y-132713480D02*
X174883604Y-132713480D01*
X174550271Y-133094433D01*
X174693128Y-133094433D01*
X174788366Y-133142052D01*
X174835985Y-133189671D01*
X174883604Y-133284909D01*
X174883604Y-133523004D01*
X174835985Y-133618242D01*
X174788366Y-133665861D01*
X174693128Y-133713480D01*
X174407414Y-133713480D01*
X174312176Y-133665861D01*
X174264557Y-133618242D01*
%TO.C,C44*%
X187558442Y-138241042D02*
X187510823Y-138288661D01*
X187367966Y-138336280D01*
X187272728Y-138336280D01*
X187129871Y-138288661D01*
X187034633Y-138193423D01*
X186987014Y-138098185D01*
X186939395Y-137907709D01*
X186939395Y-137764852D01*
X186987014Y-137574376D01*
X187034633Y-137479138D01*
X187129871Y-137383900D01*
X187272728Y-137336280D01*
X187367966Y-137336280D01*
X187510823Y-137383900D01*
X187558442Y-137431519D01*
X188415585Y-137669614D02*
X188415585Y-138336280D01*
X188177490Y-137288661D02*
X187939395Y-138002947D01*
X188558442Y-138002947D01*
X189367966Y-137669614D02*
X189367966Y-138336280D01*
X189129871Y-137288661D02*
X188891776Y-138002947D01*
X189510823Y-138002947D01*
%TO.C,D2*%
X154570204Y-123439180D02*
X154570204Y-122439180D01*
X154808300Y-122439180D01*
X154951157Y-122486800D01*
X155046395Y-122582038D01*
X155094014Y-122677276D01*
X155141633Y-122867752D01*
X155141633Y-123010609D01*
X155094014Y-123201085D01*
X155046395Y-123296323D01*
X154951157Y-123391561D01*
X154808300Y-123439180D01*
X154570204Y-123439180D01*
X155522585Y-122534419D02*
X155570204Y-122486800D01*
X155665442Y-122439180D01*
X155903538Y-122439180D01*
X155998776Y-122486800D01*
X156046395Y-122534419D01*
X156094014Y-122629657D01*
X156094014Y-122724895D01*
X156046395Y-122867752D01*
X155474966Y-123439180D01*
X156094014Y-123439180D01*
%TO.C,D3*%
X165644604Y-132087880D02*
X165644604Y-131087880D01*
X165882700Y-131087880D01*
X166025557Y-131135500D01*
X166120795Y-131230738D01*
X166168414Y-131325976D01*
X166216033Y-131516452D01*
X166216033Y-131659309D01*
X166168414Y-131849785D01*
X166120795Y-131945023D01*
X166025557Y-132040261D01*
X165882700Y-132087880D01*
X165644604Y-132087880D01*
X166549366Y-131087880D02*
X167168414Y-131087880D01*
X166835080Y-131468833D01*
X166977938Y-131468833D01*
X167073176Y-131516452D01*
X167120795Y-131564071D01*
X167168414Y-131659309D01*
X167168414Y-131897404D01*
X167120795Y-131992642D01*
X167073176Y-132040261D01*
X166977938Y-132087880D01*
X166692223Y-132087880D01*
X166596985Y-132040261D01*
X166549366Y-131992642D01*
%TO.C,D5*%
X149375904Y-152242780D02*
X149375904Y-151242780D01*
X149614000Y-151242780D01*
X149756857Y-151290400D01*
X149852095Y-151385638D01*
X149899714Y-151480876D01*
X149947333Y-151671352D01*
X149947333Y-151814209D01*
X149899714Y-152004685D01*
X149852095Y-152099923D01*
X149756857Y-152195161D01*
X149614000Y-152242780D01*
X149375904Y-152242780D01*
X150852095Y-151242780D02*
X150375904Y-151242780D01*
X150328285Y-151718971D01*
X150375904Y-151671352D01*
X150471142Y-151623733D01*
X150709238Y-151623733D01*
X150804476Y-151671352D01*
X150852095Y-151718971D01*
X150899714Y-151814209D01*
X150899714Y-152052304D01*
X150852095Y-152147542D01*
X150804476Y-152195161D01*
X150709238Y-152242780D01*
X150471142Y-152242780D01*
X150375904Y-152195161D01*
X150328285Y-152147542D01*
%TO.C,D6*%
X149299704Y-149156680D02*
X149299704Y-148156680D01*
X149537800Y-148156680D01*
X149680657Y-148204300D01*
X149775895Y-148299538D01*
X149823514Y-148394776D01*
X149871133Y-148585252D01*
X149871133Y-148728109D01*
X149823514Y-148918585D01*
X149775895Y-149013823D01*
X149680657Y-149109061D01*
X149537800Y-149156680D01*
X149299704Y-149156680D01*
X150728276Y-148156680D02*
X150537800Y-148156680D01*
X150442561Y-148204300D01*
X150394942Y-148251919D01*
X150299704Y-148394776D01*
X150252085Y-148585252D01*
X150252085Y-148966204D01*
X150299704Y-149061442D01*
X150347323Y-149109061D01*
X150442561Y-149156680D01*
X150633038Y-149156680D01*
X150728276Y-149109061D01*
X150775895Y-149061442D01*
X150823514Y-148966204D01*
X150823514Y-148728109D01*
X150775895Y-148632871D01*
X150728276Y-148585252D01*
X150633038Y-148537633D01*
X150442561Y-148537633D01*
X150347323Y-148585252D01*
X150299704Y-148632871D01*
X150252085Y-148728109D01*
%TO.C,D7*%
X149414004Y-146273780D02*
X149414004Y-145273780D01*
X149652100Y-145273780D01*
X149794957Y-145321400D01*
X149890195Y-145416638D01*
X149937814Y-145511876D01*
X149985433Y-145702352D01*
X149985433Y-145845209D01*
X149937814Y-146035685D01*
X149890195Y-146130923D01*
X149794957Y-146226161D01*
X149652100Y-146273780D01*
X149414004Y-146273780D01*
X150318766Y-145273780D02*
X150985433Y-145273780D01*
X150556861Y-146273780D01*
%TO.C,D8*%
X175057744Y-95205120D02*
X175057744Y-94205120D01*
X175295840Y-94205120D01*
X175438697Y-94252740D01*
X175533935Y-94347978D01*
X175581554Y-94443216D01*
X175629173Y-94633692D01*
X175629173Y-94776549D01*
X175581554Y-94967025D01*
X175533935Y-95062263D01*
X175438697Y-95157501D01*
X175295840Y-95205120D01*
X175057744Y-95205120D01*
X176200601Y-94633692D02*
X176105363Y-94586073D01*
X176057744Y-94538454D01*
X176010125Y-94443216D01*
X176010125Y-94395597D01*
X176057744Y-94300359D01*
X176105363Y-94252740D01*
X176200601Y-94205120D01*
X176391078Y-94205120D01*
X176486316Y-94252740D01*
X176533935Y-94300359D01*
X176581554Y-94395597D01*
X176581554Y-94443216D01*
X176533935Y-94538454D01*
X176486316Y-94586073D01*
X176391078Y-94633692D01*
X176200601Y-94633692D01*
X176105363Y-94681311D01*
X176057744Y-94728930D01*
X176010125Y-94824168D01*
X176010125Y-95014644D01*
X176057744Y-95109882D01*
X176105363Y-95157501D01*
X176200601Y-95205120D01*
X176391078Y-95205120D01*
X176486316Y-95157501D01*
X176533935Y-95109882D01*
X176581554Y-95014644D01*
X176581554Y-94824168D01*
X176533935Y-94728930D01*
X176486316Y-94681311D01*
X176391078Y-94633692D01*
%TO.C,D9*%
X175019644Y-97135520D02*
X175019644Y-96135520D01*
X175257740Y-96135520D01*
X175400597Y-96183140D01*
X175495835Y-96278378D01*
X175543454Y-96373616D01*
X175591073Y-96564092D01*
X175591073Y-96706949D01*
X175543454Y-96897425D01*
X175495835Y-96992663D01*
X175400597Y-97087901D01*
X175257740Y-97135520D01*
X175019644Y-97135520D01*
X176067263Y-97135520D02*
X176257740Y-97135520D01*
X176352978Y-97087901D01*
X176400597Y-97040282D01*
X176495835Y-96897425D01*
X176543454Y-96706949D01*
X176543454Y-96325997D01*
X176495835Y-96230759D01*
X176448216Y-96183140D01*
X176352978Y-96135520D01*
X176162501Y-96135520D01*
X176067263Y-96183140D01*
X176019644Y-96230759D01*
X175972025Y-96325997D01*
X175972025Y-96564092D01*
X176019644Y-96659330D01*
X176067263Y-96706949D01*
X176162501Y-96754568D01*
X176352978Y-96754568D01*
X176448216Y-96706949D01*
X176495835Y-96659330D01*
X176543454Y-96564092D01*
%TO.C,D10*%
X174010054Y-98862720D02*
X174010054Y-97862720D01*
X174248149Y-97862720D01*
X174391006Y-97910340D01*
X174486244Y-98005578D01*
X174533863Y-98100816D01*
X174581482Y-98291292D01*
X174581482Y-98434149D01*
X174533863Y-98624625D01*
X174486244Y-98719863D01*
X174391006Y-98815101D01*
X174248149Y-98862720D01*
X174010054Y-98862720D01*
X175533863Y-98862720D02*
X174962435Y-98862720D01*
X175248149Y-98862720D02*
X175248149Y-97862720D01*
X175152911Y-98005578D01*
X175057673Y-98100816D01*
X174962435Y-98148435D01*
X176152911Y-97862720D02*
X176248149Y-97862720D01*
X176343387Y-97910340D01*
X176391006Y-97957959D01*
X176438625Y-98053197D01*
X176486244Y-98243673D01*
X176486244Y-98481768D01*
X176438625Y-98672244D01*
X176391006Y-98767482D01*
X176343387Y-98815101D01*
X176248149Y-98862720D01*
X176152911Y-98862720D01*
X176057673Y-98815101D01*
X176010054Y-98767482D01*
X175962435Y-98672244D01*
X175914816Y-98481768D01*
X175914816Y-98243673D01*
X175962435Y-98053197D01*
X176010054Y-97957959D01*
X176057673Y-97910340D01*
X176152911Y-97862720D01*
%TO.C,D11*%
X149180014Y-67556500D02*
X149180014Y-66556500D01*
X149418109Y-66556500D01*
X149560966Y-66604120D01*
X149656204Y-66699358D01*
X149703823Y-66794596D01*
X149751442Y-66985072D01*
X149751442Y-67127929D01*
X149703823Y-67318405D01*
X149656204Y-67413643D01*
X149560966Y-67508881D01*
X149418109Y-67556500D01*
X149180014Y-67556500D01*
X150703823Y-67556500D02*
X150132395Y-67556500D01*
X150418109Y-67556500D02*
X150418109Y-66556500D01*
X150322871Y-66699358D01*
X150227633Y-66794596D01*
X150132395Y-66842215D01*
X151656204Y-67556500D02*
X151084776Y-67556500D01*
X151370490Y-67556500D02*
X151370490Y-66556500D01*
X151275252Y-66699358D01*
X151180014Y-66794596D01*
X151084776Y-66842215D01*
%TO.C,D12*%
X149185714Y-69652380D02*
X149185714Y-68652380D01*
X149423809Y-68652380D01*
X149566666Y-68700000D01*
X149661904Y-68795238D01*
X149709523Y-68890476D01*
X149757142Y-69080952D01*
X149757142Y-69223809D01*
X149709523Y-69414285D01*
X149661904Y-69509523D01*
X149566666Y-69604761D01*
X149423809Y-69652380D01*
X149185714Y-69652380D01*
X150709523Y-69652380D02*
X150138095Y-69652380D01*
X150423809Y-69652380D02*
X150423809Y-68652380D01*
X150328571Y-68795238D01*
X150233333Y-68890476D01*
X150138095Y-68938095D01*
X151090476Y-68747619D02*
X151138095Y-68700000D01*
X151233333Y-68652380D01*
X151471428Y-68652380D01*
X151566666Y-68700000D01*
X151614285Y-68747619D01*
X151661904Y-68842857D01*
X151661904Y-68938095D01*
X151614285Y-69080952D01*
X151042857Y-69652380D01*
X151661904Y-69652380D01*
%TO.C,D13*%
X148967314Y-71319000D02*
X148967314Y-70319000D01*
X149205409Y-70319000D01*
X149348266Y-70366620D01*
X149443504Y-70461858D01*
X149491123Y-70557096D01*
X149538742Y-70747572D01*
X149538742Y-70890429D01*
X149491123Y-71080905D01*
X149443504Y-71176143D01*
X149348266Y-71271381D01*
X149205409Y-71319000D01*
X148967314Y-71319000D01*
X150491123Y-71319000D02*
X149919695Y-71319000D01*
X150205409Y-71319000D02*
X150205409Y-70319000D01*
X150110171Y-70461858D01*
X150014933Y-70557096D01*
X149919695Y-70604715D01*
X150824457Y-70319000D02*
X151443504Y-70319000D01*
X151110171Y-70699953D01*
X151253028Y-70699953D01*
X151348266Y-70747572D01*
X151395885Y-70795191D01*
X151443504Y-70890429D01*
X151443504Y-71128524D01*
X151395885Y-71223762D01*
X151348266Y-71271381D01*
X151253028Y-71319000D01*
X150967314Y-71319000D01*
X150872076Y-71271381D01*
X150824457Y-71223762D01*
%TO.C,L1*%
X195073733Y-116687180D02*
X194597542Y-116687180D01*
X194597542Y-115687180D01*
X195930876Y-116687180D02*
X195359447Y-116687180D01*
X195645161Y-116687180D02*
X195645161Y-115687180D01*
X195549923Y-115830038D01*
X195454685Y-115925276D01*
X195359447Y-115972895D01*
%TO.C,L2*%
X157333333Y-122352380D02*
X156857142Y-122352380D01*
X156857142Y-121352380D01*
X157619047Y-121447619D02*
X157666666Y-121400000D01*
X157761904Y-121352380D01*
X158000000Y-121352380D01*
X158095238Y-121400000D01*
X158142857Y-121447619D01*
X158190476Y-121542857D01*
X158190476Y-121638095D01*
X158142857Y-121780952D01*
X157571428Y-122352380D01*
X158190476Y-122352380D01*
%TO.C,L5*%
D15*
X192713313Y-67208660D02*
X192237122Y-67208660D01*
X192237122Y-66208660D01*
X193522837Y-66208660D02*
X193046646Y-66208660D01*
X192999027Y-66684851D01*
X193046646Y-66637232D01*
X193141884Y-66589613D01*
X193379980Y-66589613D01*
X193475218Y-66637232D01*
X193522837Y-66684851D01*
X193570456Y-66780089D01*
X193570456Y-67018184D01*
X193522837Y-67113422D01*
X193475218Y-67161041D01*
X193379980Y-67208660D01*
X193141884Y-67208660D01*
X193046646Y-67161041D01*
X192999027Y-67113422D01*
%TO.C,L6*%
X198200280Y-85720366D02*
X198200280Y-86196557D01*
X197200280Y-86196557D01*
X197200280Y-84958461D02*
X197200280Y-85148938D01*
X197247900Y-85244176D01*
X197295519Y-85291795D01*
X197438376Y-85387033D01*
X197628852Y-85434652D01*
X198009804Y-85434652D01*
X198105042Y-85387033D01*
X198152661Y-85339414D01*
X198200280Y-85244176D01*
X198200280Y-85053700D01*
X198152661Y-84958461D01*
X198105042Y-84910842D01*
X198009804Y-84863223D01*
X197771709Y-84863223D01*
X197676471Y-84910842D01*
X197628852Y-84958461D01*
X197581233Y-85053700D01*
X197581233Y-85244176D01*
X197628852Y-85339414D01*
X197676471Y-85387033D01*
X197771709Y-85434652D01*
%TO.C,L7*%
D10*
X139507933Y-116847880D02*
X139031742Y-116847880D01*
X139031742Y-115847880D01*
X139746028Y-115847880D02*
X140412695Y-115847880D01*
X139984123Y-116847880D01*
%TO.C,L8*%
X167206633Y-146438880D02*
X166730442Y-146438880D01*
X166730442Y-145438880D01*
X167682823Y-145867452D02*
X167587585Y-145819833D01*
X167539966Y-145772214D01*
X167492347Y-145676976D01*
X167492347Y-145629357D01*
X167539966Y-145534119D01*
X167587585Y-145486500D01*
X167682823Y-145438880D01*
X167873300Y-145438880D01*
X167968538Y-145486500D01*
X168016157Y-145534119D01*
X168063776Y-145629357D01*
X168063776Y-145676976D01*
X168016157Y-145772214D01*
X167968538Y-145819833D01*
X167873300Y-145867452D01*
X167682823Y-145867452D01*
X167587585Y-145915071D01*
X167539966Y-145962690D01*
X167492347Y-146057928D01*
X167492347Y-146248404D01*
X167539966Y-146343642D01*
X167587585Y-146391261D01*
X167682823Y-146438880D01*
X167873300Y-146438880D01*
X167968538Y-146391261D01*
X168016157Y-146343642D01*
X168063776Y-146248404D01*
X168063776Y-146057928D01*
X168016157Y-145962690D01*
X167968538Y-145915071D01*
X167873300Y-145867452D01*
%TO.C,R1*%
X183146533Y-103019780D02*
X182813200Y-102543590D01*
X182575104Y-103019780D02*
X182575104Y-102019780D01*
X182956057Y-102019780D01*
X183051295Y-102067400D01*
X183098914Y-102115019D01*
X183146533Y-102210257D01*
X183146533Y-102353114D01*
X183098914Y-102448352D01*
X183051295Y-102495971D01*
X182956057Y-102543590D01*
X182575104Y-102543590D01*
X184098914Y-103019780D02*
X183527485Y-103019780D01*
X183813200Y-103019780D02*
X183813200Y-102019780D01*
X183717961Y-102162638D01*
X183622723Y-102257876D01*
X183527485Y-102305495D01*
%TO.C,R2*%
X179133333Y-108552380D02*
X178800000Y-108076190D01*
X178561904Y-108552380D02*
X178561904Y-107552380D01*
X178942857Y-107552380D01*
X179038095Y-107600000D01*
X179085714Y-107647619D01*
X179133333Y-107742857D01*
X179133333Y-107885714D01*
X179085714Y-107980952D01*
X179038095Y-108028571D01*
X178942857Y-108076190D01*
X178561904Y-108076190D01*
X179514285Y-107647619D02*
X179561904Y-107600000D01*
X179657142Y-107552380D01*
X179895238Y-107552380D01*
X179990476Y-107600000D01*
X180038095Y-107647619D01*
X180085714Y-107742857D01*
X180085714Y-107838095D01*
X180038095Y-107980952D01*
X179466666Y-108552380D01*
X180085714Y-108552380D01*
%TO.C,R3*%
X185831133Y-101617980D02*
X185497800Y-101141790D01*
X185259704Y-101617980D02*
X185259704Y-100617980D01*
X185640657Y-100617980D01*
X185735895Y-100665600D01*
X185783514Y-100713219D01*
X185831133Y-100808457D01*
X185831133Y-100951314D01*
X185783514Y-101046552D01*
X185735895Y-101094171D01*
X185640657Y-101141790D01*
X185259704Y-101141790D01*
X186164466Y-100617980D02*
X186783514Y-100617980D01*
X186450180Y-100998933D01*
X186593038Y-100998933D01*
X186688276Y-101046552D01*
X186735895Y-101094171D01*
X186783514Y-101189409D01*
X186783514Y-101427504D01*
X186735895Y-101522742D01*
X186688276Y-101570361D01*
X186593038Y-101617980D01*
X186307323Y-101617980D01*
X186212085Y-101570361D01*
X186164466Y-101522742D01*
%TO.C,R4*%
X183165733Y-120614880D02*
X182832400Y-120138690D01*
X182594304Y-120614880D02*
X182594304Y-119614880D01*
X182975257Y-119614880D01*
X183070495Y-119662500D01*
X183118114Y-119710119D01*
X183165733Y-119805357D01*
X183165733Y-119948214D01*
X183118114Y-120043452D01*
X183070495Y-120091071D01*
X182975257Y-120138690D01*
X182594304Y-120138690D01*
X184022876Y-119948214D02*
X184022876Y-120614880D01*
X183784780Y-119567261D02*
X183546685Y-120281547D01*
X184165733Y-120281547D01*
%TO.C,R5*%
X178149233Y-114582380D02*
X177815900Y-114106190D01*
X177577804Y-114582380D02*
X177577804Y-113582380D01*
X177958757Y-113582380D01*
X178053995Y-113630000D01*
X178101614Y-113677619D01*
X178149233Y-113772857D01*
X178149233Y-113915714D01*
X178101614Y-114010952D01*
X178053995Y-114058571D01*
X177958757Y-114106190D01*
X177577804Y-114106190D01*
X179053995Y-113582380D02*
X178577804Y-113582380D01*
X178530185Y-114058571D01*
X178577804Y-114010952D01*
X178673042Y-113963333D01*
X178911138Y-113963333D01*
X179006376Y-114010952D01*
X179053995Y-114058571D01*
X179101614Y-114153809D01*
X179101614Y-114391904D01*
X179053995Y-114487142D01*
X179006376Y-114534761D01*
X178911138Y-114582380D01*
X178673042Y-114582380D01*
X178577804Y-114534761D01*
X178530185Y-114487142D01*
%TO.C,R6*%
X171954933Y-110862280D02*
X171621600Y-110386090D01*
X171383504Y-110862280D02*
X171383504Y-109862280D01*
X171764457Y-109862280D01*
X171859695Y-109909900D01*
X171907314Y-109957519D01*
X171954933Y-110052757D01*
X171954933Y-110195614D01*
X171907314Y-110290852D01*
X171859695Y-110338471D01*
X171764457Y-110386090D01*
X171383504Y-110386090D01*
X172812076Y-109862280D02*
X172621600Y-109862280D01*
X172526361Y-109909900D01*
X172478742Y-109957519D01*
X172383504Y-110100376D01*
X172335885Y-110290852D01*
X172335885Y-110671804D01*
X172383504Y-110767042D01*
X172431123Y-110814661D01*
X172526361Y-110862280D01*
X172716838Y-110862280D01*
X172812076Y-110814661D01*
X172859695Y-110767042D01*
X172907314Y-110671804D01*
X172907314Y-110433709D01*
X172859695Y-110338471D01*
X172812076Y-110290852D01*
X172716838Y-110243233D01*
X172526361Y-110243233D01*
X172431123Y-110290852D01*
X172383504Y-110338471D01*
X172335885Y-110433709D01*
%TO.C,R7*%
X178098433Y-111762980D02*
X177765100Y-111286790D01*
X177527004Y-111762980D02*
X177527004Y-110762980D01*
X177907957Y-110762980D01*
X178003195Y-110810600D01*
X178050814Y-110858219D01*
X178098433Y-110953457D01*
X178098433Y-111096314D01*
X178050814Y-111191552D01*
X178003195Y-111239171D01*
X177907957Y-111286790D01*
X177527004Y-111286790D01*
X178431766Y-110762980D02*
X179098433Y-110762980D01*
X178669861Y-111762980D01*
%TO.C,R13*%
X169475042Y-109075480D02*
X169141709Y-108599290D01*
X168903614Y-109075480D02*
X168903614Y-108075480D01*
X169284566Y-108075480D01*
X169379804Y-108123100D01*
X169427423Y-108170719D01*
X169475042Y-108265957D01*
X169475042Y-108408814D01*
X169427423Y-108504052D01*
X169379804Y-108551671D01*
X169284566Y-108599290D01*
X168903614Y-108599290D01*
X170427423Y-109075480D02*
X169855995Y-109075480D01*
X170141709Y-109075480D02*
X170141709Y-108075480D01*
X170046471Y-108218338D01*
X169951233Y-108313576D01*
X169855995Y-108361195D01*
X170760757Y-108075480D02*
X171379804Y-108075480D01*
X171046471Y-108456433D01*
X171189328Y-108456433D01*
X171284566Y-108504052D01*
X171332185Y-108551671D01*
X171379804Y-108646909D01*
X171379804Y-108885004D01*
X171332185Y-108980242D01*
X171284566Y-109027861D01*
X171189328Y-109075480D01*
X170903614Y-109075480D01*
X170808376Y-109027861D01*
X170760757Y-108980242D01*
%TO.C,R14*%
X182876742Y-122608780D02*
X182543409Y-122132590D01*
X182305314Y-122608780D02*
X182305314Y-121608780D01*
X182686266Y-121608780D01*
X182781504Y-121656400D01*
X182829123Y-121704019D01*
X182876742Y-121799257D01*
X182876742Y-121942114D01*
X182829123Y-122037352D01*
X182781504Y-122084971D01*
X182686266Y-122132590D01*
X182305314Y-122132590D01*
X183829123Y-122608780D02*
X183257695Y-122608780D01*
X183543409Y-122608780D02*
X183543409Y-121608780D01*
X183448171Y-121751638D01*
X183352933Y-121846876D01*
X183257695Y-121894495D01*
X184686266Y-121942114D02*
X184686266Y-122608780D01*
X184448171Y-121561161D02*
X184210076Y-122275447D01*
X184829123Y-122275447D01*
%TO.C,R15*%
X153179542Y-102573080D02*
X152846209Y-102096890D01*
X152608114Y-102573080D02*
X152608114Y-101573080D01*
X152989066Y-101573080D01*
X153084304Y-101620700D01*
X153131923Y-101668319D01*
X153179542Y-101763557D01*
X153179542Y-101906414D01*
X153131923Y-102001652D01*
X153084304Y-102049271D01*
X152989066Y-102096890D01*
X152608114Y-102096890D01*
X154131923Y-102573080D02*
X153560495Y-102573080D01*
X153846209Y-102573080D02*
X153846209Y-101573080D01*
X153750971Y-101715938D01*
X153655733Y-101811176D01*
X153560495Y-101858795D01*
X155036685Y-101573080D02*
X154560495Y-101573080D01*
X154512876Y-102049271D01*
X154560495Y-102001652D01*
X154655733Y-101954033D01*
X154893828Y-101954033D01*
X154989066Y-102001652D01*
X155036685Y-102049271D01*
X155084304Y-102144509D01*
X155084304Y-102382604D01*
X155036685Y-102477842D01*
X154989066Y-102525461D01*
X154893828Y-102573080D01*
X154655733Y-102573080D01*
X154560495Y-102525461D01*
X154512876Y-102477842D01*
%TO.C,R16*%
X176657142Y-102852380D02*
X176323809Y-102376190D01*
X176085714Y-102852380D02*
X176085714Y-101852380D01*
X176466666Y-101852380D01*
X176561904Y-101900000D01*
X176609523Y-101947619D01*
X176657142Y-102042857D01*
X176657142Y-102185714D01*
X176609523Y-102280952D01*
X176561904Y-102328571D01*
X176466666Y-102376190D01*
X176085714Y-102376190D01*
X177609523Y-102852380D02*
X177038095Y-102852380D01*
X177323809Y-102852380D02*
X177323809Y-101852380D01*
X177228571Y-101995238D01*
X177133333Y-102090476D01*
X177038095Y-102138095D01*
X178466666Y-101852380D02*
X178276190Y-101852380D01*
X178180952Y-101900000D01*
X178133333Y-101947619D01*
X178038095Y-102090476D01*
X177990476Y-102280952D01*
X177990476Y-102661904D01*
X178038095Y-102757142D01*
X178085714Y-102804761D01*
X178180952Y-102852380D01*
X178371428Y-102852380D01*
X178466666Y-102804761D01*
X178514285Y-102757142D01*
X178561904Y-102661904D01*
X178561904Y-102423809D01*
X178514285Y-102328571D01*
X178466666Y-102280952D01*
X178371428Y-102233333D01*
X178180952Y-102233333D01*
X178085714Y-102280952D01*
X178038095Y-102328571D01*
X177990476Y-102423809D01*
%TO.C,R17*%
X169702242Y-77439780D02*
X169368909Y-76963590D01*
X169130814Y-77439780D02*
X169130814Y-76439780D01*
X169511766Y-76439780D01*
X169607004Y-76487400D01*
X169654623Y-76535019D01*
X169702242Y-76630257D01*
X169702242Y-76773114D01*
X169654623Y-76868352D01*
X169607004Y-76915971D01*
X169511766Y-76963590D01*
X169130814Y-76963590D01*
X170654623Y-77439780D02*
X170083195Y-77439780D01*
X170368909Y-77439780D02*
X170368909Y-76439780D01*
X170273671Y-76582638D01*
X170178433Y-76677876D01*
X170083195Y-76725495D01*
X170987957Y-76439780D02*
X171654623Y-76439780D01*
X171226052Y-77439780D01*
%TO.C,R18*%
X176141142Y-66454280D02*
X175807809Y-65978090D01*
X175569714Y-66454280D02*
X175569714Y-65454280D01*
X175950666Y-65454280D01*
X176045904Y-65501900D01*
X176093523Y-65549519D01*
X176141142Y-65644757D01*
X176141142Y-65787614D01*
X176093523Y-65882852D01*
X176045904Y-65930471D01*
X175950666Y-65978090D01*
X175569714Y-65978090D01*
X177093523Y-66454280D02*
X176522095Y-66454280D01*
X176807809Y-66454280D02*
X176807809Y-65454280D01*
X176712571Y-65597138D01*
X176617333Y-65692376D01*
X176522095Y-65739995D01*
X177664952Y-65882852D02*
X177569714Y-65835233D01*
X177522095Y-65787614D01*
X177474476Y-65692376D01*
X177474476Y-65644757D01*
X177522095Y-65549519D01*
X177569714Y-65501900D01*
X177664952Y-65454280D01*
X177855428Y-65454280D01*
X177950666Y-65501900D01*
X177998285Y-65549519D01*
X178045904Y-65644757D01*
X178045904Y-65692376D01*
X177998285Y-65787614D01*
X177950666Y-65835233D01*
X177855428Y-65882852D01*
X177664952Y-65882852D01*
X177569714Y-65930471D01*
X177522095Y-65978090D01*
X177474476Y-66073328D01*
X177474476Y-66263804D01*
X177522095Y-66359042D01*
X177569714Y-66406661D01*
X177664952Y-66454280D01*
X177855428Y-66454280D01*
X177950666Y-66406661D01*
X177998285Y-66359042D01*
X178045904Y-66263804D01*
X178045904Y-66073328D01*
X177998285Y-65978090D01*
X177950666Y-65930471D01*
X177855428Y-65882852D01*
%TO.C,R19*%
X169786062Y-69855340D02*
X169452729Y-69379150D01*
X169214634Y-69855340D02*
X169214634Y-68855340D01*
X169595586Y-68855340D01*
X169690824Y-68902960D01*
X169738443Y-68950579D01*
X169786062Y-69045817D01*
X169786062Y-69188674D01*
X169738443Y-69283912D01*
X169690824Y-69331531D01*
X169595586Y-69379150D01*
X169214634Y-69379150D01*
X170738443Y-69855340D02*
X170167015Y-69855340D01*
X170452729Y-69855340D02*
X170452729Y-68855340D01*
X170357491Y-68998198D01*
X170262253Y-69093436D01*
X170167015Y-69141055D01*
X171214634Y-69855340D02*
X171405110Y-69855340D01*
X171500348Y-69807721D01*
X171547967Y-69760102D01*
X171643205Y-69617245D01*
X171690824Y-69426769D01*
X171690824Y-69045817D01*
X171643205Y-68950579D01*
X171595586Y-68902960D01*
X171500348Y-68855340D01*
X171309872Y-68855340D01*
X171214634Y-68902960D01*
X171167015Y-68950579D01*
X171119396Y-69045817D01*
X171119396Y-69283912D01*
X171167015Y-69379150D01*
X171214634Y-69426769D01*
X171309872Y-69474388D01*
X171500348Y-69474388D01*
X171595586Y-69426769D01*
X171643205Y-69379150D01*
X171690824Y-69283912D01*
%TO.C,R20*%
X184573942Y-72131180D02*
X184240609Y-71654990D01*
X184002514Y-72131180D02*
X184002514Y-71131180D01*
X184383466Y-71131180D01*
X184478704Y-71178800D01*
X184526323Y-71226419D01*
X184573942Y-71321657D01*
X184573942Y-71464514D01*
X184526323Y-71559752D01*
X184478704Y-71607371D01*
X184383466Y-71654990D01*
X184002514Y-71654990D01*
X184954895Y-71226419D02*
X185002514Y-71178800D01*
X185097752Y-71131180D01*
X185335847Y-71131180D01*
X185431085Y-71178800D01*
X185478704Y-71226419D01*
X185526323Y-71321657D01*
X185526323Y-71416895D01*
X185478704Y-71559752D01*
X184907276Y-72131180D01*
X185526323Y-72131180D01*
X186145371Y-71131180D02*
X186240609Y-71131180D01*
X186335847Y-71178800D01*
X186383466Y-71226419D01*
X186431085Y-71321657D01*
X186478704Y-71512133D01*
X186478704Y-71750228D01*
X186431085Y-71940704D01*
X186383466Y-72035942D01*
X186335847Y-72083561D01*
X186240609Y-72131180D01*
X186145371Y-72131180D01*
X186050133Y-72083561D01*
X186002514Y-72035942D01*
X185954895Y-71940704D01*
X185907276Y-71750228D01*
X185907276Y-71512133D01*
X185954895Y-71321657D01*
X186002514Y-71226419D01*
X186050133Y-71178800D01*
X186145371Y-71131180D01*
%TO.C,R21*%
X184485042Y-74188580D02*
X184151709Y-73712390D01*
X183913614Y-74188580D02*
X183913614Y-73188580D01*
X184294566Y-73188580D01*
X184389804Y-73236200D01*
X184437423Y-73283819D01*
X184485042Y-73379057D01*
X184485042Y-73521914D01*
X184437423Y-73617152D01*
X184389804Y-73664771D01*
X184294566Y-73712390D01*
X183913614Y-73712390D01*
X184865995Y-73283819D02*
X184913614Y-73236200D01*
X185008852Y-73188580D01*
X185246947Y-73188580D01*
X185342185Y-73236200D01*
X185389804Y-73283819D01*
X185437423Y-73379057D01*
X185437423Y-73474295D01*
X185389804Y-73617152D01*
X184818376Y-74188580D01*
X185437423Y-74188580D01*
X186389804Y-74188580D02*
X185818376Y-74188580D01*
X186104090Y-74188580D02*
X186104090Y-73188580D01*
X186008852Y-73331438D01*
X185913614Y-73426676D01*
X185818376Y-73474295D01*
%TO.C,R22*%
X210738482Y-64120020D02*
X210405149Y-63643830D01*
X210167054Y-64120020D02*
X210167054Y-63120020D01*
X210548006Y-63120020D01*
X210643244Y-63167640D01*
X210690863Y-63215259D01*
X210738482Y-63310497D01*
X210738482Y-63453354D01*
X210690863Y-63548592D01*
X210643244Y-63596211D01*
X210548006Y-63643830D01*
X210167054Y-63643830D01*
X211119435Y-63215259D02*
X211167054Y-63167640D01*
X211262292Y-63120020D01*
X211500387Y-63120020D01*
X211595625Y-63167640D01*
X211643244Y-63215259D01*
X211690863Y-63310497D01*
X211690863Y-63405735D01*
X211643244Y-63548592D01*
X211071816Y-64120020D01*
X211690863Y-64120020D01*
X212071816Y-63215259D02*
X212119435Y-63167640D01*
X212214673Y-63120020D01*
X212452768Y-63120020D01*
X212548006Y-63167640D01*
X212595625Y-63215259D01*
X212643244Y-63310497D01*
X212643244Y-63405735D01*
X212595625Y-63548592D01*
X212024197Y-64120020D01*
X212643244Y-64120020D01*
%TO.C,R23*%
X207309482Y-61440320D02*
X206976149Y-60964130D01*
X206738054Y-61440320D02*
X206738054Y-60440320D01*
X207119006Y-60440320D01*
X207214244Y-60487940D01*
X207261863Y-60535559D01*
X207309482Y-60630797D01*
X207309482Y-60773654D01*
X207261863Y-60868892D01*
X207214244Y-60916511D01*
X207119006Y-60964130D01*
X206738054Y-60964130D01*
X207690435Y-60535559D02*
X207738054Y-60487940D01*
X207833292Y-60440320D01*
X208071387Y-60440320D01*
X208166625Y-60487940D01*
X208214244Y-60535559D01*
X208261863Y-60630797D01*
X208261863Y-60726035D01*
X208214244Y-60868892D01*
X207642816Y-61440320D01*
X208261863Y-61440320D01*
X208595197Y-60440320D02*
X209214244Y-60440320D01*
X208880911Y-60821273D01*
X209023768Y-60821273D01*
X209119006Y-60868892D01*
X209166625Y-60916511D01*
X209214244Y-61011749D01*
X209214244Y-61249844D01*
X209166625Y-61345082D01*
X209119006Y-61392701D01*
X209023768Y-61440320D01*
X208738054Y-61440320D01*
X208642816Y-61392701D01*
X208595197Y-61345082D01*
%TO.C,R24*%
X205959980Y-102820857D02*
X205483790Y-103154190D01*
X205959980Y-103392285D02*
X204959980Y-103392285D01*
X204959980Y-103011333D01*
X205007600Y-102916095D01*
X205055219Y-102868476D01*
X205150457Y-102820857D01*
X205293314Y-102820857D01*
X205388552Y-102868476D01*
X205436171Y-102916095D01*
X205483790Y-103011333D01*
X205483790Y-103392285D01*
X205055219Y-102439904D02*
X205007600Y-102392285D01*
X204959980Y-102297047D01*
X204959980Y-102058952D01*
X205007600Y-101963714D01*
X205055219Y-101916095D01*
X205150457Y-101868476D01*
X205245695Y-101868476D01*
X205388552Y-101916095D01*
X205959980Y-102487523D01*
X205959980Y-101868476D01*
X205293314Y-101011333D02*
X205959980Y-101011333D01*
X204912361Y-101249428D02*
X205626647Y-101487523D01*
X205626647Y-100868476D01*
%TO.C,R25*%
X203940680Y-101855657D02*
X203464490Y-102188990D01*
X203940680Y-102427085D02*
X202940680Y-102427085D01*
X202940680Y-102046133D01*
X202988300Y-101950895D01*
X203035919Y-101903276D01*
X203131157Y-101855657D01*
X203274014Y-101855657D01*
X203369252Y-101903276D01*
X203416871Y-101950895D01*
X203464490Y-102046133D01*
X203464490Y-102427085D01*
X203035919Y-101474704D02*
X202988300Y-101427085D01*
X202940680Y-101331847D01*
X202940680Y-101093752D01*
X202988300Y-100998514D01*
X203035919Y-100950895D01*
X203131157Y-100903276D01*
X203226395Y-100903276D01*
X203369252Y-100950895D01*
X203940680Y-101522323D01*
X203940680Y-100903276D01*
X202940680Y-99998514D02*
X202940680Y-100474704D01*
X203416871Y-100522323D01*
X203369252Y-100474704D01*
X203321633Y-100379466D01*
X203321633Y-100141371D01*
X203369252Y-100046133D01*
X203416871Y-99998514D01*
X203512109Y-99950895D01*
X203750204Y-99950895D01*
X203845442Y-99998514D01*
X203893061Y-100046133D01*
X203940680Y-100141371D01*
X203940680Y-100379466D01*
X203893061Y-100474704D01*
X203845442Y-100522323D01*
%TO.C,R26*%
X196657142Y-96652380D02*
X196323809Y-96176190D01*
X196085714Y-96652380D02*
X196085714Y-95652380D01*
X196466666Y-95652380D01*
X196561904Y-95700000D01*
X196609523Y-95747619D01*
X196657142Y-95842857D01*
X196657142Y-95985714D01*
X196609523Y-96080952D01*
X196561904Y-96128571D01*
X196466666Y-96176190D01*
X196085714Y-96176190D01*
X197038095Y-95747619D02*
X197085714Y-95700000D01*
X197180952Y-95652380D01*
X197419047Y-95652380D01*
X197514285Y-95700000D01*
X197561904Y-95747619D01*
X197609523Y-95842857D01*
X197609523Y-95938095D01*
X197561904Y-96080952D01*
X196990476Y-96652380D01*
X197609523Y-96652380D01*
X198466666Y-95652380D02*
X198276190Y-95652380D01*
X198180952Y-95700000D01*
X198133333Y-95747619D01*
X198038095Y-95890476D01*
X197990476Y-96080952D01*
X197990476Y-96461904D01*
X198038095Y-96557142D01*
X198085714Y-96604761D01*
X198180952Y-96652380D01*
X198371428Y-96652380D01*
X198466666Y-96604761D01*
X198514285Y-96557142D01*
X198561904Y-96461904D01*
X198561904Y-96223809D01*
X198514285Y-96128571D01*
X198466666Y-96080952D01*
X198371428Y-96033333D01*
X198180952Y-96033333D01*
X198085714Y-96080952D01*
X198038095Y-96128571D01*
X197990476Y-96223809D01*
%TO.C,R27*%
X180878242Y-135681980D02*
X180544909Y-135205790D01*
X180306814Y-135681980D02*
X180306814Y-134681980D01*
X180687766Y-134681980D01*
X180783004Y-134729600D01*
X180830623Y-134777219D01*
X180878242Y-134872457D01*
X180878242Y-135015314D01*
X180830623Y-135110552D01*
X180783004Y-135158171D01*
X180687766Y-135205790D01*
X180306814Y-135205790D01*
X181259195Y-134777219D02*
X181306814Y-134729600D01*
X181402052Y-134681980D01*
X181640147Y-134681980D01*
X181735385Y-134729600D01*
X181783004Y-134777219D01*
X181830623Y-134872457D01*
X181830623Y-134967695D01*
X181783004Y-135110552D01*
X181211576Y-135681980D01*
X181830623Y-135681980D01*
X182163957Y-134681980D02*
X182830623Y-134681980D01*
X182402052Y-135681980D01*
%TO.C,R28*%
X137228342Y-127604780D02*
X136895009Y-127128590D01*
X136656914Y-127604780D02*
X136656914Y-126604780D01*
X137037866Y-126604780D01*
X137133104Y-126652400D01*
X137180723Y-126700019D01*
X137228342Y-126795257D01*
X137228342Y-126938114D01*
X137180723Y-127033352D01*
X137133104Y-127080971D01*
X137037866Y-127128590D01*
X136656914Y-127128590D01*
X137609295Y-126700019D02*
X137656914Y-126652400D01*
X137752152Y-126604780D01*
X137990247Y-126604780D01*
X138085485Y-126652400D01*
X138133104Y-126700019D01*
X138180723Y-126795257D01*
X138180723Y-126890495D01*
X138133104Y-127033352D01*
X137561676Y-127604780D01*
X138180723Y-127604780D01*
X138752152Y-127033352D02*
X138656914Y-126985733D01*
X138609295Y-126938114D01*
X138561676Y-126842876D01*
X138561676Y-126795257D01*
X138609295Y-126700019D01*
X138656914Y-126652400D01*
X138752152Y-126604780D01*
X138942628Y-126604780D01*
X139037866Y-126652400D01*
X139085485Y-126700019D01*
X139133104Y-126795257D01*
X139133104Y-126842876D01*
X139085485Y-126938114D01*
X139037866Y-126985733D01*
X138942628Y-127033352D01*
X138752152Y-127033352D01*
X138656914Y-127080971D01*
X138609295Y-127128590D01*
X138561676Y-127223828D01*
X138561676Y-127414304D01*
X138609295Y-127509542D01*
X138656914Y-127557161D01*
X138752152Y-127604780D01*
X138942628Y-127604780D01*
X139037866Y-127557161D01*
X139085485Y-127509542D01*
X139133104Y-127414304D01*
X139133104Y-127223828D01*
X139085485Y-127128590D01*
X139037866Y-127080971D01*
X138942628Y-127033352D01*
%TO.C,R29*%
X142359142Y-129052580D02*
X142025809Y-128576390D01*
X141787714Y-129052580D02*
X141787714Y-128052580D01*
X142168666Y-128052580D01*
X142263904Y-128100200D01*
X142311523Y-128147819D01*
X142359142Y-128243057D01*
X142359142Y-128385914D01*
X142311523Y-128481152D01*
X142263904Y-128528771D01*
X142168666Y-128576390D01*
X141787714Y-128576390D01*
X142740095Y-128147819D02*
X142787714Y-128100200D01*
X142882952Y-128052580D01*
X143121047Y-128052580D01*
X143216285Y-128100200D01*
X143263904Y-128147819D01*
X143311523Y-128243057D01*
X143311523Y-128338295D01*
X143263904Y-128481152D01*
X142692476Y-129052580D01*
X143311523Y-129052580D01*
X143787714Y-129052580D02*
X143978190Y-129052580D01*
X144073428Y-129004961D01*
X144121047Y-128957342D01*
X144216285Y-128814485D01*
X144263904Y-128624009D01*
X144263904Y-128243057D01*
X144216285Y-128147819D01*
X144168666Y-128100200D01*
X144073428Y-128052580D01*
X143882952Y-128052580D01*
X143787714Y-128100200D01*
X143740095Y-128147819D01*
X143692476Y-128243057D01*
X143692476Y-128481152D01*
X143740095Y-128576390D01*
X143787714Y-128624009D01*
X143882952Y-128671628D01*
X144073428Y-128671628D01*
X144168666Y-128624009D01*
X144216285Y-128576390D01*
X144263904Y-128481152D01*
%TO.C,R30*%
X183786542Y-131160780D02*
X183453209Y-130684590D01*
X183215114Y-131160780D02*
X183215114Y-130160780D01*
X183596066Y-130160780D01*
X183691304Y-130208400D01*
X183738923Y-130256019D01*
X183786542Y-130351257D01*
X183786542Y-130494114D01*
X183738923Y-130589352D01*
X183691304Y-130636971D01*
X183596066Y-130684590D01*
X183215114Y-130684590D01*
X184119876Y-130160780D02*
X184738923Y-130160780D01*
X184405590Y-130541733D01*
X184548447Y-130541733D01*
X184643685Y-130589352D01*
X184691304Y-130636971D01*
X184738923Y-130732209D01*
X184738923Y-130970304D01*
X184691304Y-131065542D01*
X184643685Y-131113161D01*
X184548447Y-131160780D01*
X184262733Y-131160780D01*
X184167495Y-131113161D01*
X184119876Y-131065542D01*
X185357971Y-130160780D02*
X185453209Y-130160780D01*
X185548447Y-130208400D01*
X185596066Y-130256019D01*
X185643685Y-130351257D01*
X185691304Y-130541733D01*
X185691304Y-130779828D01*
X185643685Y-130970304D01*
X185596066Y-131065542D01*
X185548447Y-131113161D01*
X185453209Y-131160780D01*
X185357971Y-131160780D01*
X185262733Y-131113161D01*
X185215114Y-131065542D01*
X185167495Y-130970304D01*
X185119876Y-130779828D01*
X185119876Y-130541733D01*
X185167495Y-130351257D01*
X185215114Y-130256019D01*
X185262733Y-130208400D01*
X185357971Y-130160780D01*
%TO.C,R35*%
X158881842Y-152039580D02*
X158548509Y-151563390D01*
X158310414Y-152039580D02*
X158310414Y-151039580D01*
X158691366Y-151039580D01*
X158786604Y-151087200D01*
X158834223Y-151134819D01*
X158881842Y-151230057D01*
X158881842Y-151372914D01*
X158834223Y-151468152D01*
X158786604Y-151515771D01*
X158691366Y-151563390D01*
X158310414Y-151563390D01*
X159215176Y-151039580D02*
X159834223Y-151039580D01*
X159500890Y-151420533D01*
X159643747Y-151420533D01*
X159738985Y-151468152D01*
X159786604Y-151515771D01*
X159834223Y-151611009D01*
X159834223Y-151849104D01*
X159786604Y-151944342D01*
X159738985Y-151991961D01*
X159643747Y-152039580D01*
X159358033Y-152039580D01*
X159262795Y-151991961D01*
X159215176Y-151944342D01*
X160738985Y-151039580D02*
X160262795Y-151039580D01*
X160215176Y-151515771D01*
X160262795Y-151468152D01*
X160358033Y-151420533D01*
X160596128Y-151420533D01*
X160691366Y-151468152D01*
X160738985Y-151515771D01*
X160786604Y-151611009D01*
X160786604Y-151849104D01*
X160738985Y-151944342D01*
X160691366Y-151991961D01*
X160596128Y-152039580D01*
X160358033Y-152039580D01*
X160262795Y-151991961D01*
X160215176Y-151944342D01*
%TO.C,R36*%
X158754842Y-149220180D02*
X158421509Y-148743990D01*
X158183414Y-149220180D02*
X158183414Y-148220180D01*
X158564366Y-148220180D01*
X158659604Y-148267800D01*
X158707223Y-148315419D01*
X158754842Y-148410657D01*
X158754842Y-148553514D01*
X158707223Y-148648752D01*
X158659604Y-148696371D01*
X158564366Y-148743990D01*
X158183414Y-148743990D01*
X159088176Y-148220180D02*
X159707223Y-148220180D01*
X159373890Y-148601133D01*
X159516747Y-148601133D01*
X159611985Y-148648752D01*
X159659604Y-148696371D01*
X159707223Y-148791609D01*
X159707223Y-149029704D01*
X159659604Y-149124942D01*
X159611985Y-149172561D01*
X159516747Y-149220180D01*
X159231033Y-149220180D01*
X159135795Y-149172561D01*
X159088176Y-149124942D01*
X160564366Y-148220180D02*
X160373890Y-148220180D01*
X160278652Y-148267800D01*
X160231033Y-148315419D01*
X160135795Y-148458276D01*
X160088176Y-148648752D01*
X160088176Y-149029704D01*
X160135795Y-149124942D01*
X160183414Y-149172561D01*
X160278652Y-149220180D01*
X160469128Y-149220180D01*
X160564366Y-149172561D01*
X160611985Y-149124942D01*
X160659604Y-149029704D01*
X160659604Y-148791609D01*
X160611985Y-148696371D01*
X160564366Y-148648752D01*
X160469128Y-148601133D01*
X160278652Y-148601133D01*
X160183414Y-148648752D01*
X160135795Y-148696371D01*
X160088176Y-148791609D01*
%TO.C,R37*%
X158704042Y-147048480D02*
X158370709Y-146572290D01*
X158132614Y-147048480D02*
X158132614Y-146048480D01*
X158513566Y-146048480D01*
X158608804Y-146096100D01*
X158656423Y-146143719D01*
X158704042Y-146238957D01*
X158704042Y-146381814D01*
X158656423Y-146477052D01*
X158608804Y-146524671D01*
X158513566Y-146572290D01*
X158132614Y-146572290D01*
X159037376Y-146048480D02*
X159656423Y-146048480D01*
X159323090Y-146429433D01*
X159465947Y-146429433D01*
X159561185Y-146477052D01*
X159608804Y-146524671D01*
X159656423Y-146619909D01*
X159656423Y-146858004D01*
X159608804Y-146953242D01*
X159561185Y-147000861D01*
X159465947Y-147048480D01*
X159180233Y-147048480D01*
X159084995Y-147000861D01*
X159037376Y-146953242D01*
X159989757Y-146048480D02*
X160656423Y-146048480D01*
X160227852Y-147048480D01*
%TO.C,R38*%
X183781362Y-98659520D02*
X183448029Y-98183330D01*
X183209934Y-98659520D02*
X183209934Y-97659520D01*
X183590886Y-97659520D01*
X183686124Y-97707140D01*
X183733743Y-97754759D01*
X183781362Y-97849997D01*
X183781362Y-97992854D01*
X183733743Y-98088092D01*
X183686124Y-98135711D01*
X183590886Y-98183330D01*
X183209934Y-98183330D01*
X184114696Y-97659520D02*
X184733743Y-97659520D01*
X184400410Y-98040473D01*
X184543267Y-98040473D01*
X184638505Y-98088092D01*
X184686124Y-98135711D01*
X184733743Y-98230949D01*
X184733743Y-98469044D01*
X184686124Y-98564282D01*
X184638505Y-98611901D01*
X184543267Y-98659520D01*
X184257553Y-98659520D01*
X184162315Y-98611901D01*
X184114696Y-98564282D01*
X185305172Y-98088092D02*
X185209934Y-98040473D01*
X185162315Y-97992854D01*
X185114696Y-97897616D01*
X185114696Y-97849997D01*
X185162315Y-97754759D01*
X185209934Y-97707140D01*
X185305172Y-97659520D01*
X185495648Y-97659520D01*
X185590886Y-97707140D01*
X185638505Y-97754759D01*
X185686124Y-97849997D01*
X185686124Y-97897616D01*
X185638505Y-97992854D01*
X185590886Y-98040473D01*
X185495648Y-98088092D01*
X185305172Y-98088092D01*
X185209934Y-98135711D01*
X185162315Y-98183330D01*
X185114696Y-98278568D01*
X185114696Y-98469044D01*
X185162315Y-98564282D01*
X185209934Y-98611901D01*
X185305172Y-98659520D01*
X185495648Y-98659520D01*
X185590886Y-98611901D01*
X185638505Y-98564282D01*
X185686124Y-98469044D01*
X185686124Y-98278568D01*
X185638505Y-98183330D01*
X185590886Y-98135711D01*
X185495648Y-98088092D01*
%TO.C,R39*%
X187718362Y-98659520D02*
X187385029Y-98183330D01*
X187146934Y-98659520D02*
X187146934Y-97659520D01*
X187527886Y-97659520D01*
X187623124Y-97707140D01*
X187670743Y-97754759D01*
X187718362Y-97849997D01*
X187718362Y-97992854D01*
X187670743Y-98088092D01*
X187623124Y-98135711D01*
X187527886Y-98183330D01*
X187146934Y-98183330D01*
X188051696Y-97659520D02*
X188670743Y-97659520D01*
X188337410Y-98040473D01*
X188480267Y-98040473D01*
X188575505Y-98088092D01*
X188623124Y-98135711D01*
X188670743Y-98230949D01*
X188670743Y-98469044D01*
X188623124Y-98564282D01*
X188575505Y-98611901D01*
X188480267Y-98659520D01*
X188194553Y-98659520D01*
X188099315Y-98611901D01*
X188051696Y-98564282D01*
X189146934Y-98659520D02*
X189337410Y-98659520D01*
X189432648Y-98611901D01*
X189480267Y-98564282D01*
X189575505Y-98421425D01*
X189623124Y-98230949D01*
X189623124Y-97849997D01*
X189575505Y-97754759D01*
X189527886Y-97707140D01*
X189432648Y-97659520D01*
X189242172Y-97659520D01*
X189146934Y-97707140D01*
X189099315Y-97754759D01*
X189051696Y-97849997D01*
X189051696Y-98088092D01*
X189099315Y-98183330D01*
X189146934Y-98230949D01*
X189242172Y-98278568D01*
X189432648Y-98278568D01*
X189527886Y-98230949D01*
X189575505Y-98183330D01*
X189623124Y-98088092D01*
%TO.C,R40*%
X192747562Y-95194960D02*
X192414229Y-94718770D01*
X192176134Y-95194960D02*
X192176134Y-94194960D01*
X192557086Y-94194960D01*
X192652324Y-94242580D01*
X192699943Y-94290199D01*
X192747562Y-94385437D01*
X192747562Y-94528294D01*
X192699943Y-94623532D01*
X192652324Y-94671151D01*
X192557086Y-94718770D01*
X192176134Y-94718770D01*
X193604705Y-94528294D02*
X193604705Y-95194960D01*
X193366610Y-94147341D02*
X193128515Y-94861627D01*
X193747562Y-94861627D01*
X194318991Y-94194960D02*
X194414229Y-94194960D01*
X194509467Y-94242580D01*
X194557086Y-94290199D01*
X194604705Y-94385437D01*
X194652324Y-94575913D01*
X194652324Y-94814008D01*
X194604705Y-95004484D01*
X194557086Y-95099722D01*
X194509467Y-95147341D01*
X194414229Y-95194960D01*
X194318991Y-95194960D01*
X194223753Y-95147341D01*
X194176134Y-95099722D01*
X194128515Y-95004484D01*
X194080896Y-94814008D01*
X194080896Y-94575913D01*
X194128515Y-94385437D01*
X194176134Y-94290199D01*
X194223753Y-94242580D01*
X194318991Y-94194960D01*
%TO.C,R41*%
X159157142Y-67852380D02*
X158823809Y-67376190D01*
X158585714Y-67852380D02*
X158585714Y-66852380D01*
X158966666Y-66852380D01*
X159061904Y-66900000D01*
X159109523Y-66947619D01*
X159157142Y-67042857D01*
X159157142Y-67185714D01*
X159109523Y-67280952D01*
X159061904Y-67328571D01*
X158966666Y-67376190D01*
X158585714Y-67376190D01*
X160014285Y-67185714D02*
X160014285Y-67852380D01*
X159776190Y-66804761D02*
X159538095Y-67519047D01*
X160157142Y-67519047D01*
X161061904Y-67852380D02*
X160490476Y-67852380D01*
X160776190Y-67852380D02*
X160776190Y-66852380D01*
X160680952Y-66995238D01*
X160585714Y-67090476D01*
X160490476Y-67138095D01*
%TO.C,R42*%
X162757142Y-70452380D02*
X162423809Y-69976190D01*
X162185714Y-70452380D02*
X162185714Y-69452380D01*
X162566666Y-69452380D01*
X162661904Y-69500000D01*
X162709523Y-69547619D01*
X162757142Y-69642857D01*
X162757142Y-69785714D01*
X162709523Y-69880952D01*
X162661904Y-69928571D01*
X162566666Y-69976190D01*
X162185714Y-69976190D01*
X163614285Y-69785714D02*
X163614285Y-70452380D01*
X163376190Y-69404761D02*
X163138095Y-70119047D01*
X163757142Y-70119047D01*
X164090476Y-69547619D02*
X164138095Y-69500000D01*
X164233333Y-69452380D01*
X164471428Y-69452380D01*
X164566666Y-69500000D01*
X164614285Y-69547619D01*
X164661904Y-69642857D01*
X164661904Y-69738095D01*
X164614285Y-69880952D01*
X164042857Y-70452380D01*
X164661904Y-70452380D01*
%TO.C,R43*%
X166357142Y-70652380D02*
X166023809Y-70176190D01*
X165785714Y-70652380D02*
X165785714Y-69652380D01*
X166166666Y-69652380D01*
X166261904Y-69700000D01*
X166309523Y-69747619D01*
X166357142Y-69842857D01*
X166357142Y-69985714D01*
X166309523Y-70080952D01*
X166261904Y-70128571D01*
X166166666Y-70176190D01*
X165785714Y-70176190D01*
X167214285Y-69985714D02*
X167214285Y-70652380D01*
X166976190Y-69604761D02*
X166738095Y-70319047D01*
X167357142Y-70319047D01*
X167642857Y-69652380D02*
X168261904Y-69652380D01*
X167928571Y-70033333D01*
X168071428Y-70033333D01*
X168166666Y-70080952D01*
X168214285Y-70128571D01*
X168261904Y-70223809D01*
X168261904Y-70461904D01*
X168214285Y-70557142D01*
X168166666Y-70604761D01*
X168071428Y-70652380D01*
X167785714Y-70652380D01*
X167690476Y-70604761D01*
X167642857Y-70557142D01*
%TO.C,R44*%
X211081382Y-66380620D02*
X210748049Y-65904430D01*
X210509954Y-66380620D02*
X210509954Y-65380620D01*
X210890906Y-65380620D01*
X210986144Y-65428240D01*
X211033763Y-65475859D01*
X211081382Y-65571097D01*
X211081382Y-65713954D01*
X211033763Y-65809192D01*
X210986144Y-65856811D01*
X210890906Y-65904430D01*
X210509954Y-65904430D01*
X211938525Y-65713954D02*
X211938525Y-66380620D01*
X211700430Y-65333001D02*
X211462335Y-66047287D01*
X212081382Y-66047287D01*
X212890906Y-65713954D02*
X212890906Y-66380620D01*
X212652811Y-65333001D02*
X212414716Y-66047287D01*
X213033763Y-66047287D01*
%TO.C,R45*%
X194881642Y-98777780D02*
X194548309Y-98301590D01*
X194310214Y-98777780D02*
X194310214Y-97777780D01*
X194691166Y-97777780D01*
X194786404Y-97825400D01*
X194834023Y-97873019D01*
X194881642Y-97968257D01*
X194881642Y-98111114D01*
X194834023Y-98206352D01*
X194786404Y-98253971D01*
X194691166Y-98301590D01*
X194310214Y-98301590D01*
X195738785Y-98111114D02*
X195738785Y-98777780D01*
X195500690Y-97730161D02*
X195262595Y-98444447D01*
X195881642Y-98444447D01*
X196738785Y-97777780D02*
X196262595Y-97777780D01*
X196214976Y-98253971D01*
X196262595Y-98206352D01*
X196357833Y-98158733D01*
X196595928Y-98158733D01*
X196691166Y-98206352D01*
X196738785Y-98253971D01*
X196786404Y-98349209D01*
X196786404Y-98587304D01*
X196738785Y-98682542D01*
X196691166Y-98730161D01*
X196595928Y-98777780D01*
X196357833Y-98777780D01*
X196262595Y-98730161D01*
X196214976Y-98682542D01*
%TO.C,R46*%
X149128242Y-128823980D02*
X148794909Y-128347790D01*
X148556814Y-128823980D02*
X148556814Y-127823980D01*
X148937766Y-127823980D01*
X149033004Y-127871600D01*
X149080623Y-127919219D01*
X149128242Y-128014457D01*
X149128242Y-128157314D01*
X149080623Y-128252552D01*
X149033004Y-128300171D01*
X148937766Y-128347790D01*
X148556814Y-128347790D01*
X149985385Y-128157314D02*
X149985385Y-128823980D01*
X149747290Y-127776361D02*
X149509195Y-128490647D01*
X150128242Y-128490647D01*
X150937766Y-127823980D02*
X150747290Y-127823980D01*
X150652052Y-127871600D01*
X150604433Y-127919219D01*
X150509195Y-128062076D01*
X150461576Y-128252552D01*
X150461576Y-128633504D01*
X150509195Y-128728742D01*
X150556814Y-128776361D01*
X150652052Y-128823980D01*
X150842528Y-128823980D01*
X150937766Y-128776361D01*
X150985385Y-128728742D01*
X151033004Y-128633504D01*
X151033004Y-128395409D01*
X150985385Y-128300171D01*
X150937766Y-128252552D01*
X150842528Y-128204933D01*
X150652052Y-128204933D01*
X150556814Y-128252552D01*
X150509195Y-128300171D01*
X150461576Y-128395409D01*
%TO.C,R47*%
X176814242Y-130208280D02*
X176480909Y-129732090D01*
X176242814Y-130208280D02*
X176242814Y-129208280D01*
X176623766Y-129208280D01*
X176719004Y-129255900D01*
X176766623Y-129303519D01*
X176814242Y-129398757D01*
X176814242Y-129541614D01*
X176766623Y-129636852D01*
X176719004Y-129684471D01*
X176623766Y-129732090D01*
X176242814Y-129732090D01*
X177671385Y-129541614D02*
X177671385Y-130208280D01*
X177433290Y-129160661D02*
X177195195Y-129874947D01*
X177814242Y-129874947D01*
X178099957Y-129208280D02*
X178766623Y-129208280D01*
X178338052Y-130208280D01*
%TO.C,S2*%
D15*
X182664195Y-145654661D02*
X182807052Y-145702280D01*
X183045147Y-145702280D01*
X183140385Y-145654661D01*
X183188004Y-145607042D01*
X183235623Y-145511804D01*
X183235623Y-145416566D01*
X183188004Y-145321328D01*
X183140385Y-145273709D01*
X183045147Y-145226090D01*
X182854671Y-145178471D01*
X182759433Y-145130852D01*
X182711814Y-145083233D01*
X182664195Y-144987995D01*
X182664195Y-144892757D01*
X182711814Y-144797519D01*
X182759433Y-144749900D01*
X182854671Y-144702280D01*
X183092766Y-144702280D01*
X183235623Y-144749900D01*
X183616576Y-144797519D02*
X183664195Y-144749900D01*
X183759433Y-144702280D01*
X183997528Y-144702280D01*
X184092766Y-144749900D01*
X184140385Y-144797519D01*
X184188004Y-144892757D01*
X184188004Y-144987995D01*
X184140385Y-145130852D01*
X183568957Y-145702280D01*
X184188004Y-145702280D01*
%TO.C,S3*%
X156184695Y-133462661D02*
X156327552Y-133510280D01*
X156565647Y-133510280D01*
X156660885Y-133462661D01*
X156708504Y-133415042D01*
X156756123Y-133319804D01*
X156756123Y-133224566D01*
X156708504Y-133129328D01*
X156660885Y-133081709D01*
X156565647Y-133034090D01*
X156375171Y-132986471D01*
X156279933Y-132938852D01*
X156232314Y-132891233D01*
X156184695Y-132795995D01*
X156184695Y-132700757D01*
X156232314Y-132605519D01*
X156279933Y-132557900D01*
X156375171Y-132510280D01*
X156613266Y-132510280D01*
X156756123Y-132557900D01*
X157089457Y-132510280D02*
X157708504Y-132510280D01*
X157375171Y-132891233D01*
X157518028Y-132891233D01*
X157613266Y-132938852D01*
X157660885Y-132986471D01*
X157708504Y-133081709D01*
X157708504Y-133319804D01*
X157660885Y-133415042D01*
X157613266Y-133462661D01*
X157518028Y-133510280D01*
X157232314Y-133510280D01*
X157137076Y-133462661D01*
X157089457Y-133415042D01*
%TO.C,S4*%
X209734961Y-82769104D02*
X209782580Y-82626247D01*
X209782580Y-82388152D01*
X209734961Y-82292914D01*
X209687342Y-82245295D01*
X209592104Y-82197676D01*
X209496866Y-82197676D01*
X209401628Y-82245295D01*
X209354009Y-82292914D01*
X209306390Y-82388152D01*
X209258771Y-82578628D01*
X209211152Y-82673866D01*
X209163533Y-82721485D01*
X209068295Y-82769104D01*
X208973057Y-82769104D01*
X208877819Y-82721485D01*
X208830200Y-82673866D01*
X208782580Y-82578628D01*
X208782580Y-82340533D01*
X208830200Y-82197676D01*
X209115914Y-81340533D02*
X209782580Y-81340533D01*
X208734961Y-81578628D02*
X209449247Y-81816723D01*
X209449247Y-81197676D01*
%TO.C,S5*%
X193243295Y-59543581D02*
X193386152Y-59591200D01*
X193624247Y-59591200D01*
X193719485Y-59543581D01*
X193767104Y-59495962D01*
X193814723Y-59400724D01*
X193814723Y-59305486D01*
X193767104Y-59210248D01*
X193719485Y-59162629D01*
X193624247Y-59115010D01*
X193433771Y-59067391D01*
X193338533Y-59019772D01*
X193290914Y-58972153D01*
X193243295Y-58876915D01*
X193243295Y-58781677D01*
X193290914Y-58686439D01*
X193338533Y-58638820D01*
X193433771Y-58591200D01*
X193671866Y-58591200D01*
X193814723Y-58638820D01*
X194719485Y-58591200D02*
X194243295Y-58591200D01*
X194195676Y-59067391D01*
X194243295Y-59019772D01*
X194338533Y-58972153D01*
X194576628Y-58972153D01*
X194671866Y-59019772D01*
X194719485Y-59067391D01*
X194767104Y-59162629D01*
X194767104Y-59400724D01*
X194719485Y-59495962D01*
X194671866Y-59543581D01*
X194576628Y-59591200D01*
X194338533Y-59591200D01*
X194243295Y-59543581D01*
X194195676Y-59495962D01*
%TO.C,S6*%
X164388895Y-74425441D02*
X164531752Y-74473060D01*
X164769847Y-74473060D01*
X164865085Y-74425441D01*
X164912704Y-74377822D01*
X164960323Y-74282584D01*
X164960323Y-74187346D01*
X164912704Y-74092108D01*
X164865085Y-74044489D01*
X164769847Y-73996870D01*
X164579371Y-73949251D01*
X164484133Y-73901632D01*
X164436514Y-73854013D01*
X164388895Y-73758775D01*
X164388895Y-73663537D01*
X164436514Y-73568299D01*
X164484133Y-73520680D01*
X164579371Y-73473060D01*
X164817466Y-73473060D01*
X164960323Y-73520680D01*
X165817466Y-73473060D02*
X165626990Y-73473060D01*
X165531752Y-73520680D01*
X165484133Y-73568299D01*
X165388895Y-73711156D01*
X165341276Y-73901632D01*
X165341276Y-74282584D01*
X165388895Y-74377822D01*
X165436514Y-74425441D01*
X165531752Y-74473060D01*
X165722228Y-74473060D01*
X165817466Y-74425441D01*
X165865085Y-74377822D01*
X165912704Y-74282584D01*
X165912704Y-74044489D01*
X165865085Y-73949251D01*
X165817466Y-73901632D01*
X165722228Y-73854013D01*
X165531752Y-73854013D01*
X165436514Y-73901632D01*
X165388895Y-73949251D01*
X165341276Y-74044489D01*
%TO.C,S7*%
X199075795Y-133101761D02*
X199218652Y-133149380D01*
X199456747Y-133149380D01*
X199551985Y-133101761D01*
X199599604Y-133054142D01*
X199647223Y-132958904D01*
X199647223Y-132863666D01*
X199599604Y-132768428D01*
X199551985Y-132720809D01*
X199456747Y-132673190D01*
X199266271Y-132625571D01*
X199171033Y-132577952D01*
X199123414Y-132530333D01*
X199075795Y-132435095D01*
X199075795Y-132339857D01*
X199123414Y-132244619D01*
X199171033Y-132197000D01*
X199266271Y-132149380D01*
X199504366Y-132149380D01*
X199647223Y-132197000D01*
X199980557Y-132149380D02*
X200647223Y-132149380D01*
X200218652Y-133149380D01*
%TO.C,S8*%
X168338095Y-114504761D02*
X168480952Y-114552380D01*
X168719047Y-114552380D01*
X168814285Y-114504761D01*
X168861904Y-114457142D01*
X168909523Y-114361904D01*
X168909523Y-114266666D01*
X168861904Y-114171428D01*
X168814285Y-114123809D01*
X168719047Y-114076190D01*
X168528571Y-114028571D01*
X168433333Y-113980952D01*
X168385714Y-113933333D01*
X168338095Y-113838095D01*
X168338095Y-113742857D01*
X168385714Y-113647619D01*
X168433333Y-113600000D01*
X168528571Y-113552380D01*
X168766666Y-113552380D01*
X168909523Y-113600000D01*
X169480952Y-113980952D02*
X169385714Y-113933333D01*
X169338095Y-113885714D01*
X169290476Y-113790476D01*
X169290476Y-113742857D01*
X169338095Y-113647619D01*
X169385714Y-113600000D01*
X169480952Y-113552380D01*
X169671428Y-113552380D01*
X169766666Y-113600000D01*
X169814285Y-113647619D01*
X169861904Y-113742857D01*
X169861904Y-113790476D01*
X169814285Y-113885714D01*
X169766666Y-113933333D01*
X169671428Y-113980952D01*
X169480952Y-113980952D01*
X169385714Y-114028571D01*
X169338095Y-114076190D01*
X169290476Y-114171428D01*
X169290476Y-114361904D01*
X169338095Y-114457142D01*
X169385714Y-114504761D01*
X169480952Y-114552380D01*
X169671428Y-114552380D01*
X169766666Y-114504761D01*
X169814285Y-114457142D01*
X169861904Y-114361904D01*
X169861904Y-114171428D01*
X169814285Y-114076190D01*
X169766666Y-114028571D01*
X169671428Y-113980952D01*
%TO.C,S9*%
X214638095Y-104804761D02*
X214780952Y-104852380D01*
X215019047Y-104852380D01*
X215114285Y-104804761D01*
X215161904Y-104757142D01*
X215209523Y-104661904D01*
X215209523Y-104566666D01*
X215161904Y-104471428D01*
X215114285Y-104423809D01*
X215019047Y-104376190D01*
X214828571Y-104328571D01*
X214733333Y-104280952D01*
X214685714Y-104233333D01*
X214638095Y-104138095D01*
X214638095Y-104042857D01*
X214685714Y-103947619D01*
X214733333Y-103900000D01*
X214828571Y-103852380D01*
X215066666Y-103852380D01*
X215209523Y-103900000D01*
X215685714Y-104852380D02*
X215876190Y-104852380D01*
X215971428Y-104804761D01*
X216019047Y-104757142D01*
X216114285Y-104614285D01*
X216161904Y-104423809D01*
X216161904Y-104042857D01*
X216114285Y-103947619D01*
X216066666Y-103900000D01*
X215971428Y-103852380D01*
X215780952Y-103852380D01*
X215685714Y-103900000D01*
X215638095Y-103947619D01*
X215590476Y-104042857D01*
X215590476Y-104280952D01*
X215638095Y-104376190D01*
X215685714Y-104423809D01*
X215780952Y-104471428D01*
X215971428Y-104471428D01*
X216066666Y-104423809D01*
X216114285Y-104376190D01*
X216161904Y-104280952D01*
%TO.C,S10*%
X137115766Y-139949166D02*
X137315766Y-140015833D01*
X137649100Y-140015833D01*
X137782433Y-139949166D01*
X137849100Y-139882500D01*
X137915766Y-139749166D01*
X137915766Y-139615833D01*
X137849100Y-139482500D01*
X137782433Y-139415833D01*
X137649100Y-139349166D01*
X137382433Y-139282500D01*
X137249100Y-139215833D01*
X137182433Y-139149166D01*
X137115766Y-139015833D01*
X137115766Y-138882500D01*
X137182433Y-138749166D01*
X137249100Y-138682500D01*
X137382433Y-138615833D01*
X137715766Y-138615833D01*
X137915766Y-138682500D01*
X139249100Y-140015833D02*
X138449100Y-140015833D01*
X138849100Y-140015833D02*
X138849100Y-138615833D01*
X138715766Y-138815833D01*
X138582433Y-138949166D01*
X138449100Y-139015833D01*
X140115766Y-138615833D02*
X140249100Y-138615833D01*
X140382433Y-138682500D01*
X140449100Y-138749166D01*
X140515766Y-138882500D01*
X140582433Y-139149166D01*
X140582433Y-139482500D01*
X140515766Y-139749166D01*
X140449100Y-139882500D01*
X140382433Y-139949166D01*
X140249100Y-140015833D01*
X140115766Y-140015833D01*
X139982433Y-139949166D01*
X139915766Y-139882500D01*
X139849100Y-139749166D01*
X139782433Y-139482500D01*
X139782433Y-139149166D01*
X139849100Y-138882500D01*
X139915766Y-138749166D01*
X139982433Y-138682500D01*
X140115766Y-138615833D01*
%TO.C,S11*%
X184566666Y-84778406D02*
X184766666Y-84845073D01*
X185100000Y-84845073D01*
X185233333Y-84778406D01*
X185300000Y-84711740D01*
X185366666Y-84578406D01*
X185366666Y-84445073D01*
X185300000Y-84311740D01*
X185233333Y-84245073D01*
X185100000Y-84178406D01*
X184833333Y-84111740D01*
X184700000Y-84045073D01*
X184633333Y-83978406D01*
X184566666Y-83845073D01*
X184566666Y-83711740D01*
X184633333Y-83578406D01*
X184700000Y-83511740D01*
X184833333Y-83445073D01*
X185166666Y-83445073D01*
X185366666Y-83511740D01*
X186700000Y-84845073D02*
X185900000Y-84845073D01*
X186300000Y-84845073D02*
X186300000Y-83445073D01*
X186166666Y-83645073D01*
X186033333Y-83778406D01*
X185900000Y-83845073D01*
X188033333Y-84845073D02*
X187233333Y-84845073D01*
X187633333Y-84845073D02*
X187633333Y-83445073D01*
X187500000Y-83645073D01*
X187366666Y-83778406D01*
X187233333Y-83845073D01*
%TO.C,S12*%
X147266666Y-59966666D02*
X147466666Y-60033333D01*
X147800000Y-60033333D01*
X147933333Y-59966666D01*
X148000000Y-59900000D01*
X148066666Y-59766666D01*
X148066666Y-59633333D01*
X148000000Y-59500000D01*
X147933333Y-59433333D01*
X147800000Y-59366666D01*
X147533333Y-59300000D01*
X147400000Y-59233333D01*
X147333333Y-59166666D01*
X147266666Y-59033333D01*
X147266666Y-58900000D01*
X147333333Y-58766666D01*
X147400000Y-58700000D01*
X147533333Y-58633333D01*
X147866666Y-58633333D01*
X148066666Y-58700000D01*
X149400000Y-60033333D02*
X148600000Y-60033333D01*
X149000000Y-60033333D02*
X149000000Y-58633333D01*
X148866666Y-58833333D01*
X148733333Y-58966666D01*
X148600000Y-59033333D01*
X149933333Y-58766666D02*
X150000000Y-58700000D01*
X150133333Y-58633333D01*
X150466666Y-58633333D01*
X150600000Y-58700000D01*
X150666666Y-58766666D01*
X150733333Y-58900000D01*
X150733333Y-59033333D01*
X150666666Y-59233333D01*
X149866666Y-60033333D01*
X150733333Y-60033333D01*
%TO.C,U1*%
X189350695Y-105469380D02*
X189350695Y-106278904D01*
X189398314Y-106374142D01*
X189445933Y-106421761D01*
X189541171Y-106469380D01*
X189731647Y-106469380D01*
X189826885Y-106421761D01*
X189874504Y-106374142D01*
X189922123Y-106278904D01*
X189922123Y-105469380D01*
X190922123Y-106469380D02*
X190350695Y-106469380D01*
X190636409Y-106469380D02*
X190636409Y-105469380D01*
X190541171Y-105612238D01*
X190445933Y-105707476D01*
X190350695Y-105755095D01*
%TO.C,U2*%
X175796280Y-116522723D02*
X175796280Y-117040819D01*
X175826757Y-117101771D01*
X175857233Y-117132247D01*
X175918185Y-117162723D01*
X176040090Y-117162723D01*
X176101042Y-117132247D01*
X176131519Y-117101771D01*
X176161995Y-117040819D01*
X176161995Y-116522723D01*
X176436280Y-116583676D02*
X176466757Y-116553200D01*
X176527709Y-116522723D01*
X176680090Y-116522723D01*
X176741042Y-116553200D01*
X176771519Y-116583676D01*
X176801995Y-116644628D01*
X176801995Y-116705580D01*
X176771519Y-116797009D01*
X176405804Y-117162723D01*
X176801995Y-117162723D01*
%TO.C,U3*%
X162407695Y-106373680D02*
X162407695Y-107183204D01*
X162455314Y-107278442D01*
X162502933Y-107326061D01*
X162598171Y-107373680D01*
X162788647Y-107373680D01*
X162883885Y-107326061D01*
X162931504Y-107278442D01*
X162979123Y-107183204D01*
X162979123Y-106373680D01*
X163360076Y-106373680D02*
X163979123Y-106373680D01*
X163645790Y-106754633D01*
X163788647Y-106754633D01*
X163883885Y-106802252D01*
X163931504Y-106849871D01*
X163979123Y-106945109D01*
X163979123Y-107183204D01*
X163931504Y-107278442D01*
X163883885Y-107326061D01*
X163788647Y-107373680D01*
X163502933Y-107373680D01*
X163407695Y-107326061D01*
X163360076Y-107278442D01*
%TO.C,U5*%
X198488395Y-106627680D02*
X198488395Y-107437204D01*
X198536014Y-107532442D01*
X198583633Y-107580061D01*
X198678871Y-107627680D01*
X198869347Y-107627680D01*
X198964585Y-107580061D01*
X199012204Y-107532442D01*
X199059823Y-107437204D01*
X199059823Y-106627680D01*
X200012204Y-106627680D02*
X199536014Y-106627680D01*
X199488395Y-107103871D01*
X199536014Y-107056252D01*
X199631252Y-107008633D01*
X199869347Y-107008633D01*
X199964585Y-107056252D01*
X200012204Y-107103871D01*
X200059823Y-107199109D01*
X200059823Y-107437204D01*
X200012204Y-107532442D01*
X199964585Y-107580061D01*
X199869347Y-107627680D01*
X199631252Y-107627680D01*
X199536014Y-107580061D01*
X199488395Y-107532442D01*
%TO.C,U6*%
X174828180Y-70177123D02*
X174828180Y-70695219D01*
X174858657Y-70756171D01*
X174889133Y-70786647D01*
X174950085Y-70817123D01*
X175071990Y-70817123D01*
X175132942Y-70786647D01*
X175163419Y-70756171D01*
X175193895Y-70695219D01*
X175193895Y-70177123D01*
X175772942Y-70177123D02*
X175651038Y-70177123D01*
X175590085Y-70207600D01*
X175559609Y-70238076D01*
X175498657Y-70329504D01*
X175468180Y-70451409D01*
X175468180Y-70695219D01*
X175498657Y-70756171D01*
X175529133Y-70786647D01*
X175590085Y-70817123D01*
X175711990Y-70817123D01*
X175772942Y-70786647D01*
X175803419Y-70756171D01*
X175833895Y-70695219D01*
X175833895Y-70542838D01*
X175803419Y-70481885D01*
X175772942Y-70451409D01*
X175711990Y-70420933D01*
X175590085Y-70420933D01*
X175529133Y-70451409D01*
X175498657Y-70481885D01*
X175468180Y-70542838D01*
%TO.C,U7*%
X204213520Y-62707563D02*
X204213520Y-63225659D01*
X204243997Y-63286611D01*
X204274473Y-63317087D01*
X204335425Y-63347563D01*
X204457330Y-63347563D01*
X204518282Y-63317087D01*
X204548759Y-63286611D01*
X204579235Y-63225659D01*
X204579235Y-62707563D01*
X204823044Y-62707563D02*
X205249711Y-62707563D01*
X204975425Y-63347563D01*
%TO.C,U8*%
D10*
X200654680Y-91636904D02*
X201464204Y-91636904D01*
X201559442Y-91589285D01*
X201607061Y-91541666D01*
X201654680Y-91446428D01*
X201654680Y-91255952D01*
X201607061Y-91160714D01*
X201559442Y-91113095D01*
X201464204Y-91065476D01*
X200654680Y-91065476D01*
X201083252Y-90446428D02*
X201035633Y-90541666D01*
X200988014Y-90589285D01*
X200892776Y-90636904D01*
X200845157Y-90636904D01*
X200749919Y-90589285D01*
X200702300Y-90541666D01*
X200654680Y-90446428D01*
X200654680Y-90255952D01*
X200702300Y-90160714D01*
X200749919Y-90113095D01*
X200845157Y-90065476D01*
X200892776Y-90065476D01*
X200988014Y-90113095D01*
X201035633Y-90160714D01*
X201083252Y-90255952D01*
X201083252Y-90446428D01*
X201130871Y-90541666D01*
X201178490Y-90589285D01*
X201273728Y-90636904D01*
X201464204Y-90636904D01*
X201559442Y-90589285D01*
X201607061Y-90541666D01*
X201654680Y-90446428D01*
X201654680Y-90255952D01*
X201607061Y-90160714D01*
X201559442Y-90113095D01*
X201464204Y-90065476D01*
X201273728Y-90065476D01*
X201178490Y-90113095D01*
X201130871Y-90160714D01*
X201083252Y-90255952D01*
%TO.C,U9*%
D15*
X145980377Y-120865505D02*
X145980377Y-121513124D01*
X146018472Y-121589315D01*
X146056567Y-121627410D01*
X146132758Y-121665505D01*
X146285139Y-121665505D01*
X146361329Y-121627410D01*
X146399424Y-121589315D01*
X146437520Y-121513124D01*
X146437520Y-120865505D01*
X146856567Y-121665505D02*
X147008948Y-121665505D01*
X147085139Y-121627410D01*
X147123234Y-121589315D01*
X147199424Y-121475029D01*
X147237520Y-121322648D01*
X147237520Y-121017886D01*
X147199424Y-120941696D01*
X147161329Y-120903601D01*
X147085139Y-120865505D01*
X146932758Y-120865505D01*
X146856567Y-120903601D01*
X146818472Y-120941696D01*
X146780377Y-121017886D01*
X146780377Y-121208362D01*
X146818472Y-121284553D01*
X146856567Y-121322648D01*
X146932758Y-121360743D01*
X147085139Y-121360743D01*
X147161329Y-121322648D01*
X147199424Y-121284553D01*
X147237520Y-121208362D01*
%TO.C,U10*%
X179260623Y-139300004D02*
X179260623Y-139947623D01*
X179298719Y-140023814D01*
X179336814Y-140061909D01*
X179413004Y-140100004D01*
X179565385Y-140100004D01*
X179641576Y-140061909D01*
X179679671Y-140023814D01*
X179717766Y-139947623D01*
X179717766Y-139300004D01*
X180517766Y-140100004D02*
X180060623Y-140100004D01*
X180289195Y-140100004D02*
X180289195Y-139300004D01*
X180213004Y-139414290D01*
X180136814Y-139490480D01*
X180060623Y-139528576D01*
X181013004Y-139300004D02*
X181089195Y-139300004D01*
X181165385Y-139338100D01*
X181203480Y-139376195D01*
X181241576Y-139452385D01*
X181279671Y-139604766D01*
X181279671Y-139795242D01*
X181241576Y-139947623D01*
X181203480Y-140023814D01*
X181165385Y-140061909D01*
X181089195Y-140100004D01*
X181013004Y-140100004D01*
X180936814Y-140061909D01*
X180898719Y-140023814D01*
X180860623Y-139947623D01*
X180822528Y-139795242D01*
X180822528Y-139604766D01*
X180860623Y-139452385D01*
X180898719Y-139376195D01*
X180936814Y-139338100D01*
X181013004Y-139300004D01*
%TO.C,L4*%
D10*
X174458333Y-80983080D02*
X173982142Y-80983080D01*
X173982142Y-79983080D01*
X175220238Y-80316414D02*
X175220238Y-80983080D01*
X174982142Y-79935461D02*
X174744047Y-80649747D01*
X175363095Y-80649747D01*
%TO.C,J1*%
X142166666Y-74822380D02*
X142166666Y-75536666D01*
X142119047Y-75679523D01*
X142023809Y-75774761D01*
X141880952Y-75822380D01*
X141785714Y-75822380D01*
X143166666Y-75822380D02*
X142595238Y-75822380D01*
X142880952Y-75822380D02*
X142880952Y-74822380D01*
X142785714Y-74965238D01*
X142690476Y-75060476D01*
X142595238Y-75108095D01*
%TO.C,C50*%
X213845302Y-137132302D02*
X213797683Y-137179921D01*
X213654826Y-137227540D01*
X213559588Y-137227540D01*
X213416731Y-137179921D01*
X213321493Y-137084683D01*
X213273874Y-136989445D01*
X213226255Y-136798969D01*
X213226255Y-136656112D01*
X213273874Y-136465636D01*
X213321493Y-136370398D01*
X213416731Y-136275160D01*
X213559588Y-136227540D01*
X213654826Y-136227540D01*
X213797683Y-136275160D01*
X213845302Y-136322779D01*
X214750064Y-136227540D02*
X214273874Y-136227540D01*
X214226255Y-136703731D01*
X214273874Y-136656112D01*
X214369112Y-136608493D01*
X214607207Y-136608493D01*
X214702445Y-136656112D01*
X214750064Y-136703731D01*
X214797683Y-136798969D01*
X214797683Y-137037064D01*
X214750064Y-137132302D01*
X214702445Y-137179921D01*
X214607207Y-137227540D01*
X214369112Y-137227540D01*
X214273874Y-137179921D01*
X214226255Y-137132302D01*
X215416731Y-136227540D02*
X215511969Y-136227540D01*
X215607207Y-136275160D01*
X215654826Y-136322779D01*
X215702445Y-136418017D01*
X215750064Y-136608493D01*
X215750064Y-136846588D01*
X215702445Y-137037064D01*
X215654826Y-137132302D01*
X215607207Y-137179921D01*
X215511969Y-137227540D01*
X215416731Y-137227540D01*
X215321493Y-137179921D01*
X215273874Y-137132302D01*
X215226255Y-137037064D01*
X215178636Y-136846588D01*
X215178636Y-136608493D01*
X215226255Y-136418017D01*
X215273874Y-136322779D01*
X215321493Y-136275160D01*
X215416731Y-136227540D01*
%TO.C,C51*%
X198495682Y-140313682D02*
X198448063Y-140361301D01*
X198305206Y-140408920D01*
X198209968Y-140408920D01*
X198067111Y-140361301D01*
X197971873Y-140266063D01*
X197924254Y-140170825D01*
X197876635Y-139980349D01*
X197876635Y-139837492D01*
X197924254Y-139647016D01*
X197971873Y-139551778D01*
X198067111Y-139456540D01*
X198209968Y-139408920D01*
X198305206Y-139408920D01*
X198448063Y-139456540D01*
X198495682Y-139504159D01*
X199400444Y-139408920D02*
X198924254Y-139408920D01*
X198876635Y-139885111D01*
X198924254Y-139837492D01*
X199019492Y-139789873D01*
X199257587Y-139789873D01*
X199352825Y-139837492D01*
X199400444Y-139885111D01*
X199448063Y-139980349D01*
X199448063Y-140218444D01*
X199400444Y-140313682D01*
X199352825Y-140361301D01*
X199257587Y-140408920D01*
X199019492Y-140408920D01*
X198924254Y-140361301D01*
X198876635Y-140313682D01*
X200400444Y-140408920D02*
X199829016Y-140408920D01*
X200114730Y-140408920D02*
X200114730Y-139408920D01*
X200019492Y-139551778D01*
X199924254Y-139647016D01*
X199829016Y-139694635D01*
%TO.C,C52*%
X209923142Y-145518142D02*
X209875523Y-145565761D01*
X209732666Y-145613380D01*
X209637428Y-145613380D01*
X209494571Y-145565761D01*
X209399333Y-145470523D01*
X209351714Y-145375285D01*
X209304095Y-145184809D01*
X209304095Y-145041952D01*
X209351714Y-144851476D01*
X209399333Y-144756238D01*
X209494571Y-144661000D01*
X209637428Y-144613380D01*
X209732666Y-144613380D01*
X209875523Y-144661000D01*
X209923142Y-144708619D01*
X210827904Y-144613380D02*
X210351714Y-144613380D01*
X210304095Y-145089571D01*
X210351714Y-145041952D01*
X210446952Y-144994333D01*
X210685047Y-144994333D01*
X210780285Y-145041952D01*
X210827904Y-145089571D01*
X210875523Y-145184809D01*
X210875523Y-145422904D01*
X210827904Y-145518142D01*
X210780285Y-145565761D01*
X210685047Y-145613380D01*
X210446952Y-145613380D01*
X210351714Y-145565761D01*
X210304095Y-145518142D01*
X211256476Y-144708619D02*
X211304095Y-144661000D01*
X211399333Y-144613380D01*
X211637428Y-144613380D01*
X211732666Y-144661000D01*
X211780285Y-144708619D01*
X211827904Y-144803857D01*
X211827904Y-144899095D01*
X211780285Y-145041952D01*
X211208857Y-145613380D01*
X211827904Y-145613380D01*
%TO.C,C53*%
X215655142Y-146465357D02*
X215702761Y-146512976D01*
X215750380Y-146655833D01*
X215750380Y-146751071D01*
X215702761Y-146893928D01*
X215607523Y-146989166D01*
X215512285Y-147036785D01*
X215321809Y-147084404D01*
X215178952Y-147084404D01*
X214988476Y-147036785D01*
X214893238Y-146989166D01*
X214798000Y-146893928D01*
X214750380Y-146751071D01*
X214750380Y-146655833D01*
X214798000Y-146512976D01*
X214845619Y-146465357D01*
X214750380Y-145560595D02*
X214750380Y-146036785D01*
X215226571Y-146084404D01*
X215178952Y-146036785D01*
X215131333Y-145941547D01*
X215131333Y-145703452D01*
X215178952Y-145608214D01*
X215226571Y-145560595D01*
X215321809Y-145512976D01*
X215559904Y-145512976D01*
X215655142Y-145560595D01*
X215702761Y-145608214D01*
X215750380Y-145703452D01*
X215750380Y-145941547D01*
X215702761Y-146036785D01*
X215655142Y-146084404D01*
X214750380Y-145179642D02*
X214750380Y-144560595D01*
X215131333Y-144893928D01*
X215131333Y-144751071D01*
X215178952Y-144655833D01*
X215226571Y-144608214D01*
X215321809Y-144560595D01*
X215559904Y-144560595D01*
X215655142Y-144608214D01*
X215702761Y-144655833D01*
X215750380Y-144751071D01*
X215750380Y-145036785D01*
X215702761Y-145132023D01*
X215655142Y-145179642D01*
%TO.C,C54*%
X213307142Y-150375857D02*
X213354761Y-150423476D01*
X213402380Y-150566333D01*
X213402380Y-150661571D01*
X213354761Y-150804428D01*
X213259523Y-150899666D01*
X213164285Y-150947285D01*
X212973809Y-150994904D01*
X212830952Y-150994904D01*
X212640476Y-150947285D01*
X212545238Y-150899666D01*
X212450000Y-150804428D01*
X212402380Y-150661571D01*
X212402380Y-150566333D01*
X212450000Y-150423476D01*
X212497619Y-150375857D01*
X212402380Y-149471095D02*
X212402380Y-149947285D01*
X212878571Y-149994904D01*
X212830952Y-149947285D01*
X212783333Y-149852047D01*
X212783333Y-149613952D01*
X212830952Y-149518714D01*
X212878571Y-149471095D01*
X212973809Y-149423476D01*
X213211904Y-149423476D01*
X213307142Y-149471095D01*
X213354761Y-149518714D01*
X213402380Y-149613952D01*
X213402380Y-149852047D01*
X213354761Y-149947285D01*
X213307142Y-149994904D01*
X212735714Y-148566333D02*
X213402380Y-148566333D01*
X212354761Y-148804428D02*
X213069047Y-149042523D01*
X213069047Y-148423476D01*
%TO.C,C55*%
X197667642Y-148820142D02*
X197620023Y-148867761D01*
X197477166Y-148915380D01*
X197381928Y-148915380D01*
X197239071Y-148867761D01*
X197143833Y-148772523D01*
X197096214Y-148677285D01*
X197048595Y-148486809D01*
X197048595Y-148343952D01*
X197096214Y-148153476D01*
X197143833Y-148058238D01*
X197239071Y-147963000D01*
X197381928Y-147915380D01*
X197477166Y-147915380D01*
X197620023Y-147963000D01*
X197667642Y-148010619D01*
X198572404Y-147915380D02*
X198096214Y-147915380D01*
X198048595Y-148391571D01*
X198096214Y-148343952D01*
X198191452Y-148296333D01*
X198429547Y-148296333D01*
X198524785Y-148343952D01*
X198572404Y-148391571D01*
X198620023Y-148486809D01*
X198620023Y-148724904D01*
X198572404Y-148820142D01*
X198524785Y-148867761D01*
X198429547Y-148915380D01*
X198191452Y-148915380D01*
X198096214Y-148867761D01*
X198048595Y-148820142D01*
X199524785Y-147915380D02*
X199048595Y-147915380D01*
X199000976Y-148391571D01*
X199048595Y-148343952D01*
X199143833Y-148296333D01*
X199381928Y-148296333D01*
X199477166Y-148343952D01*
X199524785Y-148391571D01*
X199572404Y-148486809D01*
X199572404Y-148724904D01*
X199524785Y-148820142D01*
X199477166Y-148867761D01*
X199381928Y-148915380D01*
X199143833Y-148915380D01*
X199048595Y-148867761D01*
X199000976Y-148820142D01*
%TO.C,C56*%
X193095642Y-148439142D02*
X193048023Y-148486761D01*
X192905166Y-148534380D01*
X192809928Y-148534380D01*
X192667071Y-148486761D01*
X192571833Y-148391523D01*
X192524214Y-148296285D01*
X192476595Y-148105809D01*
X192476595Y-147962952D01*
X192524214Y-147772476D01*
X192571833Y-147677238D01*
X192667071Y-147582000D01*
X192809928Y-147534380D01*
X192905166Y-147534380D01*
X193048023Y-147582000D01*
X193095642Y-147629619D01*
X194000404Y-147534380D02*
X193524214Y-147534380D01*
X193476595Y-148010571D01*
X193524214Y-147962952D01*
X193619452Y-147915333D01*
X193857547Y-147915333D01*
X193952785Y-147962952D01*
X194000404Y-148010571D01*
X194048023Y-148105809D01*
X194048023Y-148343904D01*
X194000404Y-148439142D01*
X193952785Y-148486761D01*
X193857547Y-148534380D01*
X193619452Y-148534380D01*
X193524214Y-148486761D01*
X193476595Y-148439142D01*
X194905166Y-147534380D02*
X194714690Y-147534380D01*
X194619452Y-147582000D01*
X194571833Y-147629619D01*
X194476595Y-147772476D01*
X194428976Y-147962952D01*
X194428976Y-148343904D01*
X194476595Y-148439142D01*
X194524214Y-148486761D01*
X194619452Y-148534380D01*
X194809928Y-148534380D01*
X194905166Y-148486761D01*
X194952785Y-148439142D01*
X195000404Y-148343904D01*
X195000404Y-148105809D01*
X194952785Y-148010571D01*
X194905166Y-147962952D01*
X194809928Y-147915333D01*
X194619452Y-147915333D01*
X194524214Y-147962952D01*
X194476595Y-148010571D01*
X194428976Y-148105809D01*
%TO.C,C57*%
X207129142Y-148947142D02*
X207081523Y-148994761D01*
X206938666Y-149042380D01*
X206843428Y-149042380D01*
X206700571Y-148994761D01*
X206605333Y-148899523D01*
X206557714Y-148804285D01*
X206510095Y-148613809D01*
X206510095Y-148470952D01*
X206557714Y-148280476D01*
X206605333Y-148185238D01*
X206700571Y-148090000D01*
X206843428Y-148042380D01*
X206938666Y-148042380D01*
X207081523Y-148090000D01*
X207129142Y-148137619D01*
X208033904Y-148042380D02*
X207557714Y-148042380D01*
X207510095Y-148518571D01*
X207557714Y-148470952D01*
X207652952Y-148423333D01*
X207891047Y-148423333D01*
X207986285Y-148470952D01*
X208033904Y-148518571D01*
X208081523Y-148613809D01*
X208081523Y-148851904D01*
X208033904Y-148947142D01*
X207986285Y-148994761D01*
X207891047Y-149042380D01*
X207652952Y-149042380D01*
X207557714Y-148994761D01*
X207510095Y-148947142D01*
X208414857Y-148042380D02*
X209081523Y-148042380D01*
X208652952Y-149042380D01*
%TO.C,D14*%
X197858214Y-146184880D02*
X197858214Y-145184880D01*
X198096309Y-145184880D01*
X198239166Y-145232500D01*
X198334404Y-145327738D01*
X198382023Y-145422976D01*
X198429642Y-145613452D01*
X198429642Y-145756309D01*
X198382023Y-145946785D01*
X198334404Y-146042023D01*
X198239166Y-146137261D01*
X198096309Y-146184880D01*
X197858214Y-146184880D01*
X199382023Y-146184880D02*
X198810595Y-146184880D01*
X199096309Y-146184880D02*
X199096309Y-145184880D01*
X199001071Y-145327738D01*
X198905833Y-145422976D01*
X198810595Y-145470595D01*
X200239166Y-145518214D02*
X200239166Y-146184880D01*
X200001071Y-145137261D02*
X199762976Y-145851547D01*
X200382023Y-145851547D01*
%TO.C,D15*%
X213591400Y-152646545D02*
X212591400Y-152646545D01*
X212591400Y-152408450D01*
X212639020Y-152265593D01*
X212734258Y-152170355D01*
X212829496Y-152122736D01*
X213019972Y-152075117D01*
X213162829Y-152075117D01*
X213353305Y-152122736D01*
X213448543Y-152170355D01*
X213543781Y-152265593D01*
X213591400Y-152408450D01*
X213591400Y-152646545D01*
X213591400Y-151122736D02*
X213591400Y-151694164D01*
X213591400Y-151408450D02*
X212591400Y-151408450D01*
X212734258Y-151503688D01*
X212829496Y-151598926D01*
X212877115Y-151694164D01*
X212591400Y-150217974D02*
X212591400Y-150694164D01*
X213067591Y-150741783D01*
X213019972Y-150694164D01*
X212972353Y-150598926D01*
X212972353Y-150360831D01*
X213019972Y-150265593D01*
X213067591Y-150217974D01*
X213162829Y-150170355D01*
X213400924Y-150170355D01*
X213496162Y-150217974D01*
X213543781Y-150265593D01*
X213591400Y-150360831D01*
X213591400Y-150598926D01*
X213543781Y-150694164D01*
X213496162Y-150741783D01*
%TO.C,L10*%
X216492080Y-139885657D02*
X216492080Y-140361847D01*
X215492080Y-140361847D01*
X216492080Y-139028514D02*
X216492080Y-139599942D01*
X216492080Y-139314228D02*
X215492080Y-139314228D01*
X215634938Y-139409466D01*
X215730176Y-139504704D01*
X215777795Y-139599942D01*
X215492080Y-138409466D02*
X215492080Y-138314228D01*
X215539700Y-138218990D01*
X215587319Y-138171371D01*
X215682557Y-138123752D01*
X215873033Y-138076133D01*
X216111128Y-138076133D01*
X216301604Y-138123752D01*
X216396842Y-138171371D01*
X216444461Y-138218990D01*
X216492080Y-138314228D01*
X216492080Y-138409466D01*
X216444461Y-138504704D01*
X216396842Y-138552323D01*
X216301604Y-138599942D01*
X216111128Y-138647561D01*
X215873033Y-138647561D01*
X215682557Y-138599942D01*
X215587319Y-138552323D01*
X215539700Y-138504704D01*
X215492080Y-138409466D01*
%TO.C,Q1*%
X225685761Y-147050619D02*
X225590523Y-147003000D01*
X225495285Y-146907761D01*
X225352428Y-146764904D01*
X225257190Y-146717285D01*
X225161952Y-146717285D01*
X225209571Y-146955380D02*
X225114333Y-146907761D01*
X225019095Y-146812523D01*
X224971476Y-146622047D01*
X224971476Y-146288714D01*
X225019095Y-146098238D01*
X225114333Y-146003000D01*
X225209571Y-145955380D01*
X225400047Y-145955380D01*
X225495285Y-146003000D01*
X225590523Y-146098238D01*
X225638142Y-146288714D01*
X225638142Y-146622047D01*
X225590523Y-146812523D01*
X225495285Y-146907761D01*
X225400047Y-146955380D01*
X225209571Y-146955380D01*
X226590523Y-146955380D02*
X226019095Y-146955380D01*
X226304809Y-146955380D02*
X226304809Y-145955380D01*
X226209571Y-146098238D01*
X226114333Y-146193476D01*
X226019095Y-146241095D01*
%TO.C,R31*%
X199826642Y-143454380D02*
X199493309Y-142978190D01*
X199255214Y-143454380D02*
X199255214Y-142454380D01*
X199636166Y-142454380D01*
X199731404Y-142502000D01*
X199779023Y-142549619D01*
X199826642Y-142644857D01*
X199826642Y-142787714D01*
X199779023Y-142882952D01*
X199731404Y-142930571D01*
X199636166Y-142978190D01*
X199255214Y-142978190D01*
X200159976Y-142454380D02*
X200779023Y-142454380D01*
X200445690Y-142835333D01*
X200588547Y-142835333D01*
X200683785Y-142882952D01*
X200731404Y-142930571D01*
X200779023Y-143025809D01*
X200779023Y-143263904D01*
X200731404Y-143359142D01*
X200683785Y-143406761D01*
X200588547Y-143454380D01*
X200302833Y-143454380D01*
X200207595Y-143406761D01*
X200159976Y-143359142D01*
X201731404Y-143454380D02*
X201159976Y-143454380D01*
X201445690Y-143454380D02*
X201445690Y-142454380D01*
X201350452Y-142597238D01*
X201255214Y-142692476D01*
X201159976Y-142740095D01*
%TO.C,R50*%
X214003142Y-141804380D02*
X213669809Y-141328190D01*
X213431714Y-141804380D02*
X213431714Y-140804380D01*
X213812666Y-140804380D01*
X213907904Y-140852000D01*
X213955523Y-140899619D01*
X214003142Y-140994857D01*
X214003142Y-141137714D01*
X213955523Y-141232952D01*
X213907904Y-141280571D01*
X213812666Y-141328190D01*
X213431714Y-141328190D01*
X214907904Y-140804380D02*
X214431714Y-140804380D01*
X214384095Y-141280571D01*
X214431714Y-141232952D01*
X214526952Y-141185333D01*
X214765047Y-141185333D01*
X214860285Y-141232952D01*
X214907904Y-141280571D01*
X214955523Y-141375809D01*
X214955523Y-141613904D01*
X214907904Y-141709142D01*
X214860285Y-141756761D01*
X214765047Y-141804380D01*
X214526952Y-141804380D01*
X214431714Y-141756761D01*
X214384095Y-141709142D01*
X215574571Y-140804380D02*
X215669809Y-140804380D01*
X215765047Y-140852000D01*
X215812666Y-140899619D01*
X215860285Y-140994857D01*
X215907904Y-141185333D01*
X215907904Y-141423428D01*
X215860285Y-141613904D01*
X215812666Y-141709142D01*
X215765047Y-141756761D01*
X215669809Y-141804380D01*
X215574571Y-141804380D01*
X215479333Y-141756761D01*
X215431714Y-141709142D01*
X215384095Y-141613904D01*
X215336476Y-141423428D01*
X215336476Y-141185333D01*
X215384095Y-140994857D01*
X215431714Y-140899619D01*
X215479333Y-140852000D01*
X215574571Y-140804380D01*
%TO.C,R51*%
X211082142Y-150946380D02*
X210748809Y-150470190D01*
X210510714Y-150946380D02*
X210510714Y-149946380D01*
X210891666Y-149946380D01*
X210986904Y-149994000D01*
X211034523Y-150041619D01*
X211082142Y-150136857D01*
X211082142Y-150279714D01*
X211034523Y-150374952D01*
X210986904Y-150422571D01*
X210891666Y-150470190D01*
X210510714Y-150470190D01*
X211986904Y-149946380D02*
X211510714Y-149946380D01*
X211463095Y-150422571D01*
X211510714Y-150374952D01*
X211605952Y-150327333D01*
X211844047Y-150327333D01*
X211939285Y-150374952D01*
X211986904Y-150422571D01*
X212034523Y-150517809D01*
X212034523Y-150755904D01*
X211986904Y-150851142D01*
X211939285Y-150898761D01*
X211844047Y-150946380D01*
X211605952Y-150946380D01*
X211510714Y-150898761D01*
X211463095Y-150851142D01*
X212986904Y-150946380D02*
X212415476Y-150946380D01*
X212701190Y-150946380D02*
X212701190Y-149946380D01*
X212605952Y-150089238D01*
X212510714Y-150184476D01*
X212415476Y-150232095D01*
%TO.C,R52*%
X215718380Y-150486857D02*
X215242190Y-150820190D01*
X215718380Y-151058285D02*
X214718380Y-151058285D01*
X214718380Y-150677333D01*
X214766000Y-150582095D01*
X214813619Y-150534476D01*
X214908857Y-150486857D01*
X215051714Y-150486857D01*
X215146952Y-150534476D01*
X215194571Y-150582095D01*
X215242190Y-150677333D01*
X215242190Y-151058285D01*
X214718380Y-149582095D02*
X214718380Y-150058285D01*
X215194571Y-150105904D01*
X215146952Y-150058285D01*
X215099333Y-149963047D01*
X215099333Y-149724952D01*
X215146952Y-149629714D01*
X215194571Y-149582095D01*
X215289809Y-149534476D01*
X215527904Y-149534476D01*
X215623142Y-149582095D01*
X215670761Y-149629714D01*
X215718380Y-149724952D01*
X215718380Y-149963047D01*
X215670761Y-150058285D01*
X215623142Y-150105904D01*
X214813619Y-149153523D02*
X214766000Y-149105904D01*
X214718380Y-149010666D01*
X214718380Y-148772571D01*
X214766000Y-148677333D01*
X214813619Y-148629714D01*
X214908857Y-148582095D01*
X215004095Y-148582095D01*
X215146952Y-148629714D01*
X215718380Y-149201142D01*
X215718380Y-148582095D01*
%TO.C,R53*%
X215337380Y-146581857D02*
X214861190Y-146915190D01*
X215337380Y-147153285D02*
X214337380Y-147153285D01*
X214337380Y-146772333D01*
X214385000Y-146677095D01*
X214432619Y-146629476D01*
X214527857Y-146581857D01*
X214670714Y-146581857D01*
X214765952Y-146629476D01*
X214813571Y-146677095D01*
X214861190Y-146772333D01*
X214861190Y-147153285D01*
X214337380Y-145677095D02*
X214337380Y-146153285D01*
X214813571Y-146200904D01*
X214765952Y-146153285D01*
X214718333Y-146058047D01*
X214718333Y-145819952D01*
X214765952Y-145724714D01*
X214813571Y-145677095D01*
X214908809Y-145629476D01*
X215146904Y-145629476D01*
X215242142Y-145677095D01*
X215289761Y-145724714D01*
X215337380Y-145819952D01*
X215337380Y-146058047D01*
X215289761Y-146153285D01*
X215242142Y-146200904D01*
X214337380Y-145296142D02*
X214337380Y-144677095D01*
X214718333Y-145010428D01*
X214718333Y-144867571D01*
X214765952Y-144772333D01*
X214813571Y-144724714D01*
X214908809Y-144677095D01*
X215146904Y-144677095D01*
X215242142Y-144724714D01*
X215289761Y-144772333D01*
X215337380Y-144867571D01*
X215337380Y-145153285D01*
X215289761Y-145248523D01*
X215242142Y-145296142D01*
%TO.C,S13*%
D15*
X206831084Y-133640461D02*
X206973941Y-133688080D01*
X207212037Y-133688080D01*
X207307275Y-133640461D01*
X207354894Y-133592842D01*
X207402513Y-133497604D01*
X207402513Y-133402366D01*
X207354894Y-133307128D01*
X207307275Y-133259509D01*
X207212037Y-133211890D01*
X207021560Y-133164271D01*
X206926322Y-133116652D01*
X206878703Y-133069033D01*
X206831084Y-132973795D01*
X206831084Y-132878557D01*
X206878703Y-132783319D01*
X206926322Y-132735700D01*
X207021560Y-132688080D01*
X207259656Y-132688080D01*
X207402513Y-132735700D01*
X208354894Y-133688080D02*
X207783465Y-133688080D01*
X208069180Y-133688080D02*
X208069180Y-132688080D01*
X207973941Y-132830938D01*
X207878703Y-132926176D01*
X207783465Y-132973795D01*
X208688227Y-132688080D02*
X209307275Y-132688080D01*
X208973941Y-133069033D01*
X209116799Y-133069033D01*
X209212037Y-133116652D01*
X209259656Y-133164271D01*
X209307275Y-133259509D01*
X209307275Y-133497604D01*
X209259656Y-133592842D01*
X209212037Y-133640461D01*
X209116799Y-133688080D01*
X208831084Y-133688080D01*
X208735846Y-133640461D01*
X208688227Y-133592842D01*
%TO.C,U12*%
D10*
X202335284Y-146576800D02*
X202335284Y-147386324D01*
X202382903Y-147481562D01*
X202430522Y-147529181D01*
X202525760Y-147576800D01*
X202716237Y-147576800D01*
X202811475Y-147529181D01*
X202859094Y-147481562D01*
X202906713Y-147386324D01*
X202906713Y-146576800D01*
X203906713Y-147576800D02*
X203335284Y-147576800D01*
X203620999Y-147576800D02*
X203620999Y-146576800D01*
X203525760Y-146719658D01*
X203430522Y-146814896D01*
X203335284Y-146862515D01*
X204287665Y-146672039D02*
X204335284Y-146624420D01*
X204430522Y-146576800D01*
X204668618Y-146576800D01*
X204763856Y-146624420D01*
X204811475Y-146672039D01*
X204859094Y-146767277D01*
X204859094Y-146862515D01*
X204811475Y-147005372D01*
X204240046Y-147576800D01*
X204859094Y-147576800D01*
%TD*%
M02*
