M48
; DRILL file {KiCad (5.1.8)-1} date 05/10/21 11:21:12
; FORMAT={-:-/ absolute / inch / decimal}
; #@! TF.CreationDate,2021-05-10T11:21:12+03:00
; #@! TF.GenerationSoftware,Kicad,Pcbnew,(5.1.8)-1
; #@! TF.FileFunction,Plated,1,2,PTH
FMAT,2
INCH
T1C0.0079
T2C0.0157
T3C0.0236
T4C0.0315
T5C0.0354
T6C0.0394
T7C0.0402
T8C0.0551
%
G90
G05
T1
X7.4112Y-4.2272
X7.4112Y-4.2784
X7.4112Y-4.3296
X7.4112Y-4.3808
X7.4624Y-4.2272
X7.4624Y-4.2784
X7.4624Y-4.3296
X7.4624Y-4.3808
X8.1284Y-5.6322
X8.1284Y-5.7074
X8.1796Y-5.6322
X8.1796Y-5.7074
X8.2308Y-5.6322
X8.2308Y-5.7074
T2
X6.834Y-2.7725
X7.1285Y-2.6975
T3
X5.654Y-4.6165
X5.8695Y-4.7895
X6.0495Y-4.731
X6.1024Y-4.8189
X6.244Y-5.9775
X6.2535Y-5.8675
X6.3044Y-3.7396
X6.3875Y-4.6475
X6.3927Y-4.0897
X6.4449Y-4.1191
X6.535Y-4.8025
X6.5433Y-4.1929
X6.5551Y-3.689
X6.6102Y-4.4055
X6.6496Y-4.0
X6.6514Y-3.5927
X6.7098Y-4.5944
X6.7165Y-3.8937
X6.7717Y-4.8307
X6.7795Y-4.7717
X6.813Y-2.985
X6.8213Y-2.9065
X6.8346Y-3.4213
X6.85Y-4.5625
X6.8583Y-4.4685
X6.922Y-2.582
X6.9882Y-5.6575
X7.0064Y-2.9026
X7.0123Y-3.875
X7.0555Y-5.317
X7.063Y-2.9803
X7.0735Y-5.1725
X7.081Y-5.514
X7.126Y-4.5157
X7.1506Y-3.9567
X7.1538Y-5.6575
X7.1575Y-4.7756
X7.1957Y-2.899
X7.2486Y-2.69
X7.258Y-5.26
X7.43Y-2.9075
X7.437Y-3.126
X7.5213Y-3.3252
X7.5827Y-4.6929
X7.626Y-3.3268
X7.7425Y-4.38
X7.752Y-3.0945
X7.7933Y-4.57
X7.8102Y-4.2952
X7.8976Y-3.7362
X7.92Y-5.72
X7.9294Y-4.2426
X7.9449Y-3.8622
X7.9796Y-2.3669
X7.9882Y-2.6024
X7.9937Y-5.8787
X8.0079Y-3.7362
X8.0394Y-5.8394
X8.1113Y-2.6658
X8.1142Y-3.1535
X8.155Y-5.5275
X8.1685Y-2.4512
X8.185Y-3.689
X8.2125Y-4.16
X8.245Y-5.86
X8.2559Y-3.1732
X8.305Y-5.715
X8.3425Y-4.5745
X8.374Y-4.5354
X8.47Y-5.765
X8.5197Y-4.3386
X8.5275Y-5.705
X8.7717Y-4.7323
T4
X7.8908Y-5.9351
X7.8908Y-6.0138
X8.1189Y-5.9323
X8.1189Y-6.0111
X7.6584Y-5.9371
X7.6584Y-6.0158
T5
X8.2283Y-2.8606
X8.2283Y-2.9606
X8.2283Y-3.0606
X8.0598Y-4.0748
X8.1598Y-4.0748
X8.2598Y-4.0748
X8.0007Y-5.37
X8.1007Y-5.37
X8.2007Y-5.37
X7.2632Y-2.3849
X7.3632Y-2.3849
X7.4632Y-2.3849
X5.7695Y-5.298
X5.8695Y-5.298
X5.9695Y-5.298
X7.4921Y-5.1693
X7.5921Y-5.1693
X7.6921Y-5.1693
X7.1215Y-3.5139
X7.3184Y-3.5139
X7.4168Y-3.5139
X7.5152Y-3.5139
X7.0105Y-5.8285
X7.1105Y-5.8285
X7.2105Y-5.8285
X5.8535Y-5.5605
X6.0504Y-5.5605
X6.1488Y-5.5605
X6.2472Y-5.5605
X6.2543Y-4.5039
X6.3543Y-4.5039
X6.4543Y-4.5039
X6.1856Y-2.4074
X6.3825Y-2.4074
X6.4809Y-2.4074
X6.5793Y-2.4074
X6.322Y-3.0392
X6.422Y-3.0392
X6.522Y-3.0392
T6
X5.7756Y-2.563
X5.7873Y-3.4994
X5.8335Y-4.248
X5.8701Y-4.1142
X5.878Y-3.2835
X5.9016Y-3.626
X6.0079Y-2.3622
X6.011Y-3.431
X6.0709Y-2.9134
X6.1102Y-4.3543
X6.1671Y-4.1302
X6.1856Y-3.036
X6.2234Y-4.2005
X6.2874Y-4.8976
X6.3937Y-3.3071
X6.4218Y-4.3174
X6.4528Y-4.0354
X6.6063Y-3.8386
X6.6454Y-5.3582
X6.6772Y-2.8583
X6.7087Y-4.2638
X6.7511Y-3.2205
X6.7835Y-3.6732
X6.811Y-4.189
X6.8346Y-2.2835
X6.8365Y-2.4781
X6.8518Y-5.1013
X6.9646Y-4.1535
X6.9843Y-2.5039
X7.0079Y-3.9685
X7.1339Y-2.4646
X7.2191Y-3.9975
X7.2283Y-3.4488
X7.4213Y-4.6339
X7.4331Y-4.4764
X7.5276Y-3.9488
X7.5906Y-3.0433
X7.6535Y-4.4016
X7.6772Y-3.2756
X7.685Y-3.7992
X7.8425Y-3.1102
X7.8858Y-4.1535
X8.0394Y-2.9134
X8.0472Y-4.9646
X8.2244Y-4.7205
X8.2795Y-3.5197
X8.3268Y-3.8898
X8.3386Y-4.9449
X8.6102Y-4.9843
X8.63Y-5.8525
X8.7992Y-3.6181
X8.8701Y-5.1339
X5.527Y-3.1735
X5.627Y-3.1735
X5.5315Y-3.6685
X5.6315Y-3.6685
X5.532Y-3.5075
X5.632Y-3.5075
X8.4825Y-2.502
X8.4825Y-2.602
X8.4825Y-2.702
X8.4825Y-2.802
X8.4825Y-2.902
X8.4825Y-3.002
X8.4825Y-3.102
X8.4825Y-3.202
X8.4825Y-3.302
X8.4825Y-3.402
X8.4825Y-3.502
X8.4825Y-3.602
X8.4825Y-3.702
X8.4825Y-3.802
X8.4825Y-3.902
X9.0825Y-2.502
X9.0825Y-2.602
X9.0825Y-2.702
X9.0825Y-2.802
X9.0825Y-2.902
X9.0825Y-3.002
X9.0825Y-3.102
X9.0825Y-3.202
X9.0825Y-3.302
X9.0825Y-3.402
X9.0825Y-3.502
X9.0825Y-3.602
X9.0825Y-3.702
X9.0825Y-3.802
X9.0825Y-3.902
X5.5325Y-3.331
X5.6325Y-3.331
X5.6102Y-2.3583
X5.6102Y-2.4583
X5.6102Y-2.5583
X5.6102Y-2.6583
X5.6102Y-2.7583
X5.6102Y-2.8583
T7
X7.964Y-4.3185
X7.964Y-4.4185
X7.964Y-4.5185
X7.964Y-4.6185
X7.964Y-4.7185
X7.964Y-4.8185
X7.964Y-4.9185
X7.964Y-5.0185
T8
X6.9601Y-3.6242
X7.5979Y-3.4037
X5.6921Y-5.6707
X6.3299Y-5.4503
X6.0242Y-2.5176
X6.662Y-2.2972
T0
M30
