%TF.GenerationSoftware,KiCad,Pcbnew,(5.1.8)-1*%
%TF.CreationDate,2021-05-10T11:21:08+03:00*%
%TF.ProjectId,PWR_SUB_SYS_PCB,5057525f-5355-4425-9f53-59535f504342,rev?*%
%TF.SameCoordinates,Original*%
%TF.FileFunction,Legend,Bot*%
%TF.FilePolarity,Positive*%
%FSLAX46Y46*%
G04 Gerber Fmt 4.6, Leading zero omitted, Abs format (unit mm)*
G04 Created by KiCad (PCBNEW (5.1.8)-1) date 2021-05-10 11:21:08*
%MOMM*%
%LPD*%
G01*
G04 APERTURE LIST*
%ADD10C,0.120000*%
%ADD11C,0.200000*%
%ADD12C,0.127000*%
%ADD13C,0.150000*%
%ADD14C,0.015000*%
G04 APERTURE END LIST*
D10*
%TO.C,C17*%
X210158700Y-116661252D02*
X210158700Y-116138748D01*
X211628700Y-116661252D02*
X211628700Y-116138748D01*
%TO.C,C18*%
X213203100Y-121329833D02*
X213203100Y-121622367D01*
X214223100Y-121329833D02*
X214223100Y-121622367D01*
%TO.C,C19*%
X225791148Y-124007800D02*
X227213652Y-124007800D01*
X225791148Y-125827800D02*
X227213652Y-125827800D01*
%TO.C,C20*%
X225942748Y-121175700D02*
X227365252Y-121175700D01*
X225942748Y-122995700D02*
X227365252Y-122995700D01*
%TO.C,D1*%
X215882700Y-122780900D02*
X215882700Y-120780900D01*
X215882700Y-120780900D02*
X219782700Y-120780900D01*
X215882700Y-122780900D02*
X219782700Y-122780900D01*
D11*
%TO.C,L3*%
X214474000Y-126619600D02*
G75*
G03*
X214474000Y-126619600I-100000J0D01*
G01*
D12*
X217174000Y-123619600D02*
X219574000Y-123619600D01*
X217174000Y-129619600D02*
X219574000Y-129619600D01*
D10*
%TO.C,R8*%
X215851536Y-111190700D02*
X216305664Y-111190700D01*
X215851536Y-112660700D02*
X216305664Y-112660700D01*
%TO.C,R9*%
X219820036Y-112787700D02*
X220274164Y-112787700D01*
X219820036Y-111317700D02*
X220274164Y-111317700D01*
%TO.C,R10*%
X211822400Y-112089036D02*
X211822400Y-112543164D01*
X213292400Y-112089036D02*
X213292400Y-112543164D01*
%TO.C,R11*%
X223265100Y-116784964D02*
X223265100Y-116330836D01*
X224735100Y-116784964D02*
X224735100Y-116330836D01*
%TO.C,R12*%
X224773036Y-113752900D02*
X225227164Y-113752900D01*
X224773036Y-112282900D02*
X225227164Y-112282900D01*
D11*
%TO.C,U4*%
X213194500Y-118715200D02*
G75*
G03*
X213194500Y-118715200I-100000J0D01*
G01*
D12*
X215294500Y-114296200D02*
X219294500Y-114296200D01*
X215294500Y-119334200D02*
X219294500Y-119334200D01*
%TO.C,C17*%
D13*
X208691757Y-116600842D02*
X208739376Y-116648461D01*
X208882233Y-116696080D01*
X208977471Y-116696080D01*
X209120328Y-116648461D01*
X209215566Y-116553223D01*
X209263185Y-116457985D01*
X209310804Y-116267509D01*
X209310804Y-116124652D01*
X209263185Y-115934176D01*
X209215566Y-115838938D01*
X209120328Y-115743700D01*
X208977471Y-115696080D01*
X208882233Y-115696080D01*
X208739376Y-115743700D01*
X208691757Y-115791319D01*
X207739376Y-116696080D02*
X208310804Y-116696080D01*
X208025090Y-116696080D02*
X208025090Y-115696080D01*
X208120328Y-115838938D01*
X208215566Y-115934176D01*
X208310804Y-115981795D01*
X207406042Y-115696080D02*
X206739376Y-115696080D01*
X207167947Y-116696080D01*
%TO.C,C18*%
X211879457Y-121922142D02*
X211927076Y-121969761D01*
X212069933Y-122017380D01*
X212165171Y-122017380D01*
X212308028Y-121969761D01*
X212403266Y-121874523D01*
X212450885Y-121779285D01*
X212498504Y-121588809D01*
X212498504Y-121445952D01*
X212450885Y-121255476D01*
X212403266Y-121160238D01*
X212308028Y-121065000D01*
X212165171Y-121017380D01*
X212069933Y-121017380D01*
X211927076Y-121065000D01*
X211879457Y-121112619D01*
X210927076Y-122017380D02*
X211498504Y-122017380D01*
X211212790Y-122017380D02*
X211212790Y-121017380D01*
X211308028Y-121160238D01*
X211403266Y-121255476D01*
X211498504Y-121303095D01*
X210355647Y-121445952D02*
X210450885Y-121398333D01*
X210498504Y-121350714D01*
X210546123Y-121255476D01*
X210546123Y-121207857D01*
X210498504Y-121112619D01*
X210450885Y-121065000D01*
X210355647Y-121017380D01*
X210165171Y-121017380D01*
X210069933Y-121065000D01*
X210022314Y-121112619D01*
X209974695Y-121207857D01*
X209974695Y-121255476D01*
X210022314Y-121350714D01*
X210069933Y-121398333D01*
X210165171Y-121445952D01*
X210355647Y-121445952D01*
X210450885Y-121493571D01*
X210498504Y-121541190D01*
X210546123Y-121636428D01*
X210546123Y-121826904D01*
X210498504Y-121922142D01*
X210450885Y-121969761D01*
X210355647Y-122017380D01*
X210165171Y-122017380D01*
X210069933Y-121969761D01*
X210022314Y-121922142D01*
X209974695Y-121826904D01*
X209974695Y-121636428D01*
X210022314Y-121541190D01*
X210069933Y-121493571D01*
X210165171Y-121445952D01*
%TO.C,C19*%
X231183457Y-125249542D02*
X231231076Y-125297161D01*
X231373933Y-125344780D01*
X231469171Y-125344780D01*
X231612028Y-125297161D01*
X231707266Y-125201923D01*
X231754885Y-125106685D01*
X231802504Y-124916209D01*
X231802504Y-124773352D01*
X231754885Y-124582876D01*
X231707266Y-124487638D01*
X231612028Y-124392400D01*
X231469171Y-124344780D01*
X231373933Y-124344780D01*
X231231076Y-124392400D01*
X231183457Y-124440019D01*
X230231076Y-125344780D02*
X230802504Y-125344780D01*
X230516790Y-125344780D02*
X230516790Y-124344780D01*
X230612028Y-124487638D01*
X230707266Y-124582876D01*
X230802504Y-124630495D01*
X229754885Y-125344780D02*
X229564409Y-125344780D01*
X229469171Y-125297161D01*
X229421552Y-125249542D01*
X229326314Y-125106685D01*
X229278695Y-124916209D01*
X229278695Y-124535257D01*
X229326314Y-124440019D01*
X229373933Y-124392400D01*
X229469171Y-124344780D01*
X229659647Y-124344780D01*
X229754885Y-124392400D01*
X229802504Y-124440019D01*
X229850123Y-124535257D01*
X229850123Y-124773352D01*
X229802504Y-124868590D01*
X229754885Y-124916209D01*
X229659647Y-124963828D01*
X229469171Y-124963828D01*
X229373933Y-124916209D01*
X229326314Y-124868590D01*
X229278695Y-124773352D01*
%TO.C,C20*%
X231234257Y-122620642D02*
X231281876Y-122668261D01*
X231424733Y-122715880D01*
X231519971Y-122715880D01*
X231662828Y-122668261D01*
X231758066Y-122573023D01*
X231805685Y-122477785D01*
X231853304Y-122287309D01*
X231853304Y-122144452D01*
X231805685Y-121953976D01*
X231758066Y-121858738D01*
X231662828Y-121763500D01*
X231519971Y-121715880D01*
X231424733Y-121715880D01*
X231281876Y-121763500D01*
X231234257Y-121811119D01*
X230853304Y-121811119D02*
X230805685Y-121763500D01*
X230710447Y-121715880D01*
X230472352Y-121715880D01*
X230377114Y-121763500D01*
X230329495Y-121811119D01*
X230281876Y-121906357D01*
X230281876Y-122001595D01*
X230329495Y-122144452D01*
X230900923Y-122715880D01*
X230281876Y-122715880D01*
X229662828Y-121715880D02*
X229567590Y-121715880D01*
X229472352Y-121763500D01*
X229424733Y-121811119D01*
X229377114Y-121906357D01*
X229329495Y-122096833D01*
X229329495Y-122334928D01*
X229377114Y-122525404D01*
X229424733Y-122620642D01*
X229472352Y-122668261D01*
X229567590Y-122715880D01*
X229662828Y-122715880D01*
X229758066Y-122668261D01*
X229805685Y-122620642D01*
X229853304Y-122525404D01*
X229900923Y-122334928D01*
X229900923Y-122096833D01*
X229853304Y-121906357D01*
X229805685Y-121811119D01*
X229758066Y-121763500D01*
X229662828Y-121715880D01*
%TO.C,D1*%
X222579195Y-122157080D02*
X222579195Y-121157080D01*
X222341100Y-121157080D01*
X222198242Y-121204700D01*
X222103004Y-121299938D01*
X222055385Y-121395176D01*
X222007766Y-121585652D01*
X222007766Y-121728509D01*
X222055385Y-121918985D01*
X222103004Y-122014223D01*
X222198242Y-122109461D01*
X222341100Y-122157080D01*
X222579195Y-122157080D01*
X221055385Y-122157080D02*
X221626814Y-122157080D01*
X221341100Y-122157080D02*
X221341100Y-121157080D01*
X221436338Y-121299938D01*
X221531576Y-121395176D01*
X221626814Y-121442795D01*
%TO.C,L3*%
D14*
X223303166Y-128354680D02*
X223779357Y-128354680D01*
X223779357Y-127354680D01*
X223065071Y-127354680D02*
X222446023Y-127354680D01*
X222779357Y-127735633D01*
X222636500Y-127735633D01*
X222541261Y-127783252D01*
X222493642Y-127830871D01*
X222446023Y-127926109D01*
X222446023Y-128164204D01*
X222493642Y-128259442D01*
X222541261Y-128307061D01*
X222636500Y-128354680D01*
X222922214Y-128354680D01*
X223017452Y-128307061D01*
X223065071Y-128259442D01*
%TO.C,R8*%
D13*
X216388266Y-110549280D02*
X216721600Y-110073090D01*
X216959695Y-110549280D02*
X216959695Y-109549280D01*
X216578742Y-109549280D01*
X216483504Y-109596900D01*
X216435885Y-109644519D01*
X216388266Y-109739757D01*
X216388266Y-109882614D01*
X216435885Y-109977852D01*
X216483504Y-110025471D01*
X216578742Y-110073090D01*
X216959695Y-110073090D01*
X215816838Y-109977852D02*
X215912076Y-109930233D01*
X215959695Y-109882614D01*
X216007314Y-109787376D01*
X216007314Y-109739757D01*
X215959695Y-109644519D01*
X215912076Y-109596900D01*
X215816838Y-109549280D01*
X215626361Y-109549280D01*
X215531123Y-109596900D01*
X215483504Y-109644519D01*
X215435885Y-109739757D01*
X215435885Y-109787376D01*
X215483504Y-109882614D01*
X215531123Y-109930233D01*
X215626361Y-109977852D01*
X215816838Y-109977852D01*
X215912076Y-110025471D01*
X215959695Y-110073090D01*
X216007314Y-110168328D01*
X216007314Y-110358804D01*
X215959695Y-110454042D01*
X215912076Y-110501661D01*
X215816838Y-110549280D01*
X215626361Y-110549280D01*
X215531123Y-110501661D01*
X215483504Y-110454042D01*
X215435885Y-110358804D01*
X215435885Y-110168328D01*
X215483504Y-110073090D01*
X215531123Y-110025471D01*
X215626361Y-109977852D01*
%TO.C,R9*%
X220077366Y-110676280D02*
X220410700Y-110200090D01*
X220648795Y-110676280D02*
X220648795Y-109676280D01*
X220267842Y-109676280D01*
X220172604Y-109723900D01*
X220124985Y-109771519D01*
X220077366Y-109866757D01*
X220077366Y-110009614D01*
X220124985Y-110104852D01*
X220172604Y-110152471D01*
X220267842Y-110200090D01*
X220648795Y-110200090D01*
X219601176Y-110676280D02*
X219410700Y-110676280D01*
X219315461Y-110628661D01*
X219267842Y-110581042D01*
X219172604Y-110438185D01*
X219124985Y-110247709D01*
X219124985Y-109866757D01*
X219172604Y-109771519D01*
X219220223Y-109723900D01*
X219315461Y-109676280D01*
X219505938Y-109676280D01*
X219601176Y-109723900D01*
X219648795Y-109771519D01*
X219696414Y-109866757D01*
X219696414Y-110104852D01*
X219648795Y-110200090D01*
X219601176Y-110247709D01*
X219505938Y-110295328D01*
X219315461Y-110295328D01*
X219220223Y-110247709D01*
X219172604Y-110200090D01*
X219124985Y-110104852D01*
%TO.C,R10*%
X210545957Y-112949580D02*
X210879290Y-112473390D01*
X211117385Y-112949580D02*
X211117385Y-111949580D01*
X210736433Y-111949580D01*
X210641195Y-111997200D01*
X210593576Y-112044819D01*
X210545957Y-112140057D01*
X210545957Y-112282914D01*
X210593576Y-112378152D01*
X210641195Y-112425771D01*
X210736433Y-112473390D01*
X211117385Y-112473390D01*
X209593576Y-112949580D02*
X210165004Y-112949580D01*
X209879290Y-112949580D02*
X209879290Y-111949580D01*
X209974528Y-112092438D01*
X210069766Y-112187676D01*
X210165004Y-112235295D01*
X208974528Y-111949580D02*
X208879290Y-111949580D01*
X208784052Y-111997200D01*
X208736433Y-112044819D01*
X208688814Y-112140057D01*
X208641195Y-112330533D01*
X208641195Y-112568628D01*
X208688814Y-112759104D01*
X208736433Y-112854342D01*
X208784052Y-112901961D01*
X208879290Y-112949580D01*
X208974528Y-112949580D01*
X209069766Y-112901961D01*
X209117385Y-112854342D01*
X209165004Y-112759104D01*
X209212623Y-112568628D01*
X209212623Y-112330533D01*
X209165004Y-112140057D01*
X209117385Y-112044819D01*
X209069766Y-111997200D01*
X208974528Y-111949580D01*
%TO.C,R11*%
X227335357Y-116797680D02*
X227668690Y-116321490D01*
X227906785Y-116797680D02*
X227906785Y-115797680D01*
X227525833Y-115797680D01*
X227430595Y-115845300D01*
X227382976Y-115892919D01*
X227335357Y-115988157D01*
X227335357Y-116131014D01*
X227382976Y-116226252D01*
X227430595Y-116273871D01*
X227525833Y-116321490D01*
X227906785Y-116321490D01*
X226382976Y-116797680D02*
X226954404Y-116797680D01*
X226668690Y-116797680D02*
X226668690Y-115797680D01*
X226763928Y-115940538D01*
X226859166Y-116035776D01*
X226954404Y-116083395D01*
X225430595Y-116797680D02*
X226002023Y-116797680D01*
X225716309Y-116797680D02*
X225716309Y-115797680D01*
X225811547Y-115940538D01*
X225906785Y-116035776D01*
X226002023Y-116083395D01*
%TO.C,R12*%
X228948257Y-113660780D02*
X229281590Y-113184590D01*
X229519685Y-113660780D02*
X229519685Y-112660780D01*
X229138733Y-112660780D01*
X229043495Y-112708400D01*
X228995876Y-112756019D01*
X228948257Y-112851257D01*
X228948257Y-112994114D01*
X228995876Y-113089352D01*
X229043495Y-113136971D01*
X229138733Y-113184590D01*
X229519685Y-113184590D01*
X227995876Y-113660780D02*
X228567304Y-113660780D01*
X228281590Y-113660780D02*
X228281590Y-112660780D01*
X228376828Y-112803638D01*
X228472066Y-112898876D01*
X228567304Y-112946495D01*
X227614923Y-112756019D02*
X227567304Y-112708400D01*
X227472066Y-112660780D01*
X227233971Y-112660780D01*
X227138733Y-112708400D01*
X227091114Y-112756019D01*
X227043495Y-112851257D01*
X227043495Y-112946495D01*
X227091114Y-113089352D01*
X227662542Y-113660780D01*
X227043495Y-113660780D01*
%TO.C,U4*%
D14*
X217414119Y-119671123D02*
X217414119Y-120189219D01*
X217383642Y-120250171D01*
X217353166Y-120280647D01*
X217292214Y-120311123D01*
X217170309Y-120311123D01*
X217109357Y-120280647D01*
X217078880Y-120250171D01*
X217048404Y-120189219D01*
X217048404Y-119671123D01*
X216469357Y-119884457D02*
X216469357Y-120311123D01*
X216621738Y-119640647D02*
X216774119Y-120097790D01*
X216377928Y-120097790D01*
%TD*%
M02*
