%TF.GenerationSoftware,KiCad,Pcbnew,(5.1.8)-1*%
%TF.CreationDate,2021-05-10T11:21:08+03:00*%
%TF.ProjectId,PWR_SUB_SYS_PCB,5057525f-5355-4425-9f53-59535f504342,rev?*%
%TF.SameCoordinates,Original*%
%TF.FileFunction,Paste,Bot*%
%TF.FilePolarity,Positive*%
%FSLAX46Y46*%
G04 Gerber Fmt 4.6, Leading zero omitted, Abs format (unit mm)*
G04 Created by KiCad (PCBNEW (5.1.8)-1) date 2021-05-10 11:21:08*
%MOMM*%
%LPD*%
G01*
G04 APERTURE LIST*
%ADD10C,0.010000*%
%ADD11R,0.900000X1.200000*%
%ADD12R,1.600000X5.700000*%
%ADD13R,1.970000X0.600000*%
G04 APERTURE END LIST*
D10*
%TO.C,U4*%
G36*
X217419500Y-116690200D02*
G01*
X218189500Y-116690200D01*
X218189500Y-115570200D01*
X217419500Y-115570200D01*
X217419500Y-116690200D01*
G37*
X217419500Y-116690200D02*
X218189500Y-116690200D01*
X218189500Y-115570200D01*
X217419500Y-115570200D01*
X217419500Y-116690200D01*
G36*
X216399500Y-116690200D02*
G01*
X217169500Y-116690200D01*
X217169500Y-115570200D01*
X216399500Y-115570200D01*
X216399500Y-116690200D01*
G37*
X216399500Y-116690200D02*
X217169500Y-116690200D01*
X217169500Y-115570200D01*
X216399500Y-115570200D01*
X216399500Y-116690200D01*
G36*
X217419500Y-118060200D02*
G01*
X218189500Y-118060200D01*
X218189500Y-116940200D01*
X217419500Y-116940200D01*
X217419500Y-118060200D01*
G37*
X217419500Y-118060200D02*
X218189500Y-118060200D01*
X218189500Y-116940200D01*
X217419500Y-116940200D01*
X217419500Y-118060200D01*
G36*
X216399500Y-118060200D02*
G01*
X217169500Y-118060200D01*
X217169500Y-116940200D01*
X216399500Y-116940200D01*
X216399500Y-118060200D01*
G37*
X216399500Y-118060200D02*
X217169500Y-118060200D01*
X217169500Y-116940200D01*
X216399500Y-116940200D01*
X216399500Y-118060200D01*
%TD*%
%TO.C,C17*%
G36*
G01*
X211368700Y-118025000D02*
X210418700Y-118025000D01*
G75*
G02*
X210168700Y-117775000I0J250000D01*
G01*
X210168700Y-117100000D01*
G75*
G02*
X210418700Y-116850000I250000J0D01*
G01*
X211368700Y-116850000D01*
G75*
G02*
X211618700Y-117100000I0J-250000D01*
G01*
X211618700Y-117775000D01*
G75*
G02*
X211368700Y-118025000I-250000J0D01*
G01*
G37*
G36*
G01*
X211368700Y-115950000D02*
X210418700Y-115950000D01*
G75*
G02*
X210168700Y-115700000I0J250000D01*
G01*
X210168700Y-115025000D01*
G75*
G02*
X210418700Y-114775000I250000J0D01*
G01*
X211368700Y-114775000D01*
G75*
G02*
X211618700Y-115025000I0J-250000D01*
G01*
X211618700Y-115700000D01*
G75*
G02*
X211368700Y-115950000I-250000J0D01*
G01*
G37*
%TD*%
%TO.C,C18*%
G36*
G01*
X213475600Y-121801100D02*
X213950600Y-121801100D01*
G75*
G02*
X214188100Y-122038600I0J-237500D01*
G01*
X214188100Y-122638600D01*
G75*
G02*
X213950600Y-122876100I-237500J0D01*
G01*
X213475600Y-122876100D01*
G75*
G02*
X213238100Y-122638600I0J237500D01*
G01*
X213238100Y-122038600D01*
G75*
G02*
X213475600Y-121801100I237500J0D01*
G01*
G37*
G36*
G01*
X213475600Y-120076100D02*
X213950600Y-120076100D01*
G75*
G02*
X214188100Y-120313600I0J-237500D01*
G01*
X214188100Y-120913600D01*
G75*
G02*
X213950600Y-121151100I-237500J0D01*
G01*
X213475600Y-121151100D01*
G75*
G02*
X213238100Y-120913600I0J237500D01*
G01*
X213238100Y-120313600D01*
G75*
G02*
X213475600Y-120076100I237500J0D01*
G01*
G37*
%TD*%
%TO.C,C19*%
G36*
G01*
X224277400Y-125567801D02*
X224277400Y-124267799D01*
G75*
G02*
X224527399Y-124017800I249999J0D01*
G01*
X225352401Y-124017800D01*
G75*
G02*
X225602400Y-124267799I0J-249999D01*
G01*
X225602400Y-125567801D01*
G75*
G02*
X225352401Y-125817800I-249999J0D01*
G01*
X224527399Y-125817800D01*
G75*
G02*
X224277400Y-125567801I0J249999D01*
G01*
G37*
G36*
G01*
X227402400Y-125567801D02*
X227402400Y-124267799D01*
G75*
G02*
X227652399Y-124017800I249999J0D01*
G01*
X228477401Y-124017800D01*
G75*
G02*
X228727400Y-124267799I0J-249999D01*
G01*
X228727400Y-125567801D01*
G75*
G02*
X228477401Y-125817800I-249999J0D01*
G01*
X227652399Y-125817800D01*
G75*
G02*
X227402400Y-125567801I0J249999D01*
G01*
G37*
%TD*%
%TO.C,C20*%
G36*
G01*
X224429000Y-122735701D02*
X224429000Y-121435699D01*
G75*
G02*
X224678999Y-121185700I249999J0D01*
G01*
X225504001Y-121185700D01*
G75*
G02*
X225754000Y-121435699I0J-249999D01*
G01*
X225754000Y-122735701D01*
G75*
G02*
X225504001Y-122985700I-249999J0D01*
G01*
X224678999Y-122985700D01*
G75*
G02*
X224429000Y-122735701I0J249999D01*
G01*
G37*
G36*
G01*
X227554000Y-122735701D02*
X227554000Y-121435699D01*
G75*
G02*
X227803999Y-121185700I249999J0D01*
G01*
X228629001Y-121185700D01*
G75*
G02*
X228879000Y-121435699I0J-249999D01*
G01*
X228879000Y-122735701D01*
G75*
G02*
X228629001Y-122985700I-249999J0D01*
G01*
X227803999Y-122985700D01*
G75*
G02*
X227554000Y-122735701I0J249999D01*
G01*
G37*
%TD*%
D11*
%TO.C,D1*%
X219782700Y-121780900D03*
X216482700Y-121780900D03*
%TD*%
D12*
%TO.C,L3*%
X220724000Y-126619600D03*
X216024000Y-126619600D03*
%TD*%
%TO.C,R8*%
G36*
G01*
X214478600Y-112375701D02*
X214478600Y-111475699D01*
G75*
G02*
X214728599Y-111225700I249999J0D01*
G01*
X215428601Y-111225700D01*
G75*
G02*
X215678600Y-111475699I0J-249999D01*
G01*
X215678600Y-112375701D01*
G75*
G02*
X215428601Y-112625700I-249999J0D01*
G01*
X214728599Y-112625700D01*
G75*
G02*
X214478600Y-112375701I0J249999D01*
G01*
G37*
G36*
G01*
X216478600Y-112375701D02*
X216478600Y-111475699D01*
G75*
G02*
X216728599Y-111225700I249999J0D01*
G01*
X217428601Y-111225700D01*
G75*
G02*
X217678600Y-111475699I0J-249999D01*
G01*
X217678600Y-112375701D01*
G75*
G02*
X217428601Y-112625700I-249999J0D01*
G01*
X216728599Y-112625700D01*
G75*
G02*
X216478600Y-112375701I0J249999D01*
G01*
G37*
%TD*%
%TO.C,R9*%
G36*
G01*
X220447100Y-112502701D02*
X220447100Y-111602699D01*
G75*
G02*
X220697099Y-111352700I249999J0D01*
G01*
X221397101Y-111352700D01*
G75*
G02*
X221647100Y-111602699I0J-249999D01*
G01*
X221647100Y-112502701D01*
G75*
G02*
X221397101Y-112752700I-249999J0D01*
G01*
X220697099Y-112752700D01*
G75*
G02*
X220447100Y-112502701I0J249999D01*
G01*
G37*
G36*
G01*
X218447100Y-112502701D02*
X218447100Y-111602699D01*
G75*
G02*
X218697099Y-111352700I249999J0D01*
G01*
X219397101Y-111352700D01*
G75*
G02*
X219647100Y-111602699I0J-249999D01*
G01*
X219647100Y-112502701D01*
G75*
G02*
X219397101Y-112752700I-249999J0D01*
G01*
X218697099Y-112752700D01*
G75*
G02*
X218447100Y-112502701I0J249999D01*
G01*
G37*
%TD*%
%TO.C,R10*%
G36*
G01*
X212107399Y-112716100D02*
X213007401Y-112716100D01*
G75*
G02*
X213257400Y-112966099I0J-249999D01*
G01*
X213257400Y-113666101D01*
G75*
G02*
X213007401Y-113916100I-249999J0D01*
G01*
X212107399Y-113916100D01*
G75*
G02*
X211857400Y-113666101I0J249999D01*
G01*
X211857400Y-112966099D01*
G75*
G02*
X212107399Y-112716100I249999J0D01*
G01*
G37*
G36*
G01*
X212107399Y-110716100D02*
X213007401Y-110716100D01*
G75*
G02*
X213257400Y-110966099I0J-249999D01*
G01*
X213257400Y-111666101D01*
G75*
G02*
X213007401Y-111916100I-249999J0D01*
G01*
X212107399Y-111916100D01*
G75*
G02*
X211857400Y-111666101I0J249999D01*
G01*
X211857400Y-110966099D01*
G75*
G02*
X212107399Y-110716100I249999J0D01*
G01*
G37*
%TD*%
%TO.C,R11*%
G36*
G01*
X224450101Y-118157900D02*
X223550099Y-118157900D01*
G75*
G02*
X223300100Y-117907901I0J249999D01*
G01*
X223300100Y-117207899D01*
G75*
G02*
X223550099Y-116957900I249999J0D01*
G01*
X224450101Y-116957900D01*
G75*
G02*
X224700100Y-117207899I0J-249999D01*
G01*
X224700100Y-117907901D01*
G75*
G02*
X224450101Y-118157900I-249999J0D01*
G01*
G37*
G36*
G01*
X224450101Y-116157900D02*
X223550099Y-116157900D01*
G75*
G02*
X223300100Y-115907901I0J249999D01*
G01*
X223300100Y-115207899D01*
G75*
G02*
X223550099Y-114957900I249999J0D01*
G01*
X224450101Y-114957900D01*
G75*
G02*
X224700100Y-115207899I0J-249999D01*
G01*
X224700100Y-115907901D01*
G75*
G02*
X224450101Y-116157900I-249999J0D01*
G01*
G37*
%TD*%
%TO.C,R12*%
G36*
G01*
X225400100Y-113467901D02*
X225400100Y-112567899D01*
G75*
G02*
X225650099Y-112317900I249999J0D01*
G01*
X226350101Y-112317900D01*
G75*
G02*
X226600100Y-112567899I0J-249999D01*
G01*
X226600100Y-113467901D01*
G75*
G02*
X226350101Y-113717900I-249999J0D01*
G01*
X225650099Y-113717900D01*
G75*
G02*
X225400100Y-113467901I0J249999D01*
G01*
G37*
G36*
G01*
X223400100Y-113467901D02*
X223400100Y-112567899D01*
G75*
G02*
X223650099Y-112317900I249999J0D01*
G01*
X224350101Y-112317900D01*
G75*
G02*
X224600100Y-112567899I0J-249999D01*
G01*
X224600100Y-113467901D01*
G75*
G02*
X224350101Y-113717900I-249999J0D01*
G01*
X223650099Y-113717900D01*
G75*
G02*
X223400100Y-113467901I0J249999D01*
G01*
G37*
%TD*%
D13*
%TO.C,U4*%
X219769500Y-118720200D03*
X219769500Y-117450200D03*
X219769500Y-116180200D03*
X219769500Y-114910200D03*
X214819500Y-114910200D03*
X214819500Y-116180200D03*
X214819500Y-117450200D03*
X214819500Y-118720200D03*
%TD*%
M02*
